<?xml version="1.0" standalone="no"?>
<!DOCTYPE svg PUBLIC "-//W3C//DTD SVG 1.1//EN" "http://www.w3.org/Graphics/SVG/1.1/DTD/svg11.dtd">
<svg xmlns="http://www.w3.org/2000/svg" width="240" height="86" viewBox="0 0 240 86"><path fill="#f47420" d="M221.605.66c5.186 1.812 9.232 4.205 12.922 8.297 3.216 4.46 5.033 9.125 5.852 14.555.267 5.493-.808 10.16-3.063 15.164-2.196 3.878-4.699 6.717-8.316 9.324-4.79 2.713-9.492 4.232-15 4.5-5.508-.268-10.21-1.787-15-4.5-4.436-3.198-7.197-6.839-9.437-11.812-1.801-5.153-2.379-9.781-1.563-15.188 1.352-5.334 3.426-9.773 7.125-13.875 7.446-6.716 16.818-8.913 26.48-6.465"/><path fill="#17325d" d="M174.063 53.563C178 54 178 54 181 55.5l2 1.5 1-3q2.219-.04 4.438-.062l2.496-.036L193 54l1 1c.088 2.219.107 4.44.098 6.66l-.005 2.014c-.005 2.13-.018 4.259-.03 6.389q-.008 2.16-.014 4.322Q194.032 79.692 194 85h-10l-1-3-1.625 1.438C179 85 179 85 176.188 85.875c-3.188.125-3.188.125-6.813-1-3.505-1.947-5.207-3.54-7.375-6.875-1.542-4.625-1.374-9.167-1-14 1.125-3.437 1.125-3.437 3-6 3.247-2.87 5.771-4.251 10.063-4.437m-1.375 9.374c-1.84 1.9-1.84 1.9-2.04 4.16-.086 2.421-.126 4.525.352 6.903 1.26 1.807 1.26 1.807 3 3 2.957.583 2.957.583 6 0 2.52-1.437 2.52-1.437 4-4 .667-3.5.667-3.5 0-7-1.543-2.543-1.543-2.543-4-4-2.954-.517-4.546-.184-7.312.938M18 54c2.563 1.5 2.563 1.5 4 3l1-3h10v31H23l-1-3-1.625 1.438C18 85 18 85 15.188 85.875 12 86 12 86 8.375 84.875 4.852 82.918 3.143 81.379 1 78c-1.326-4.315-1.528-8.528-1-13 1.3-4.085 3.02-7.103 6.188-10 3.979-1.415 7.635-1.608 11.812-1m-6.312 9.5c-1.782 2.278-1.782 2.278-2.04 4.441-.151 2.43-.151 2.43.352 6.059l1.125 2c1.961 1.18 1.961 1.18 4.813 1.438 3.1-.222 3.1-.222 5.437-2 1.883-2.445 1.883-2.445 2.125-5.938-.234-3.505-.234-3.505-2.187-5.937-2.209-1.71-2.209-1.71-4.813-2.063-2.594.359-2.594.359-4.812 2M98 54c2.887 1.002 4.49 2.104 7 4 1.938 2.25 1.938 2.25 3 5v8H87c1.453 4.584 1.453 4.584 3 6 2.416.334 2.416.334 5 0l1.34-1.504L98 74c2.48-.293 2.48-.293 5.188-.187l2.73.082L108 74c-.687 2.75-.687 2.75-2 6-2.457 2.457-4.671 3.847-7.812 5.313-4.028.868-7.217.76-11.188-.313-3.136-1.507-5.175-2.92-7.293-5.691-1.745-2.949-2.65-5.405-2.867-8.84.257-4.168.996-7.136 2.847-10.906C84.85 53.843 90.616 52.948 98 54m-9.375 8.25L87 64v3h12l-2-5c-3.442-1.197-5.117-1.465-8.375.25M58 46h9v8h6v8h-6l1 14 5 1v8c-3.036.238-5.969.335-9 0-3-1.875-3-1.875-5-4-1.586-3.172-1.379-6.635-1.562-10.125l-.131-2.285A1637 1637 0 0 1 57 63l-4-1v-7l5-1zM40 44h9v41H39q-.037-8.517-.055-17.035-.008-2.9-.02-5.8c-.013-2.772-.018-5.545-.023-8.317l-.015-2.636c0-2.071.05-4.142.113-6.212zM138 54h9l2 4 2.25-2 2.75-2h4v10l-6.152 1.465C150 65.839 150 65.839 149 67a61 61 0 0 0-.316 4.035l-.127 2.451-.12 2.576-.13 2.588q-.159 3.175-.307 6.35h-10zM114 54h9l1 4 2.75-2 3.25-2h4v10l-6.934 1.367L125 66c-1.65 3.3-1.383 6.991-1.562 10.625l-.131 2.43Q123.148 82.027 123 85h-9z"/></svg>