<svg xmlns="http://www.w3.org/2000/svg" xmlns:v="https://svgstorm.com"
viewBox = "0 0 230 235"
width="230"
height="235">
<g fill="None" fill-opacity="0.0" stroke="#000000" stroke-opacity="0.00" stroke-width="0.3"><path d="
M 0.00 235.00 
L 230.00 235.00
L 230.00 0.00
L 0.00 0.00
L 0.00 235.00
M 167.00 70.00 
C 185.75 80.56 201.35 96.35 220.00 107.00
C 214.58 128.81 207.82 150.26 202.00 172.00
C 193.25 171.68 184.76 170.32 176.00 170.00
C 170.15 179.65 163.53 186.40 157.25 196.25 C 150.96 206.09 145.35 213.19 138.70 223.70 C 132.04 234.20 116.94 225.47 105.98 223.02 C 95.01 220.58 81.34 215.35 70.00 213.00
C 70.00 202.67 70.00 192.33 70.00 182.00
C 62.03 177.41 54.27 171.61 46.30 166.70 C 38.34 161.78 29.45 156.46 21.77 151.23 C 14.09 146.00 0.93 142.18 4.98 131.98 C 9.02 121.77 10.56 111.29 13.98 100.98 C 17.39 90.66 19.48 80.27 23.00 70.00
C 36.60 69.26 49.42 71.61 63.00 71.00
C 66.66 62.72 72.72 58.07 76.75 49.75 C 80.79 41.44 86.11 37.39 90.25 28.25 C 94.40 19.11 100.06 14.74 110.07 18.93 C 120.08 23.12 129.06 21.89 139.01 24.99 C 148.96 28.10 158.74 29.24 169.00 31.00
C 168.82 44.11 166.87 56.79 167.00 70.00 Z"/>
</g>
<g fill="None" fill-opacity="0.0" stroke="#4BAE4F" stroke-opacity="0.99" stroke-width="0.3"><path d="
M 63.00 71.00 
C 60.15 77.44 56.18 83.61 53.00 90.00
C 72.47 101.20 90.64 115.31 110.00 127.00
C 111.67 121.63 116.59 117.57 119.00 113.00
C 128.48 95.04 140.35 77.65 151.00 60.00
C 156.82 62.54 161.04 68.04 167.00 70.00
C 166.87 56.79 168.82 44.11 169.00 31.00
C 158.74 29.24 148.96 28.10 139.01 24.99 C 129.06 21.89 120.08 23.12 110.07 18.93 C 100.06 14.74 94.40 19.11 90.25 28.25 C 86.11 37.39 80.79 41.44 76.75 49.75 C 72.72 58.07 66.66 62.72 63.00 71.00 Z"/>
</g>
<g fill="None" fill-opacity="0.0" stroke="#FEC007" stroke-opacity="0.98" stroke-width="0.3"><path d="
M 119.00 113.00 
C 122.37 112.39 129.28 120.43 132.00 122.00
C 149.66 132.16 165.56 146.46 183.00 157.00
C 183.04 162.28 176.84 165.03 176.00 170.00
C 184.76 170.32 193.25 171.68 202.00 172.00
C 207.82 150.26 214.58 128.81 220.00 107.00
C 201.35 96.35 185.75 80.56 167.00 70.00
C 161.04 68.04 156.82 62.54 151.00 60.00
C 140.35 77.65 128.48 95.04 119.00 113.00 Z"/>
</g>
<g fill="None" fill-opacity="0.0" stroke="#3F50B4" stroke-opacity="0.99" stroke-width="0.3"><path d="
M 70.00 182.00 
C 75.16 184.97 80.77 187.85 86.00 191.00
C 96.86 171.74 113.18 154.67 123.00 135.00
C 119.81 135.58 112.73 128.69 110.00 127.00
C 90.64 115.31 72.47 101.20 53.00 90.00
C 56.18 83.61 60.15 77.44 63.00 71.00
C 49.42 71.61 36.60 69.26 23.00 70.00
C 19.48 80.27 17.39 90.66 13.98 100.98 C 10.56 111.29 9.02 121.77 4.98 131.98 C 0.93 142.18 14.09 146.00 21.77 151.23 C 29.45 156.46 38.34 161.78 46.30 166.70 C 54.27 171.61 62.03 177.41 70.00 182.00 Z"/>
</g>
<g fill="None" fill-opacity="0.0" stroke="#000000" stroke-opacity="0.00" stroke-width="0.3"><path d="
M 110.00 127.00 
C 112.73 128.69 119.81 135.58 123.00 135.00
C 124.55 132.23 132.66 125.49 132.00 122.00
C 129.28 120.43 122.37 112.39 119.00 113.00
C 116.59 117.57 111.67 121.63 110.00 127.00 Z"/>
</g>
<g fill="None" fill-opacity="0.0" stroke="#F34136" stroke-opacity="0.99" stroke-width="0.3"><path d="
M 123.00 135.00 
C 113.18 154.67 96.86 171.74 86.00 191.00
C 80.77 187.85 75.16 184.97 70.00 182.00
C 70.00 192.33 70.00 202.67 70.00 213.00
C 81.34 215.35 95.01 220.58 105.98 223.02 C 116.94 225.47 132.04 234.20 138.70 223.70 C 145.35 213.19 150.96 206.09 157.25 196.25 C 163.53 186.40 170.15 179.65 176.00 170.00
C 176.84 165.03 183.04 162.28 183.00 157.00
C 165.56 146.46 149.66 132.16 132.00 122.00
C 132.66 125.49 124.55 132.23 123.00 135.00 Z"/>
</g>
<g fill="#000000" fill-opacity="0.00" stroke="None"><path d="
M 0.00 235.00 
L 230.00 235.00
L 230.00 0.00
L 0.00 0.00
L 0.00 235.00
M 167.00 70.00 
C 185.75 80.56 201.35 96.35 220.00 107.00
C 214.58 128.81 207.82 150.26 202.00 172.00
C 193.25 171.68 184.76 170.32 176.00 170.00
C 170.15 179.65 163.53 186.40 157.25 196.25 C 150.96 206.09 145.35 213.19 138.70 223.70 C 132.04 234.20 116.94 225.47 105.98 223.02 C 95.01 220.58 81.34 215.35 70.00 213.00
C 70.00 202.67 70.00 192.33 70.00 182.00
C 62.03 177.41 54.27 171.61 46.30 166.70 C 38.34 161.78 29.45 156.46 21.77 151.23 C 14.09 146.00 0.93 142.18 4.98 131.98 C 9.02 121.77 10.56 111.29 13.98 100.98 C 17.39 90.66 19.48 80.27 23.00 70.00
C 36.60 69.26 49.42 71.61 63.00 71.00
C 66.66 62.72 72.72 58.07 76.75 49.75 C 80.79 41.44 86.11 37.39 90.25 28.25 C 94.40 19.11 100.06 14.74 110.07 18.93 C 120.08 23.12 129.06 21.89 139.01 24.99 C 148.96 28.10 158.74 29.24 169.00 31.00
C 168.82 44.11 166.87 56.79 167.00 70.00 Z"/>
</g>
<g fill="#4BAE4F" fill-opacity="0.99" stroke="None"><path d="
M 63.00 71.00 
C 60.15 77.44 56.18 83.61 53.00 90.00
C 72.47 101.20 90.64 115.31 110.00 127.00
C 111.67 121.63 116.59 117.57 119.00 113.00
C 128.48 95.04 140.35 77.65 151.00 60.00
C 156.82 62.54 161.04 68.04 167.00 70.00
C 166.87 56.79 168.82 44.11 169.00 31.00
C 158.74 29.24 148.96 28.10 139.01 24.99 C 129.06 21.89 120.08 23.12 110.07 18.93 C 100.06 14.74 94.40 19.11 90.25 28.25 C 86.11 37.39 80.79 41.44 76.75 49.75 C 72.72 58.07 66.66 62.72 63.00 71.00 Z"/>
</g>
<g fill="#FEC007" fill-opacity="0.98" stroke="None"><path d="
M 119.00 113.00 
C 122.37 112.39 129.28 120.43 132.00 122.00
C 149.66 132.16 165.56 146.46 183.00 157.00
C 183.04 162.28 176.84 165.03 176.00 170.00
C 184.76 170.32 193.25 171.68 202.00 172.00
C 207.82 150.26 214.58 128.81 220.00 107.00
C 201.35 96.35 185.75 80.56 167.00 70.00
C 161.04 68.04 156.82 62.54 151.00 60.00
C 140.35 77.65 128.48 95.04 119.00 113.00 Z"/>
</g>
<g fill="#3F50B4" fill-opacity="0.99" stroke="None"><path d="
M 70.00 182.00 
C 75.16 184.97 80.77 187.85 86.00 191.00
C 96.86 171.74 113.18 154.67 123.00 135.00
C 119.81 135.58 112.73 128.69 110.00 127.00
C 90.64 115.31 72.47 101.20 53.00 90.00
C 56.18 83.61 60.15 77.44 63.00 71.00
C 49.42 71.61 36.60 69.26 23.00 70.00
C 19.48 80.27 17.39 90.66 13.98 100.98 C 10.56 111.29 9.02 121.77 4.98 131.98 C 0.93 142.18 14.09 146.00 21.77 151.23 C 29.45 156.46 38.34 161.78 46.30 166.70 C 54.27 171.61 62.03 177.41 70.00 182.00 Z"/>
</g>
<g fill="#000000" fill-opacity="0.00" stroke="None"><path d="
M 110.00 127.00 
C 112.73 128.69 119.81 135.58 123.00 135.00
C 124.55 132.23 132.66 125.49 132.00 122.00
C 129.28 120.43 122.37 112.39 119.00 113.00
C 116.59 117.57 111.67 121.63 110.00 127.00 Z"/>
</g>
<g fill="#F34136" fill-opacity="0.99" stroke="None"><path d="
M 123.00 135.00 
C 113.18 154.67 96.86 171.74 86.00 191.00
C 80.77 187.85 75.16 184.97 70.00 182.00
C 70.00 192.33 70.00 202.67 70.00 213.00
C 81.34 215.35 95.01 220.58 105.98 223.02 C 116.94 225.47 132.04 234.20 138.70 223.70 C 145.35 213.19 150.96 206.09 157.25 196.25 C 163.53 186.40 170.15 179.65 176.00 170.00
C 176.84 165.03 183.04 162.28 183.00 157.00
C 165.56 146.46 149.66 132.16 132.00 122.00
C 132.66 125.49 124.55 132.23 123.00 135.00 Z"/>
</g>
</svg>