<svg version="1.1" id="Layer_1" xmlns="http://www.w3.org/2000/svg" xmlns:xlink="http://www.w3.org/1999/xlink" x="0px" y="0px" viewBox="0 0 35.7 41" style="enable-background:new 0 0 35.7 41;" xml:space="preserve">
 <style type="text/css">
  .st0{fill-rule:evenodd;clip-rule:evenodd;fill:#0DA7FE;}
	.st1{fill-rule:evenodd;clip-rule:evenodd;fill:#1A67FD;}
	.st2{fill-rule:evenodd;clip-rule:evenodd;fill:#05BBFF;}
	.st3{fill-rule:evenodd;clip-rule:evenodd;fill:#00C9FF;}
	.st4{fill-rule:evenodd;clip-rule:evenodd;fill:#1A86FD;}
	.st5{fill-rule:evenodd;clip-rule:evenodd;fill:#1A67FD;fill-opacity:0.5;}
	.st6{fill-rule:evenodd;clip-rule:evenodd;fill:#D6FFFF;}
 </style>
 <g>
  <path class="st0" d="M16.2,1c1.1-0.6,2.4-0.6,3.5,0l14.2,8.2c1.1,0.6,1.8,1.8,1.8,3v16.5c0,1.2-0.7,2.4-1.8,3L19.7,40
		c-1.1,0.6-2.4,0.6-3.5,0c-4.7-2.7-9.5-5.5-14.2-8.2c-1.1-0.6-1.7-1.8-1.8-3V12.3c0-1.3,0.7-2.4,1.8-3L16.2,1z">
  </path>
  <path class="st1" d="M0,30.7l9.4-10.2L18,41L0,30.7z">
  </path>
  <path class="st0" d="M9.4,20.5L0.1,10.2L0,30.7C0,30.7,9.4,20.5,9.4,20.5z">
  </path>
  <path class="st2" d="M9.4,20.5L18,0L0.1,10.2L9.4,20.5L9.4,20.5z">
  </path>
  <path class="st3" d="M18,0l17.7,30.7L9.4,20.5">
  </path>
  <path class="st4" d="M18,41l17.7-10.3L9.4,20.5L18,41z">
  </path>
  <path class="st2" d="M35.7,30.7V10.2L18,0C18,0,35.7,30.7,35.7,30.7z">
  </path>
  <path class="st5" d="M15.4,12.4L24,21l-8.6,8.6l-2.3-2.3l6.3-6.3l-6.3-6.3C13.1,14.7,15.4,12.4,15.4,12.4z">
  </path>
  <path class="st6" d="M24,20l-2.3-2.3l-8.6,8.6l2.3,2.3L24,20L24,20z">
  </path>
  <path class="st6" d="M15.4,11.4l-2.3,2.3l8.6,8.6L24,20C24,20,15.4,11.4,15.4,11.4z">
  </path>
 </g>
</svg>