<?xml version="1.0" standalone="no"?>
<!DOCTYPE svg PUBLIC "-//W3C//DTD SVG 1.1//EN" "http://www.w3.org/Graphics/SVG/1.1/DTD/svg11.dtd">
<svg xmlns="http://www.w3.org/2000/svg" width="1000" height="1000" viewBox="0 0 1000 1000"><path fill="#012069" d="M0 0h1000v1000H0z"/><path fill="#fff" d="M464.148 203.98c4 .858 7.92 1.89 11.852 3.02l1.92.55c9.597 2.807 18.291 6.738 27.08 11.45l2.453 1.277C518.636 226.251 528.44 233.753 538 242l2.074 1.7c15.376 12.796 26.43 28.859 35.926 46.3l1.652 2.926 1.285 2.387 1.34 2.425L581 300c-.675 1.948-.675 1.948-2 4-2.009 1.58-2.009 1.58-4.48 3.102l-2.756 1.72-2.952 1.803a5446 5446 0 0 0-6.05 3.773l-2.995 1.863c-3.596 2.26-7.125 4.609-10.642 6.989q-3.558 2.382-7.125 4.75l-2.12 1.41a728 728 0 0 1-6.567 4.277l-2.037 1.355c-1.913 1.22-1.913 1.22-5.276 2.958-2.144-.286-2.144-.286-4-1-1.055-1.68-1.055-1.68-1.875-3.875-3.864-9.488-9.09-17.878-15.125-26.125l-1.496-2.156c-8.616-12.141-22.442-21.07-35.629-27.656-6.17-2.823-12.6-4.74-19.125-6.563l-2.723-.761c-19.934-5.23-43.929-4.926-63.851.1-19.678 5.443-38.75 16.54-53.176 31.036-8.89 9.264-16.76 19.789-23 31l-1.52 2.605A113.9 113.9 0 0 0 293 363l-.676 2.594c-.803 3.129-1.57 6.265-2.324 9.406l-.824 3.395C285.7 393.497 285.748 408.589 286 424l.022 2.231c.235 17.046 3.641 34.35 10.978 49.769a422 422 0 0 1 2.125 5.375C305.787 498.531 316.451 513.689 329 527l1.75 1.945c12.618 13.464 29.628 25.37 47.313 30.93 2.633.763 5.28 1.454 7.937 2.125l3.602.965C400.877 565.63 409.752 565 422 565l1-191c54.978-.04 54.978-.04 78.021-.049q23.865-.008 47.728-.026 17.38-.015 34.76-.02 9.2 0 18.4-.01 8.666-.011 17.332-.008 3.174 0 6.348-.006c28.162-.049 28.162-.049 41.411 5.119l1.913.743C682.688 385.18 693.218 392.83 704 403l1.898 1.738C717.586 415.818 726.046 430.8 731 446a439 439 0 0 0 1.625 4.188c1.466 3.871 2.42 7.786 3.375 11.812l1 3c3.555 21.638 1.316 44.471-6 65l-1.297 3.684c-2.058 5.596-4.14 10.49-7.703 15.316l-1.793 3.262c-2.12 3.745-4.643 6.933-7.457 10.176l-1.46 1.7C705.955 570.3 700.42 575.96 694 581l2.79 1.547c17.126 9.736 30.974 22.305 41.523 39.015A407 407 0 0 1 742 628l1.648 2.852c4.646 8.559 7.189 17.7 9.352 27.148l.57 2.443c1.709 8.165 1.826 16.313 1.805 24.62v2.207c-.026 11.35-.905 21.874-4.375 32.73l-.875 2.988C745.733 736.536 737.978 748.118 729 759l-2.477 3.094c-10.804 12.444-27.729 23.55-43.273 29.156l-2.7.887c-2.462.833-4.748 1.85-7.112 2.926-6.693 2.726-13.853 3.525-20.965 4.538a67 67 0 0 0-4.597.897c-9.83 2.215-19.831 1.774-29.845 1.745q-3.178.001-6.355.006c-5.724.004-11.449-.003-17.173-.013-5.993-.01-11.987-.007-17.98-.007q-15.078-.002-30.156-.023-17.452-.023-34.906-.02-16.787 0-33.575-.013-7.15-.006-14.3-.006-8.398-.002-16.798-.017-3.09-.004-6.181-.004-4.2 0-8.399-.012l-2.503.004A173 173 0 0 1 424 802l-1-1c-.101-1.906-.13-3.816-.134-5.725l-.013-3.77.002-4.173-.01-4.365q-.014-5.944-.012-11.888-.002-4.954-.008-9.909-.013-11.685-.01-23.368-.001-12.071-.026-24.142-.019-10.348-.018-20.696.002-6.187-.013-12.374-.014-5.817-.003-11.635.003-2.139-.007-4.278c-.008-1.942-.002-3.883.005-5.825l-.002-3.297L423 653l2-2c1.894-.315 1.894-.315 4.242-.422l2.691-.16 2.942-.168c9.533-.68 18.724-2.164 28.063-4.187l3.567-.767c6.057-1.357 11.746-2.958 17.495-5.296 3-1 3-1 10-1l1 97c24.816.087 24.816.087 49.633.146 10.124.018 20.247.04 30.37.08q11.063.046 22.122.056c3.902.004 7.804.013 11.705.035q5.518.03 11.036.022c1.98.002 3.961.018 5.942.034 9.56-.033 17.579-1.536 25.901-6.334l1.729-1.039 1.81-1.04c2.96-1.732 5.371-3.51 7.752-5.96h2l.828-1.812c1.134-2.116 2.264-3.476 3.922-5.188 4.162-4.732 6.721-10.269 9.25-16l1.652-3.547c2.108-5.757 1.783-11.711 1.723-17.765l.035-3.514c-.035-10.355-1.83-19.25-7.035-28.236-5.194-8.817-11.387-16.263-20.168-21.692-8.254-4.758-8.254-4.758-17.478-6.404l-2.639-.03-2.886-.017-3.045-.03q-4.992-.047-9.983-.081l-6.915-.063q-9.107-.082-18.214-.153-9.29-.077-18.58-.161A44345 44345 0 0 0 539 617c.338-1.872.338-1.872 1-4a77 77 0 0 1 6.063-4.312C554.887 602.68 562.45 595.516 570 588l1.713-1.7c8.438-8.483 16.425-18.063 21.539-28.97L595 555c2.736-.612 2.736-.612 6.031-.602l3.649-.046 3.82.023c8.904 0 17.08-.204 25.5-3.375 3.328-1.884 3.328-1.884 6-4l2.438-1.375c7.988-5.066 12.715-11.533 17.562-19.625 5.071-9.738 6.177-18.69 6.125-29.5l.012-2.434c-.018-11.059-2.277-19.829-7.45-29.628-4.538-7.798-9.472-14-17.066-19.004-3.306-1.808-6.553-2.917-10.2-3.829C629 441 629 441 626.627 439.976c-5.349-1.44-10.542-1.237-16.057-1.203h-3.786q-5.119.001-10.238.024c-3.572.013-7.143.014-10.715.016-6.757.006-13.514.023-20.271.043-9.135.027-18.27.037-27.405.049-14.385.019-28.77.059-43.154.095v98c13.911-10.433 25.6-24.676 34-40q1.021-2.491 2-5a414 414 0 0 1 3.125-6.312l1.633-3.239L537 480h3c1.473 1.434 1.473 1.434 3.063 3.438 4.722 5.639 10.197 10.328 15.75 15.13 5.594 4.857 10.988 9.904 16.363 15.002 3.027 2.858 6.042 5.64 9.308 8.223L587 524c.125 2.688.125 2.688-1 6-.23.697-.461 1.395-.7 2.113-7.769 21.48-23.73 40.17-40.925 54.824-5.811 4.836-12.012 8.996-18.375 13.063q-2.377 1.62-4.75 3.25A83 83 0 0 1 509 610h-3v2l-3.184 1.172c-8.852 3.23-8.852 3.23-17.503 6.953-10.93 4.962-22.727 7.16-34.435 9.458-2.088.43-2.088.43-4.878 1.417-30.264 4.368-63.591 3.408-92.273-8.004A762 762 0 0 1 349 621q-1.904-.769-3.809-1.535c-20.952-8.818-39.26-21.198-56.386-36.035a339 339 0 0 0-6.68-5.617c-3.778-3.264-6.906-7.01-10.125-10.813a1759 1759 0 0 0-2.898-3.309c-5.52-6.31-10.674-12.555-15.102-19.691l-3.31-5.052c-3.71-5.685-7.177-11.43-10.354-17.432-1.27-2.392-2.608-4.733-3.961-7.078-2.582-4.666-4.507-9.45-6.375-14.438l-1.664-4.297c-3.502-9.154-6.437-18.214-8.61-27.773L219 465l-1-1c-7.376-29.25-7.094-61.414-2-91l.356-2.076c.72-4.02 1.631-7.968 2.644-11.924l.555-2.18c4.07-15.797 4.07-15.797 7.49-22.667.996-2.246 1.633-4.433 2.268-6.805 1.571-5.355 3.884-10.033 6.562-14.91l1.277-2.381A896 896 0 0 1 241 303l1.318-2.422c3.197-5.833 6.79-11.186 10.682-16.578l1.77-2.55c13.305-18.908 29.535-34.073 48.23-47.575l1.652-1.2c25.36-18.07 55.215-28.833 86.098-31.8l2.64-.23 2.47-.215 2.202-.18c22.131-2.85 44.093-.632 66.086 3.73"/><path fill="#fff" d="m682 143 3 1a86 86 0 0 1 2.996 7.656l.833 2.353c.88 2.493 1.745 4.992 2.609 7.491q1.71 4.893 3.433 9.781l.831 2.368c1.641 4.635 3.43 9.138 5.513 13.596 1.189 2.658 1.987 5.396 2.785 8.192 1.683 5.676 3.713 11.108 6 16.563 9.348.807 18.673 1.26 28.05 1.535l4.182.13q5.432.169 10.865.33 5.572.17 11.143.343 10.88.335 21.76.662v3c-2 1.8-3.974 3.398-6.125 5l-3.883 2.969-2.016 1.527c-3.02 2.3-5.997 4.652-8.976 7.004l-5.25 4.125-7.003 5.502-3.47 2.728a4149 4149 0 0 1-9.199 7.211l-1.941 1.52q-1.847 1.445-3.696 2.887c-2.252 1.764-4.416 3.502-6.441 5.527-.608 4.013.683 7.257 2.008 11.012 1.315 3.961 2.438 7.967 3.554 11.988l.636 2.264a219 219 0 0 1 3.31 13.663c.518 2.184 1.19 4.267 1.93 6.385 1.568 4.518 2.679 9.101 3.8 13.747.891 3.44 1.999 6.763 3.211 10.101C747 335 747 335 747 338c-4.308-1.566-8.062-3.683-12-6v-2l-2.152-.773c-3.089-1.33-5.634-2.956-8.41-4.852l-3.192-2.164L718 320q-2.997-2.005-6-4l-12.187-8.125-2.985-1.977a238 238 0 0 1-5.406-3.734l-2.36-1.664-2.027-1.469c-2.027-1.16-2.027-1.16-4.48-1.402-2.647.218-2.647.218-4.957 1.805-.837.66-1.674 1.322-2.535 2.003a173 173 0 0 1-12.75 8.875c-5.25 3.323-10.395 6.772-15.5 10.313-5.44 3.77-10.925 7.43-16.54 10.938a143 143 0 0 0-5.773 3.875L622 337h-3q.399-2.158.813-4.312l.457-2.426c1.075-4.8 2.417-9.522 3.73-14.262l1.938-7.102 2.062-7.523 1.04-3.812c1.634-5.952 3.3-11.862 5.335-17.69 1.73-5.182 2.757-10.488 3.625-15.873-5.777-4.793-11.6-9.503-17.562-14.062-6.131-4.688-12.17-9.48-18.166-14.338q-2.883-2.335-5.772-4.662l-1.94-1.566a160 160 0 0 0-13.9-9.97L579 218v-3l2.304-.07q10.832-.326 21.665-.66 5.566-.173 11.134-.34 5.388-.162 10.776-.33 3.021-.093 6.043-.182c8.05-.255 16.054-.725 24.078-1.418q1.853-4.456 3.703-8.914c.92-2.189 1.877-4.362 2.86-6.524 1.327-3.29 2.361-6.539 3.375-9.937 1.4-4.68 3.042-9.015 5.12-13.426 1.395-3.256 2.31-6.62 3.231-10.035C674 161 674 161 676 158c1.087-3.333 2.038-6.695 3-10.066 1-2.934 1-2.934 3-4.934"/><path fill="#012069" d="M750.906 772.723C753 773 753 773 756.25 774.625c3.067 2.649 4.933 4.742 6.75 8.375.51 4.585.193 7.32-1.062 11.75C760 798 760 798 756.875 800.438c-3.519 1.7-6.763 2.261-10.66 2.082-2.603-.611-4.075-1.536-6.153-3.207-1.852-1.84-3.142-3.445-4.5-5.688-.773-3.612-1.04-6.952-.562-10.625 1.42-3.288 2.867-4.883 5.563-7.25 3.571-2.564 5.888-3.1 10.343-3.027"/><path fill="#fff" d="M750.906 772.723C753 773 753 773 756.25 774.625c3.067 2.649 4.933 4.742 6.75 8.375.51 4.585.193 7.32-1.062 11.75C760 798 760 798 756.875 800.438c-3.519 1.7-6.763 2.261-10.66 2.082-2.603-.611-4.075-1.536-6.153-3.207-1.852-1.84-3.142-3.445-4.5-5.688-.773-3.612-1.04-6.952-.562-10.625 1.42-3.288 2.867-4.883 5.563-7.25 3.571-2.564 5.888-3.1 10.343-3.027M741 779c-2.007 2.179-2.007 2.179-3 5-.437 4.005-.175 6.537 1.25 10.313 1.493 2.706 1.493 2.706 3.582 3.828 3.075 1.219 5.69 1.33 8.973 1.21 2.446-.264 2.446-.264 5.258-2.038 2.126-3.635 2.408-5.655 2.625-9.813-.155-4.442-.155-4.442-1.833-8.457-1.645-1.63-1.645-1.63-4.855-3.043-4.783-.797-7.964.399-12 3"/><path fill="#fff" d="M744 780a72 72 0 0 1 4.938-.187l2.714-.043L754 780l2 2c-.306 2.81-.86 5.452-1.562 8.188-.555 1.987-.555 1.987-.438 4.812-1.937-.875-1.937-.875-4-2l-1-2-3-1v5h-3q-.04-3.469-.062-6.937l-.036-3.903L743 781z"/><path fill="#012069" d="M748 790c1.938 1.688 1.938 1.688 4 4 .75 2.75.75 2.75 1 5h-8v-3h2l-.062-2.437L747 791zM747 783h5v3l-5 1z"/><path fill="#012069" d="m746 790 2 1c-.25 2.375-.25 2.375-1 5-2.062 1.313-2.062 1.313-4 2l-2-2 5-1zM754 793l3 3-4 3-1-4h2z"/></svg>