<svg xmlns="http://www.w3.org/2000/svg" xmlns:v="https://svgstorm.com"
viewBox = "0 0 1506 664"
width="1506"
height="664">
<g fill="None" fill-opacity="0.0" stroke="#000000" stroke-opacity="0.00" stroke-width="0.3"><path d="
M 0.00 664.00 
L 1506.00 664.00
L 1506.00 0.00
L 0.00 0.00
L 0.00 664.00
M 952.00 22.00 
C 951.11 22.23 949.88 22.69 949.00 23.00
C 919.41 33.44 888.81 41.19 859.00 51.00
C 857.87 51.63 854.69 52.79 858.00 53.00
C 907.45 37.37 963.34 36.86 1016.00 34.00
C 1037.95 32.81 1060.66 33.00 1083.00 33.00
C 1087.74 33.00 1093.01 33.61 1097.00 34.00
C 1107.57 34.00 1117.44 34.70 1128.00 35.00
C 1130.12 35.06 1132.57 35.84 1134.00 36.00
C 1164.20 34.71 1198.99 42.19 1227.00 50.00
C 1230.05 50.85 1233.12 51.47 1236.00 53.00
C 1233.87 54.79 1229.49 54.31 1227.00 53.00
C 1210.55 51.46 1194.80 50.19 1178.33 48.67 C 1161.86 47.15 1147.08 43.97 1130.00 44.00 C 1112.92 44.03 1093.07 44.18 1076.00 44.00 C 1058.93 43.82 1042.26 45.45 1026.00 47.00 C 1009.74 48.55 994.60 50.39 978.93 52.93 C 963.25 55.46 946.50 55.93 931.33 59.33 C 916.16 62.73 901.25 64.11 886.33 67.33 C 871.41 70.55 857.07 73.13 842.32 76.32 C 827.58 79.51 812.60 82.84 797.99 85.99 C 783.38 89.14 769.37 92.61 754.98 95.98 C 740.58 99.35 725.90 103.14 711.78 106.78 C 697.66 110.42 684.10 114.16 670.32 118.32 C 656.54 122.48 642.54 125.50 628.98 129.98 C 615.41 134.45 601.49 138.65 587.98 142.98 C 574.46 147.30 561.70 151.97 548.32 156.32 C 534.94 160.68 522.83 165.79 509.75 170.75 C 496.68 175.71 483.73 179.67 470.92 185.92 C 458.12 192.18 446.47 193.78 433.75 201.75 C 421.04 209.72 406.11 211.00 391.00 211.00
C 386.92 211.00 382.34 210.32 379.00 210.00
C 366.02 210.00 355.19 210.80 342.00 210.00 C 328.81 209.20 318.98 212.14 305.00 210.00 C 291.02 207.86 291.86 222.65 290.01 233.01 C 288.15 243.36 284.97 253.28 283.02 263.02 C 281.08 272.77 281.44 284.81 272.70 289.70 C 263.97 294.60 258.57 301.37 250.00 305.00
C 248.75 305.91 247.22 307.95 246.00 309.00
C 243.56 311.11 240.54 313.01 238.00 315.00
C 236.44 316.22 234.52 317.73 233.00 319.00
C 207.52 340.35 189.01 361.30 169.68 387.68 C 150.35 414.06 131.52 451.06 137.00 486.00 C 142.48 520.94 154.12 553.76 172.00 584.00
C 140.52 573.53 111.10 555.39 84.00 535.00
C 80.85 532.31 77.90 529.79 75.00 527.00
C 72.90 525.35 71.06 523.88 69.00 522.00
C 37.72 493.36 15.76 455.29 17.00 412.00 C 18.24 368.71 37.49 330.59 66.00 299.00
C 67.08 297.81 68.02 296.20 69.00 295.00
C 72.24 291.06 76.10 286.34 80.00 284.00
C 85.48 277.83 90.93 272.89 97.00 267.00
C 98.90 265.15 100.75 262.85 103.00 261.00
C 104.24 259.98 105.86 259.03 107.00 258.00
C 109.94 255.35 112.46 252.71 116.00 251.00
C 119.84 247.72 123.70 244.53 128.00 241.00
C 162.18 212.93 201.50 199.42 240.70 179.70 C 279.90 159.97 322.72 145.11 364.68 129.68 C 406.64 114.25 455.12 100.73 499.00 90.00
C 456.21 94.29 412.20 110.84 370.99 123.99 C 329.78 137.14 291.63 154.78 251.00 169.00
C 246.09 171.24 239.84 176.78 234.00 175.00
C 238.82 171.20 244.79 167.68 251.00 166.00
C 260.12 161.69 269.13 155.92 279.08 152.08 C 289.02 148.23 298.12 142.92 308.08 139.08 C 318.03 135.23 327.89 130.84 338.07 127.07 C 348.26 123.31 358.77 118.92 369.08 115.08 C 379.38 111.24 390.10 108.10 400.69 104.69 C 411.29 101.29 421.12 97.00 432.07 94.07 C 443.02 91.15 454.15 87.16 465.22 84.22 C 476.29 81.28 487.08 78.32 498.22 75.22 C 509.37 72.12 520.71 70.10 532.02 67.02 C 543.34 63.95 555.49 61.74 567.07 59.07 C 578.66 56.40 590.29 54.50 602.07 52.07 C 613.85 49.65 625.38 48.06 637.22 45.22 C 649.06 42.38 662.95 42.35 675.00 40.00 C 687.05 37.65 699.56 35.77 712.00 35.00 C 724.44 34.23 736.69 29.97 749.22 30.22 C 761.75 30.47 776.45 23.19 787.00 29.00
C 759.60 40.23 730.57 49.37 704.00 62.00
C 704.01 62.07 705.00 62.00 705.00 62.00
C 741.46 56.04 773.66 40.05 811.01 36.01 C 848.36 31.97 890.00 17.90 929.00 21.00
C 931.94 20.72 936.47 20.34 940.00 20.00
C 945.03 19.51 953.06 17.46 958.00 20.00
C 956.75 21.80 954.20 22.21 952.00 22.00
M 1009.00 581.00 
C 1010.66 580.97 1012.34 581.11 1014.00 581.00
C 1042.26 579.05 1070.37 566.67 1097.08 559.08 C 1123.79 551.49 1150.77 542.43 1176.23 532.23 C 1201.68 522.03 1228.35 515.19 1253.00 503.00
C 1255.42 501.80 1257.23 500.85 1260.00 500.00
C 1260.78 499.76 1262.33 499.33 1263.00 499.00
C 1263.91 498.55 1264.81 497.41 1266.00 497.00
C 1267.31 496.55 1268.41 495.53 1270.00 496.00
C 1270.49 497.93 1269.26 500.37 1267.00 500.00
C 1264.16 502.29 1260.48 504.18 1257.00 505.00
C 1256.53 505.11 1256.00 505.00 1256.00 505.00
C 1250.95 513.07 1235.90 513.30 1227.93 518.93 C 1219.95 524.55 1208.10 527.39 1198.93 531.93 C 1189.76 536.46 1178.72 539.79 1168.98 543.98 C 1159.23 548.16 1148.47 551.49 1138.32 555.32 C 1128.18 559.15 1117.70 562.55 1107.32 566.32 C 1096.94 570.09 1085.97 572.81 1075.32 576.32 C 1064.68 579.83 1053.84 582.88 1042.93 585.93 C 1032.01 588.97 1021.08 591.98 1009.98 594.98 C 998.87 597.97 987.32 600.37 975.99 602.99 C 964.66 605.62 953.58 608.81 942.00 611.00 C 930.41 613.18 919.00 615.78 907.33 618.33 C 895.65 620.87 883.35 622.49 871.33 624.33 C 859.31 626.17 848.08 629.58 835.78 630.78 C 823.47 631.98 811.36 634.52 798.98 635.98 C 786.60 637.44 774.12 638.66 761.78 640.78 C 749.44 642.90 735.42 641.97 723.00 644.00
C 733.72 633.86 750.70 631.19 764.70 624.69 C 778.69 618.20 795.70 614.84 809.00 607.00
C 799.16 609.58 790.12 612.91 779.99 614.99 C 769.87 617.07 760.14 620.57 749.93 622.93 C 739.72 625.28 729.32 627.61 718.93 629.93 C 708.53 632.24 697.69 634.46 687.00 636.00 C 676.31 637.54 666.93 640.80 655.98 641.98 C 645.02 643.15 633.20 645.26 622.00 646.00 C 610.80 646.74 598.61 649.31 587.33 649.33 C 576.05 649.35 562.17 653.99 553.00 649.00
C 586.27 639.76 619.30 629.95 652.00 619.00
C 533.08 639.47 397.05 648.03 278.00 619.00
C 275.89 618.28 271.96 618.80 273.00 615.00
C 275.61 614.33 277.45 616.34 280.00 616.00
C 322.00 623.24 366.65 625.86 410.00 627.00 C 453.35 628.14 499.25 621.84 540.22 616.22 C 581.19 610.61 620.87 602.97 660.07 595.07 C 699.28 587.18 737.37 578.56 775.07 569.07 C 812.78 559.58 849.12 549.41 885.23 538.23 C 921.34 527.05 956.40 515.80 991.08 503.08 C 1025.75 490.35 1057.71 476.65 1091.08 462.08 C 1124.44 447.50 1153.34 430.22 1186.00 415.00
C 1184.21 423.96 1182.28 432.88 1181.00 442.00
C 1187.63 446.89 1200.80 440.82 1209.00 443.00 C 1217.20 445.18 1229.10 441.08 1237.00 442.00
C 1236.06 426.94 1245.44 411.73 1245.98 396.98 C 1246.51 382.22 1251.96 367.93 1264.25 360.25 C 1276.54 352.56 1283.57 343.65 1293.90 334.90 C 1304.23 326.15 1312.04 317.08 1321.00 307.00
C 1323.32 304.39 1325.98 301.53 1328.00 299.00
C 1351.48 269.55 1373.05 236.14 1373.00 197.00 C 1372.95 157.86 1355.31 119.39 1337.00 86.00
C 1381.47 101.11 1416.70 126.62 1451.92 160.08 C 1487.14 193.54 1502.26 254.55 1485.22 300.22 C 1468.19 345.90 1441.88 377.74 1405.75 409.75 C 1369.63 441.76 1331.83 460.87 1288.75 481.75 C 1245.68 502.64 1200.71 519.91 1154.93 536.93 C 1109.15 553.94 1056.58 568.72 1009.00 581.00
M 1071.00 234.00 
C 1073.01 235.89 1074.24 237.89 1076.00 240.00
C 1111.73 282.64 1091.40 352.68 1062.00 393.00
C 1061.28 393.99 1060.93 394.29 1060.00 395.00
C 1055.95 398.94 1052.06 403.90 1048.00 408.00
C 1047.39 408.80 1047.18 409.82 1046.00 410.00
C 1010.34 438.54 967.69 448.56 922.77 434.23 C 877.85 419.89 870.16 364.89 879.93 324.93 C 889.70 284.96 908.86 249.06 945.70 228.70 C 982.53 208.33 1038.66 203.51 1071.00 234.00
M 1256.00 363.00 
C 1254.99 363.17 1254.24 364.48 1253.00 364.00
C 1253.28 362.72 1252.24 360.50 1254.00 360.00
C 1255.23 346.05 1265.03 339.01 1274.75 329.75 C 1284.48 320.49 1290.73 312.42 1299.30 303.30 C 1307.87 294.19 1314.56 284.82 1322.30 275.30 C 1330.04 265.79 1336.71 255.57 1343.92 245.92 C 1351.12 236.27 1355.23 222.02 1365.00 216.00
C 1349.25 276.35 1304.53 326.03 1256.00 363.00
M 346.00 437.00 
C 341.33 437.00 336.67 437.00 332.00 437.00
C 320.60 438.10 307.11 438.61 295.00 438.00 C 282.89 437.39 269.19 439.72 258.00 437.00
C 255.34 436.35 255.03 437.78 254.00 435.00
C 251.99 429.54 258.03 421.08 257.98 414.97 C 257.93 408.87 262.45 399.71 262.98 392.98 C 263.50 386.24 265.66 377.75 267.00 371.00 C 268.34 364.25 269.68 357.95 271.92 350.92 C 274.17 343.90 273.54 335.00 275.98 327.98 C 278.41 320.95 278.79 314.05 280.93 306.93 C 283.06 299.80 283.05 291.43 285.32 284.32 C 287.60 277.21 287.52 269.98 289.93 262.93 C 292.33 255.87 291.65 247.26 294.33 240.33 C 297.01 233.40 295.40 226.05 298.93 219.93 C 302.45 213.80 314.41 217.76 322.00 217.00 C 329.59 216.24 340.83 217.25 349.00 217.00 C 357.17 216.75 367.80 216.89 376.00 217.00 C 384.20 217.11 394.22 216.42 402.00 217.00 C 409.78 217.58 416.84 219.86 423.69 222.31 C 430.55 224.76 434.19 227.95 440.08 231.92 C 445.98 235.89 448.69 241.27 452.26 246.74 C 455.82 252.22 458.01 259.48 459.98 266.02 C 461.94 272.57 462.50 279.21 463.00 287.00 C 463.50 294.79 460.75 304.15 461.00 312.00 C 461.25 319.86 458.78 328.07 457.22 335.22 C 455.67 342.37 454.03 348.76 451.23 355.23 C 448.43 361.70 446.52 368.33 443.22 374.22 C 439.93 380.11 436.82 384.67 433.23 390.23 C 429.64 395.79 425.40 400.18 421.25 405.25 C 417.09 410.31 412.07 413.64 406.75 417.75 C 401.43 421.87 396.68 424.54 390.31 427.31 C 383.93 430.07 377.29 432.28 369.99 433.99 C 362.70 435.71 353.97 437.00 346.00 437.00
M 700.00 222.00 
C 699.32 240.16 693.06 258.73 690.00 277.00
C 699.33 277.00 708.67 277.00 718.00 277.00
C 716.70 288.27 712.66 295.16 712.02 307.02 C 711.39 318.88 685.71 305.69 682.08 314.08 C 678.45 322.48 678.92 333.69 676.02 343.02 C 673.13 352.35 672.10 364.48 670.07 374.07 C 668.04 383.67 663.17 395.38 669.00 404.00
C 676.28 404.15 684.56 402.71 692.00 401.00
C 691.25 412.07 689.84 423.45 689.00 434.00
C 666.21 447.26 616.52 444.08 620.78 408.78 C 625.04 373.47 633.86 346.37 639.00 312.00
C 633.00 312.00 627.00 312.00 621.00 312.00
C 623.01 299.98 625.10 288.98 628.00 277.00
C 634.00 277.00 640.00 277.00 646.00 277.00
C 650.81 264.86 648.92 246.51 663.08 241.08 C 677.24 235.64 685.85 226.84 700.00 222.00
M 504.00 440.00 
C 500.21 440.68 495.47 441.35 491.00 441.00
C 479.96 440.12 467.72 435.69 459.75 427.25 C 451.78 418.80 451.60 399.92 454.31 389.31 C 457.01 378.70 461.48 371.10 470.25 363.25 C 479.02 355.40 488.99 350.53 500.22 347.22 C 511.45 343.92 523.88 342.88 535.22 339.22 C 546.57 335.57 564.83 338.69 565.00 323.00 C 565.17 307.31 549.43 306.43 537.33 307.33 C 525.23 308.23 515.67 315.72 511.00 327.00
C 498.03 325.37 485.41 321.93 473.00 320.00
C 476.65 312.53 480.06 305.31 485.77 298.77 C 491.48 292.23 497.64 287.59 505.23 283.23 C 512.82 278.86 521.70 276.23 531.00 275.00 C 540.31 273.77 553.50 272.73 563.00 274.00 C 572.50 275.27 582.83 275.23 590.74 280.26 C 598.66 285.28 604.12 289.87 607.31 298.69 C 610.49 307.52 606.92 317.67 606.02 327.02 C 605.13 336.38 602.51 346.35 600.07 355.07 C 597.64 363.80 597.97 374.27 595.02 383.02 C 592.08 391.78 592.08 400.95 590.01 410.01 C 587.93 419.07 597.46 436.31 586.00 437.00 C 574.53 437.69 562.52 436.49 551.00 437.00
C 548.91 431.89 549.00 426.89 549.00 421.00
C 535.50 430.34 520.89 438.63 504.00 440.00
M 758.00 440.00 
C 752.41 440.94 747.62 440.89 742.00 440.00
C 732.48 438.49 722.33 436.37 715.90 429.10 C 709.47 421.83 704.65 411.13 706.00 401.00 C 707.35 390.87 709.19 381.02 715.25 373.25 C 721.32 365.49 725.85 360.23 733.30 355.30 C 740.74 350.37 751.75 348.78 760.22 345.22 C 768.70 341.66 780.62 343.65 788.67 339.67 C 796.72 335.70 807.58 338.49 815.07 333.07 C 822.57 327.65 819.06 310.55 809.31 308.69 C 799.56 306.84 791.03 307.78 780.93 309.93 C 770.82 312.07 769.37 326.19 760.33 326.67 C 751.29 327.15 738.09 318.73 728.00 321.00
C 727.99 312.97 734.31 307.01 738.75 300.75 C 743.19 294.50 747.85 289.44 754.75 285.75 C 761.64 282.05 767.71 277.40 776.07 276.07 C 784.44 274.75 795.32 273.66 804.01 273.01 C 812.69 272.36 823.53 275.40 832.02 275.98 C 840.52 276.55 846.35 280.94 852.75 286.25 C 859.15 291.56 862.93 300.59 862.00 309.00 C 861.07 317.41 861.19 326.49 859.00 335.00 C 856.81 343.52 856.23 350.78 854.00 359.00 C 851.78 367.23 851.53 374.94 849.01 383.01 C 846.49 391.07 846.69 400.86 844.00 409.00 C 841.31 417.14 848.30 425.90 846.00 434.00 C 843.70 442.11 826.42 433.84 818.00 437.00 C 809.58 440.16 798.12 432.34 802.00 421.00
C 788.88 431.05 774.83 438.48 758.00 440.00
M 1228.00 437.00 
C 1225.87 437.73 1223.33 437.84 1221.00 438.00
C 1214.54 438.44 1207.46 438.44 1201.00 438.00
C 1190.94 437.32 1186.52 435.42 1190.00 426.00 C 1193.47 416.58 1192.08 412.14 1194.93 403.93 C 1197.78 395.71 1196.86 389.07 1199.33 381.33 C 1201.80 373.58 1201.80 365.54 1203.99 357.99 C 1206.18 350.45 1206.89 343.09 1208.78 335.78 C 1210.67 328.46 1210.46 320.11 1205.75 314.25 C 1201.03 308.40 1193.50 306.36 1186.33 307.33 C 1179.16 308.30 1172.46 312.05 1166.00 315.00
C 1164.44 316.09 1162.41 319.33 1161.00 321.00
C 1154.66 328.49 1152.49 336.20 1149.22 345.22 C 1145.96 354.25 1146.32 365.90 1143.00 375.00 C 1139.68 384.11 1140.59 396.25 1137.01 405.01 C 1133.43 413.77 1135.64 427.57 1130.00 435.00
C 1126.18 440.03 1116.15 435.89 1110.00 437.00 C 1103.85 438.11 1094.45 436.17 1088.00 437.00
C 1088.00 436.00 1088.00 435.00 1088.00 434.00
C 1085.74 424.51 1093.61 412.97 1094.00 403.00 C 1094.39 393.02 1098.61 381.17 1099.99 370.99 C 1101.37 360.81 1105.17 351.25 1106.93 340.93 C 1108.69 330.60 1110.94 319.34 1112.98 308.98 C 1115.01 298.61 1117.82 288.36 1120.00 278.00
C 1133.33 278.00 1146.67 278.00 1160.00 278.00
C 1159.79 283.90 1153.73 293.15 1158.00 297.00
C 1159.55 293.60 1163.33 292.06 1166.00 290.00
C 1173.51 284.19 1179.82 280.20 1189.08 277.08 C 1198.33 273.95 1212.62 272.90 1222.67 274.33 C 1232.72 275.76 1239.99 279.45 1247.25 286.75 C 1254.50 294.05 1255.66 305.66 1255.00 316.00 C 1254.34 326.34 1252.03 338.06 1250.00 348.00 C 1247.98 357.94 1245.55 368.76 1243.22 378.22 C 1240.90 387.68 1239.88 400.49 1237.00 409.00 C 1234.13 417.51 1235.81 434.33 1228.00 437.00
M 201.00 377.00 
C 198.36 379.97 195.42 383.05 193.00 386.00
C 186.92 397.59 177.09 408.21 169.68 418.68 C 162.27 429.15 155.95 442.96 148.00 453.00
C 147.30 453.88 147.49 456.93 145.00 456.00
C 145.47 454.12 143.94 451.07 146.00 450.00
C 151.63 414.77 177.09 383.82 198.75 357.75 C 220.41 331.68 249.38 307.32 277.00 291.00
C 274.38 311.07 252.45 321.24 240.25 335.25 C 228.04 349.25 212.51 361.60 201.00 377.00
M 1188.00 404.00 
C 1188.63 412.91 1177.28 413.42 1171.31 417.31 C 1165.33 421.20 1158.14 425.82 1151.00 427.00
C 1161.10 417.68 1175.13 409.75 1188.00 404.00 Z"/>
</g>
<g fill="None" fill-opacity="0.0" stroke="#E8262A" stroke-opacity="0.20" stroke-width="0.3"><path d="
M 940.00 20.00 
C 940.37 19.71 942.51 20.00 943.00 20.00
C 944.82 20.00 946.13 21.27 948.00 20.00 C 949.87 18.73 952.04 22.00 952.00 22.00
C 954.20 22.21 956.75 21.80 958.00 20.00
C 953.06 17.46 945.03 19.51 940.00 20.00 Z"/>
</g>
<g fill="None" fill-opacity="0.0" stroke="#E4292C" stroke-opacity="0.49" stroke-width="0.3"><path d="
M 929.00 21.00 
C 934.60 21.44 937.45 22.01 940.00 20.00
C 936.47 20.34 931.94 20.72 929.00 21.00 Z"/>
</g>
<g fill="None" fill-opacity="0.0" stroke="#E3292C" stroke-opacity="0.96" stroke-width="0.3"><path d="
M 929.00 21.00 
C 890.00 17.90 848.36 31.97 811.01 36.01 C 773.66 40.05 741.46 56.04 705.00 62.00
C 703.91 64.39 702.86 62.84 701.00 64.00
C 700.21 60.64 703.88 58.95 704.00 62.00
C 730.57 49.37 759.60 40.23 787.00 29.00
C 776.45 23.19 761.75 30.47 749.22 30.22 C 736.69 29.97 724.44 34.23 712.00 35.00 C 699.56 35.77 687.05 37.65 675.00 40.00 C 662.95 42.35 649.06 42.38 637.22 45.22 C 625.38 48.06 613.85 49.65 602.07 52.07 C 590.29 54.50 578.66 56.40 567.07 59.07 C 555.49 61.74 543.34 63.95 532.02 67.02 C 520.71 70.10 509.37 72.12 498.22 75.22 C 487.08 78.32 476.29 81.28 465.22 84.22 C 454.15 87.16 443.02 91.15 432.07 94.07 C 421.12 97.00 411.29 101.29 400.69 104.69 C 390.10 108.10 379.38 111.24 369.08 115.08 C 358.77 118.92 348.26 123.31 338.07 127.07 C 327.89 130.84 318.03 135.23 308.08 139.08 C 298.12 142.92 289.02 148.23 279.08 152.08 C 269.13 155.92 260.12 161.69 251.00 166.00
C 251.15 165.70 251.32 168.36 251.00 169.00
C 291.63 154.78 329.78 137.14 370.99 123.99 C 412.20 110.84 456.21 94.29 499.00 90.00
C 455.12 100.73 406.64 114.25 364.68 129.68 C 322.72 145.11 279.90 159.97 240.70 179.70 C 201.50 199.42 162.18 212.93 128.00 241.00
C 124.92 245.10 121.69 248.25 116.00 251.00
C 112.46 252.71 109.94 255.35 107.00 258.00
C 106.28 259.02 104.13 264.19 101.00 265.00
C 100.45 263.18 102.75 262.53 103.00 261.00
C 100.75 262.85 98.90 265.15 97.00 267.00
C 93.52 272.18 85.27 280.84 80.00 284.00
C 76.10 286.34 72.24 291.06 69.00 295.00
C 69.36 294.18 70.75 295.84 69.24 297.25 C 67.74 298.66 66.19 298.87 66.00 299.00
C 37.49 330.59 18.24 368.71 17.00 412.00 C 15.76 455.29 37.72 493.36 69.00 522.00
C 68.46 521.05 67.83 520.19 68.00 519.00
C 71.98 522.19 75.89 526.03 79.00 530.00
C 80.88 531.54 82.37 533.37 84.00 535.00
C 111.10 555.39 140.52 573.53 172.00 584.00
C 154.12 553.76 142.48 520.94 137.00 486.00 C 131.52 451.06 150.35 414.06 169.68 387.68 C 189.01 361.30 207.52 340.35 233.00 319.00
C 234.31 316.97 235.71 316.00 238.00 315.00
C 240.54 313.01 243.56 311.11 246.00 309.00
C 246.94 307.79 248.28 305.73 250.00 305.00
C 258.57 301.37 263.97 294.60 272.70 289.70 C 281.44 284.81 281.08 272.77 283.02 263.02 C 284.97 253.28 288.15 243.36 290.01 233.01 C 291.86 222.65 291.02 207.86 305.00 210.00 C 318.98 212.14 328.81 209.20 342.00 210.00 C 355.19 210.80 366.02 210.00 379.00 210.00
C 383.08 210.00 387.66 210.68 391.00 211.00
C 406.11 211.00 421.04 209.72 433.75 201.75 C 446.47 193.78 458.12 192.18 470.92 185.92 C 483.73 179.67 496.68 175.71 509.75 170.75 C 522.83 165.79 534.94 160.68 548.32 156.32 C 561.70 151.97 574.46 147.30 587.98 142.98 C 601.49 138.65 615.41 134.45 628.98 129.98 C 642.54 125.50 656.54 122.48 670.32 118.32 C 684.10 114.16 697.66 110.42 711.78 106.78 C 725.90 103.14 740.58 99.35 754.98 95.98 C 769.37 92.61 783.38 89.14 797.99 85.99 C 812.60 82.84 827.58 79.51 842.32 76.32 C 857.07 73.13 871.41 70.55 886.33 67.33 C 901.25 64.11 916.16 62.73 931.33 59.33 C 946.50 55.93 963.25 55.46 978.93 52.93 C 994.60 50.39 1009.74 48.55 1026.00 47.00 C 1042.26 45.45 1058.93 43.82 1076.00 44.00 C 1093.07 44.18 1112.92 44.03 1130.00 44.00 C 1147.08 43.97 1161.86 47.15 1178.33 48.67 C 1194.80 50.19 1210.55 51.46 1227.00 53.00
C 1226.58 52.23 1227.43 50.76 1227.00 50.00
C 1198.99 42.19 1164.20 34.71 1134.00 36.00
C 1131.54 36.10 1130.35 35.45 1128.00 35.00
C 1117.44 34.70 1107.57 34.00 1097.00 34.00
C 1093.69 34.00 1090.31 34.19 1087.00 34.00
C 1064.73 36.16 1038.20 36.15 1016.00 34.00
C 963.34 36.86 907.45 37.37 858.00 53.00
C 855.73 53.72 851.26 56.65 849.00 54.00
C 852.76 54.40 854.91 50.89 859.00 51.00
C 888.81 41.19 919.41 33.44 949.00 23.00
C 948.96 22.99 944.26 20.23 943.00 20.00
C 942.51 20.00 940.37 19.71 940.00 20.00
C 937.45 22.01 934.60 21.44 929.00 21.00
M 1083.00 42.00 
C 1079.58 44.21 1074.18 42.42 1070.00 43.00
C 1073.42 40.79 1078.82 42.58 1083.00 42.00
M 1129.00 42.00 
C 1125.25 44.22 1119.51 42.41 1115.00 43.00
C 1118.75 40.78 1124.49 42.59 1129.00 42.00
M 848.00 55.00 
C 843.96 60.62 842.09 52.72 848.00 55.00
M 509.00 88.00 
C 506.87 89.79 502.49 89.31 500.00 88.00
C 501.96 86.48 507.11 86.28 509.00 88.00 Z"/>
</g>
<g fill="None" fill-opacity="0.0" stroke="#E42729" stroke-opacity="0.71" stroke-width="0.3"><path d="
M 949.00 23.00 
C 949.88 22.69 951.11 22.23 952.00 22.00
C 952.04 22.00 949.87 18.73 948.00 20.00 C 946.13 21.27 944.82 20.00 943.00 20.00
C 944.26 20.23 948.96 22.99 949.00 23.00 Z"/>
</g>
<g fill="None" fill-opacity="0.0" stroke="#E3292C" stroke-opacity="0.56" stroke-width="0.3"><path d="
M 1016.00 34.00 
C 1038.20 36.15 1064.73 36.16 1087.00 34.00
C 1085.42 33.91 1083.97 33.17 1083.00 33.00
C 1060.66 33.00 1037.95 32.81 1016.00 34.00 Z"/>
</g>
<g fill="None" fill-opacity="0.0" stroke="#E3292B" stroke-opacity="0.08" stroke-width="0.3"><path d="
M 1087.00 34.00 
C 1090.31 34.19 1093.69 34.00 1097.00 34.00
C 1093.01 33.61 1087.74 33.00 1083.00 33.00
C 1083.97 33.17 1085.42 33.91 1087.00 34.00 Z"/>
</g>
<g fill="None" fill-opacity="0.0" stroke="#E6222A" stroke-opacity="0.21" stroke-width="0.3"><path d="
M 1134.00 36.00 
C 1132.57 35.84 1130.12 35.06 1128.00 35.00
C 1130.35 35.45 1131.54 36.10 1134.00 36.00 Z"/>
</g>
<g fill="None" fill-opacity="0.0" stroke="#E3282C" stroke-opacity="0.76" stroke-width="0.3"><path d="
M 1083.00 42.00 
C 1078.82 42.58 1073.42 40.79 1070.00 43.00
C 1074.18 42.42 1079.58 44.21 1083.00 42.00 Z"/>
</g>
<g fill="None" fill-opacity="0.0" stroke="#E2282C" stroke-opacity="0.77" stroke-width="0.3"><path d="
M 1129.00 42.00 
C 1124.49 42.59 1118.75 40.78 1115.00 43.00
C 1119.51 42.41 1125.25 44.22 1129.00 42.00 Z"/>
</g>
<g fill="None" fill-opacity="0.0" stroke="#E32B2D" stroke-opacity="0.41" stroke-width="0.3"><path d="
M 1227.00 53.00 
C 1229.49 54.31 1233.87 54.79 1236.00 53.00
C 1233.12 51.47 1230.05 50.85 1227.00 50.00
C 1227.43 50.76 1226.58 52.23 1227.00 53.00 Z"/>
</g>
<g fill="None" fill-opacity="0.0" stroke="#EC2829" stroke-opacity="0.10" stroke-width="0.3"><path d="
M 858.00 53.00 
C 854.69 52.79 857.87 51.63 859.00 51.00
C 854.91 50.89 852.76 54.40 849.00 54.00
C 851.26 56.65 855.73 53.72 858.00 53.00 Z"/>
</g>
<g fill="None" fill-opacity="0.0" stroke="#E2282C" stroke-opacity="0.52" stroke-width="0.3"><path d="
M 848.00 55.00 
C 842.09 52.72 843.96 60.62 848.00 55.00 Z"/>
</g>
<g fill="None" fill-opacity="0.0" stroke="#E52729" stroke-opacity="0.24" stroke-width="0.3"><path d="
M 705.00 62.00 
C 705.00 62.00 704.01 62.07 704.00 62.00
C 703.88 58.95 700.21 60.64 701.00 64.00
C 702.86 62.84 703.91 64.39 705.00 62.00 Z"/>
</g>
<g fill="None" fill-opacity="0.0" stroke="#E3292C" stroke-opacity="0.96" stroke-width="0.3"><path d="
M 1328.00 299.00 
C 1327.75 299.66 1324.11 306.90 1321.00 310.00
C 1319.14 309.54 1320.84 307.96 1321.00 307.00
C 1312.04 317.08 1304.23 326.15 1293.90 334.90 C 1283.57 343.65 1276.54 352.56 1264.25 360.25 C 1251.96 367.93 1246.51 382.22 1245.98 396.98 C 1245.44 411.73 1236.06 426.94 1237.00 442.00
C 1237.03 442.50 1237.23 443.65 1237.00 444.00
C 1234.45 447.93 1221.51 443.66 1217.00 445.00 C 1212.49 446.35 1200.21 443.88 1196.00 445.00 C 1191.79 446.12 1177.26 444.66 1180.00 442.00
C 1180.00 442.03 1181.00 442.00 1181.00 442.00
C 1182.28 432.88 1184.21 423.96 1186.00 415.00
C 1153.34 430.22 1124.44 447.50 1091.08 462.08 C 1057.71 476.65 1025.75 490.35 991.08 503.08 C 956.40 515.80 921.34 527.05 885.23 538.23 C 849.12 549.41 812.78 559.58 775.07 569.07 C 737.37 578.56 699.28 587.18 660.07 595.07 C 620.87 602.97 581.19 610.61 540.22 616.22 C 499.25 621.84 453.35 628.14 410.00 627.00 C 366.65 625.86 322.00 623.24 280.00 616.00
C 280.30 617.37 279.19 618.61 278.00 619.00
C 397.05 648.03 533.08 639.47 652.00 619.00
C 619.30 629.95 586.27 639.76 553.00 649.00
C 562.17 653.99 576.05 649.35 587.33 649.33 C 598.61 649.31 610.80 646.74 622.00 646.00 C 633.20 645.26 645.02 643.15 655.98 641.98 C 666.93 640.80 676.31 637.54 687.00 636.00 C 697.69 634.46 708.53 632.24 718.93 629.93 C 729.32 627.61 739.72 625.28 749.93 622.93 C 760.14 620.57 769.87 617.07 779.99 614.99 C 790.12 612.91 799.16 609.58 809.00 607.00
C 795.70 614.84 778.69 618.20 764.70 624.69 C 750.70 631.19 733.72 633.86 723.00 644.00
C 735.42 641.97 749.44 642.90 761.78 640.78 C 774.12 638.66 786.60 637.44 798.98 635.98 C 811.36 634.52 823.47 631.98 835.78 630.78 C 848.08 629.58 859.31 626.17 871.33 624.33 C 883.35 622.49 895.65 620.87 907.33 618.33 C 919.00 615.78 930.41 613.18 942.00 611.00 C 953.58 608.81 964.66 605.62 975.99 602.99 C 987.32 600.37 998.87 597.97 1009.98 594.98 C 1021.08 591.98 1032.01 588.97 1042.93 585.93 C 1053.84 582.88 1064.68 579.83 1075.32 576.32 C 1085.97 572.81 1096.94 570.09 1107.32 566.32 C 1117.70 562.55 1128.18 559.15 1138.32 555.32 C 1148.47 551.49 1159.23 548.16 1168.98 543.98 C 1178.72 539.79 1189.76 536.46 1198.93 531.93 C 1208.10 527.39 1219.95 524.55 1227.93 518.93 C 1235.90 513.30 1250.95 513.07 1256.00 505.00
C 1255.01 504.76 1253.58 503.12 1253.00 503.00
C 1228.35 515.19 1201.68 522.03 1176.23 532.23 C 1150.77 542.43 1123.79 551.49 1097.08 559.08 C 1070.37 566.67 1042.26 579.05 1014.00 581.00
C 1013.91 581.03 1006.55 584.91 1002.00 583.00
C 1002.91 579.20 1007.70 582.36 1009.00 581.00
C 1056.58 568.72 1109.15 553.94 1154.93 536.93 C 1200.71 519.91 1245.68 502.64 1288.75 481.75 C 1331.83 460.87 1369.63 441.76 1405.75 409.75 C 1441.88 377.74 1468.19 345.90 1485.22 300.22 C 1502.26 254.55 1487.14 193.54 1451.92 160.08 C 1416.70 126.62 1381.47 101.11 1337.00 86.00
C 1355.31 119.39 1372.95 157.86 1373.00 197.00 C 1373.05 236.14 1351.48 269.55 1328.00 299.00
M 664.00 615.00 
C 660.64 615.02 656.25 620.42 654.00 616.00
C 657.22 618.01 661.13 612.53 664.00 615.00 Z"/>
</g>
<g fill="None" fill-opacity="0.0" stroke="#8D1517" stroke-opacity="0.32" stroke-width="0.3"><path d="
M 509.00 88.00 
C 507.11 86.28 501.96 86.48 500.00 88.00
C 502.49 89.31 506.87 89.79 509.00 88.00 Z"/>
</g>
<g fill="None" fill-opacity="0.0" stroke="#E72729" stroke-opacity="0.35" stroke-width="0.3"><path d="
M 251.00 169.00 
C 251.32 168.36 251.15 165.70 251.00 166.00
C 244.79 167.68 238.82 171.20 234.00 175.00
C 239.84 176.78 246.09 171.24 251.00 169.00 Z"/>
</g>
<g fill="None" fill-opacity="0.0" stroke="#F71516" stroke-opacity="0.03" stroke-width="0.3"><path d="
M 391.00 211.00 
C 387.66 210.68 383.08 210.00 379.00 210.00
C 382.34 210.32 386.92 211.00 391.00 211.00 Z"/>
</g>
<g fill="None" fill-opacity="0.0" stroke="#E3282B" stroke-opacity="0.95" stroke-width="0.3"><path d="
M 1046.00 410.00 
C 1045.51 410.07 1045.00 410.00 1045.00 410.00
C 1043.14 408.23 1050.94 403.88 1052.25 401.25 C 1053.56 398.61 1060.12 394.77 1062.00 393.00
C 1091.40 352.68 1111.73 282.64 1076.00 240.00
C 1074.50 239.03 1069.25 236.39 1068.00 233.00
C 1069.28 232.47 1069.86 233.97 1071.00 234.00
C 1038.66 203.51 982.53 208.33 945.70 228.70 C 908.86 249.06 889.70 284.96 879.93 324.93 C 870.16 364.89 877.85 419.89 922.77 434.23 C 967.69 448.56 1010.34 438.54 1046.00 410.00
M 1045.00 284.00 
C 1045.21 284.41 1047.63 283.67 1048.00 284.00
C 1048.67 286.61 1046.66 288.45 1047.00 291.00
C 1044.69 320.13 1042.88 351.75 1023.25 374.25 C 1003.62 396.75 976.94 409.61 947.93 397.07 C 918.91 384.54 920.86 344.91 927.99 318.99 C 935.13 293.07 948.83 269.11 974.69 257.69 C 1000.56 246.28 1038.35 252.43 1045.00 284.00 Z"/>
</g>
<g fill="None" fill-opacity="0.0" stroke="#E3282B" stroke-opacity="0.81" stroke-width="0.3"><path d="
M 1254.00 360.00 
C 1254.22 360.78 1256.04 361.81 1256.00 363.00
C 1304.53 326.03 1349.25 276.35 1365.00 216.00
C 1355.23 222.02 1351.12 236.27 1343.92 245.92 C 1336.71 255.57 1330.04 265.79 1322.30 275.30 C 1314.56 284.82 1307.87 294.19 1299.30 303.30 C 1290.73 312.42 1284.48 320.49 1274.75 329.75 C 1265.03 339.01 1255.23 346.05 1254.00 360.00 Z"/>
</g>
<g fill="None" fill-opacity="0.0" stroke="#221F1F" stroke-opacity="0.97" stroke-width="0.3"><path d="
M 254.00 435.00 
C 256.50 438.84 266.20 435.04 271.00 436.00 C 275.80 436.96 284.39 435.64 290.00 436.00 C 295.61 436.36 303.05 435.99 309.00 436.00 C 314.95 436.01 321.97 436.34 328.00 436.00 C 334.03 435.66 340.74 436.49 346.00 437.00
C 353.97 437.00 362.70 435.71 369.99 433.99 C 377.29 432.28 383.93 430.07 390.31 427.31 C 396.68 424.54 401.43 421.87 406.75 417.75 C 412.07 413.64 417.09 410.31 421.25 405.25 C 425.40 400.18 429.64 395.79 433.23 390.23 C 436.82 384.67 439.93 380.11 443.22 374.22 C 446.52 368.33 448.43 361.70 451.23 355.23 C 454.03 348.76 455.67 342.37 457.22 335.22 C 458.78 328.07 461.25 319.86 461.00 312.00 C 460.75 304.15 463.50 294.79 463.00 287.00 C 462.50 279.21 461.94 272.57 459.98 266.02 C 458.01 259.48 455.82 252.22 452.26 246.74 C 448.69 241.27 445.98 235.89 440.08 231.92 C 434.19 227.95 430.55 224.76 423.69 222.31 C 416.84 219.86 409.78 217.58 402.00 217.00 C 394.22 216.42 384.20 217.11 376.00 217.00 C 367.80 216.89 357.17 216.75 349.00 217.00 C 340.83 217.25 329.59 216.24 322.00 217.00 C 314.41 217.76 302.45 213.80 298.93 219.93 C 295.40 226.05 297.01 233.40 294.33 240.33 C 291.65 247.26 292.33 255.87 289.93 262.93 C 287.52 269.98 287.60 277.21 285.32 284.32 C 283.05 291.43 283.06 299.80 280.93 306.93 C 278.79 314.05 278.41 320.95 275.98 327.98 C 273.54 335.00 274.17 343.90 271.92 350.92 C 269.68 357.95 268.34 364.25 267.00 371.00 C 265.66 377.75 263.50 386.24 262.98 392.98 C 262.45 399.71 257.93 408.87 257.98 414.97 C 258.03 421.08 251.99 429.54 254.00 435.00
M 371.00 254.00 
C 364.91 256.29 356.84 254.37 350.00 255.00
C 356.09 252.71 364.16 254.63 371.00 254.00
M 342.00 398.00 
C 342.66 398.06 345.47 399.27 346.00 400.00
C 343.48 399.44 339.70 401.19 338.00 399.00
C 327.97 400.76 317.10 397.68 307.00 399.00
C 316.08 351.08 327.18 303.45 336.00 256.00
C 360.88 257.03 403.87 248.39 413.78 277.22 C 423.68 306.06 410.24 332.73 403.08 359.08 C 395.92 385.42 369.75 402.40 342.00 398.00 Z"/>
</g>
<g fill="None" fill-opacity="0.0" stroke="#221F1F" stroke-opacity="0.96" stroke-width="0.3"><path d="
M 700.00 222.00 
C 685.85 226.84 677.24 235.64 663.08 241.08 C 648.92 246.51 650.81 264.86 646.00 277.00
C 640.00 277.00 634.00 277.00 628.00 277.00
C 625.10 288.98 623.01 299.98 621.00 312.00
C 627.00 312.00 633.00 312.00 639.00 312.00
C 633.86 346.37 625.04 373.47 620.78 408.78 C 616.52 444.08 666.21 447.26 689.00 434.00
C 689.84 423.45 691.25 412.07 692.00 401.00
C 684.56 402.71 676.28 404.15 669.00 404.00
C 663.17 395.38 668.04 383.67 670.07 374.07 C 672.10 364.48 673.13 352.35 676.02 343.02 C 678.92 333.69 678.45 322.48 682.08 314.08 C 685.71 305.69 711.39 318.88 712.02 307.02 C 712.66 295.16 716.70 288.27 718.00 277.00
C 708.67 277.00 699.33 277.00 690.00 277.00
C 693.06 258.73 699.32 240.16 700.00 222.00 Z"/>
</g>
<g fill="None" fill-opacity="0.0" stroke="#DF282A" stroke-opacity="0.40" stroke-width="0.3"><path d="
M 1076.00 240.00 
C 1074.24 237.89 1073.01 235.89 1071.00 234.00
C 1069.86 233.97 1069.28 232.47 1068.00 233.00
C 1069.25 236.39 1074.50 239.03 1076.00 240.00 Z"/>
</g>
<g fill="None" fill-opacity="0.0" stroke="#E42728" stroke-opacity="0.42" stroke-width="0.3"><path d="
M 116.00 251.00 
C 121.69 248.25 124.92 245.10 128.00 241.00
C 123.70 244.53 119.84 247.72 116.00 251.00 Z"/>
</g>
<g fill="None" fill-opacity="0.0" stroke="#000000" stroke-opacity="0.00" stroke-width="0.3"><path d="
M 1047.00 291.00 
C 1046.74 289.19 1045.47 286.21 1045.00 284.00
C 1038.35 252.43 1000.56 246.28 974.69 257.69 C 948.83 269.11 935.13 293.07 927.99 318.99 C 920.86 344.91 918.91 384.54 947.93 397.07 C 976.94 409.61 1003.62 396.75 1023.25 374.25 C 1042.88 351.75 1044.69 320.13 1047.00 291.00 Z"/>
</g>
<g fill="None" fill-opacity="0.0" stroke="#211F1F" stroke-opacity="0.79" stroke-width="0.3"><path d="
M 371.00 254.00 
C 364.16 254.63 356.09 252.71 350.00 255.00
C 356.84 254.37 364.91 256.29 371.00 254.00 Z"/>
</g>
<g fill="None" fill-opacity="0.0" stroke="#000000" stroke-opacity="0.00" stroke-width="0.3"><path d="
M 338.00 399.00 
C 338.96 398.83 340.47 398.09 342.00 398.00
C 369.75 402.40 395.92 385.42 403.08 359.08 C 410.24 332.73 423.68 306.06 413.78 277.22 C 403.87 248.39 360.88 257.03 336.00 256.00
C 327.18 303.45 316.08 351.08 307.00 399.00
C 317.10 397.68 327.97 400.76 338.00 399.00 Z"/>
</g>
<g fill="None" fill-opacity="0.0" stroke="#E2292C" stroke-opacity="0.43" stroke-width="0.3"><path d="
M 103.00 261.00 
C 102.75 262.53 100.45 263.18 101.00 265.00
C 104.13 264.19 106.28 259.02 107.00 258.00
C 105.86 259.03 104.24 259.98 103.00 261.00 Z"/>
</g>
<g fill="None" fill-opacity="0.0" stroke="#E42628" stroke-opacity="0.36" stroke-width="0.3"><path d="
M 80.00 284.00 
C 85.27 280.84 93.52 272.18 97.00 267.00
C 90.93 272.89 85.48 277.83 80.00 284.00 Z"/>
</g>
<g fill="None" fill-opacity="0.0" stroke="#221F1F" stroke-opacity="0.96" stroke-width="0.3"><path d="
M 491.00 441.00 
C 491.43 440.94 494.46 438.37 497.00 439.00 C 499.54 439.63 501.65 439.95 504.00 440.00
C 520.89 438.63 535.50 430.34 549.00 421.00
C 549.00 426.89 548.91 431.89 551.00 437.00
C 562.52 436.49 574.53 437.69 586.00 437.00 C 597.46 436.31 587.93 419.07 590.01 410.01 C 592.08 400.95 592.08 391.78 595.02 383.02 C 597.97 374.27 597.64 363.80 600.07 355.07 C 602.51 346.35 605.13 336.38 606.02 327.02 C 606.92 317.67 610.49 307.52 607.31 298.69 C 604.12 289.87 598.66 285.28 590.74 280.26 C 582.83 275.23 572.50 275.27 563.00 274.00 C 553.50 272.73 540.31 273.77 531.00 275.00 C 521.70 276.23 512.82 278.86 505.23 283.23 C 497.64 287.59 491.48 292.23 485.77 298.77 C 480.06 305.31 476.65 312.53 473.00 320.00
C 485.41 321.93 498.03 325.37 511.00 327.00
C 515.67 315.72 525.23 308.23 537.33 307.33 C 549.43 306.43 565.17 307.31 565.00 323.00 C 564.83 338.69 546.57 335.57 535.22 339.22 C 523.88 342.88 511.45 343.92 500.22 347.22 C 488.99 350.53 479.02 355.40 470.25 363.25 C 461.48 371.10 457.01 378.70 454.31 389.31 C 451.60 399.92 451.78 418.80 459.75 427.25 C 467.72 435.69 479.96 440.12 491.00 441.00
M 557.00 362.00 
C 555.30 374.61 551.27 392.33 540.92 399.92 C 530.56 407.51 511.69 415.44 500.75 404.25 C 489.81 393.05 501.60 374.25 515.02 372.02 C 528.45 369.80 543.29 362.35 557.00 362.00 Z"/>
</g>
<g fill="None" fill-opacity="0.0" stroke="#221F1F" stroke-opacity="0.96" stroke-width="0.3"><path d="
M 742.00 440.00 
C 746.56 439.87 753.51 439.87 758.00 440.00
C 774.83 438.48 788.88 431.05 802.00 421.00
C 798.12 432.34 809.58 440.16 818.00 437.00 C 826.42 433.84 843.70 442.11 846.00 434.00 C 848.30 425.90 841.31 417.14 844.00 409.00 C 846.69 400.86 846.49 391.07 849.01 383.01 C 851.53 374.94 851.78 367.23 854.00 359.00 C 856.23 350.78 856.81 343.52 859.00 335.00 C 861.19 326.49 861.07 317.41 862.00 309.00 C 862.93 300.59 859.15 291.56 852.75 286.25 C 846.35 280.94 840.52 276.55 832.02 275.98 C 823.53 275.40 812.69 272.36 804.01 273.01 C 795.32 273.66 784.44 274.75 776.07 276.07 C 767.71 277.40 761.64 282.05 754.75 285.75 C 747.85 289.44 743.19 294.50 738.75 300.75 C 734.31 307.01 727.99 312.97 728.00 321.00
C 738.09 318.73 751.29 327.15 760.33 326.67 C 769.37 326.19 770.82 312.07 780.93 309.93 C 791.03 307.78 799.56 306.84 809.31 308.69 C 819.06 310.55 822.57 327.65 815.07 333.07 C 807.58 338.49 796.72 335.70 788.67 339.67 C 780.62 343.65 768.70 341.66 760.22 345.22 C 751.75 348.78 740.74 350.37 733.30 355.30 C 725.85 360.23 721.32 365.49 715.25 373.25 C 709.19 381.02 707.35 390.87 706.00 401.00 C 704.65 411.13 709.47 421.83 715.90 429.10 C 722.33 436.37 732.48 438.49 742.00 440.00
M 811.00 361.00 
C 808.73 373.40 806.06 390.02 795.75 398.75 C 785.44 407.49 767.47 414.75 755.75 405.25 C 744.04 395.74 753.08 376.25 766.68 372.68 C 780.28 369.10 796.96 364.11 811.00 361.00 Z"/>
</g>
<g fill="None" fill-opacity="0.0" stroke="#E3292B" stroke-opacity="0.95" stroke-width="0.3"><path d="
M 1166.00 290.00 
C 1164.05 292.61 1159.56 299.76 1158.00 297.00
C 1153.73 293.15 1159.79 283.90 1160.00 278.00
C 1146.67 278.00 1133.33 278.00 1120.00 278.00
C 1117.82 288.36 1115.01 298.61 1112.98 308.98 C 1110.94 319.34 1108.69 330.60 1106.93 340.93 C 1105.17 351.25 1101.37 360.81 1099.99 370.99 C 1098.61 381.17 1094.39 393.02 1094.00 403.00 C 1093.61 412.97 1085.74 424.51 1088.00 434.00
C 1101.52 436.25 1116.07 434.40 1130.00 435.00
C 1135.64 427.57 1133.43 413.77 1137.01 405.01 C 1140.59 396.25 1139.68 384.11 1143.00 375.00 C 1146.32 365.90 1145.96 354.25 1149.22 345.22 C 1152.49 336.20 1154.66 328.49 1161.00 321.00
C 1160.05 321.54 1159.19 322.17 1158.00 322.00
C 1160.23 319.43 1162.53 315.62 1166.00 315.00
C 1172.46 312.05 1179.16 308.30 1186.33 307.33 C 1193.50 306.36 1201.03 308.40 1205.75 314.25 C 1210.46 320.11 1210.67 328.46 1208.78 335.78 C 1206.89 343.09 1206.18 350.45 1203.99 357.99 C 1201.80 365.54 1201.80 373.58 1199.33 381.33 C 1196.86 389.07 1197.78 395.71 1194.93 403.93 C 1192.08 412.14 1193.47 416.58 1190.00 426.00 C 1186.52 435.42 1190.94 437.32 1201.00 438.00
C 1200.96 438.00 1201.00 437.00 1201.00 437.00
C 1200.11 435.66 1212.53 436.04 1215.00 436.00 C 1217.47 435.96 1230.41 435.13 1228.00 437.00
C 1235.81 434.33 1234.13 417.51 1237.00 409.00 C 1239.88 400.49 1240.90 387.68 1243.22 378.22 C 1245.55 368.76 1247.98 357.94 1250.00 348.00 C 1252.03 338.06 1254.34 326.34 1255.00 316.00 C 1255.66 305.66 1254.50 294.05 1247.25 286.75 C 1239.99 279.45 1232.72 275.76 1222.67 274.33 C 1212.62 272.90 1198.33 273.95 1189.08 277.08 C 1179.82 280.20 1173.51 284.19 1166.00 290.00 Z"/>
</g>
<g fill="None" fill-opacity="0.0" stroke="#E72E30" stroke-opacity="0.35" stroke-width="0.3"><path d="
M 1047.00 291.00 
C 1046.66 288.45 1048.67 286.61 1048.00 284.00
C 1047.63 283.67 1045.21 284.41 1045.00 284.00
C 1045.47 286.21 1046.74 289.19 1047.00 291.00 Z"/>
</g>
<g fill="None" fill-opacity="0.0" stroke="#E2282B" stroke-opacity="0.50" stroke-width="0.3"><path d="
M 1158.00 297.00 
C 1159.56 299.76 1164.05 292.61 1166.00 290.00
C 1163.33 292.06 1159.55 293.60 1158.00 297.00 Z"/>
</g>
<g fill="None" fill-opacity="0.0" stroke="#E3282B" stroke-opacity="0.81" stroke-width="0.3"><path d="
M 146.00 450.00 
C 146.11 452.33 145.34 454.11 148.00 453.00
C 155.95 442.96 162.27 429.15 169.68 418.68 C 177.09 408.21 186.92 397.59 193.00 386.00
C 195.21 381.79 198.05 379.21 201.00 377.00
C 212.51 361.60 228.04 349.25 240.25 335.25 C 252.45 321.24 274.38 311.07 277.00 291.00
C 249.38 307.32 220.41 331.68 198.75 357.75 C 177.09 383.82 151.63 414.77 146.00 450.00 Z"/>
</g>
<g fill="None" fill-opacity="0.0" stroke="#E4282A" stroke-opacity="0.35" stroke-width="0.3"><path d="
M 66.00 299.00 
C 66.19 298.87 67.74 298.66 69.24 297.25 C 70.75 295.84 69.36 294.18 69.00 295.00
C 68.02 296.20 67.08 297.81 66.00 299.00 Z"/>
</g>
<g fill="None" fill-opacity="0.0" stroke="#E52729" stroke-opacity="0.36" stroke-width="0.3"><path d="
M 1321.00 307.00 
C 1320.84 307.96 1319.14 309.54 1321.00 310.00
C 1324.11 306.90 1327.75 299.66 1328.00 299.00
C 1325.98 301.53 1323.32 304.39 1321.00 307.00 Z"/>
</g>
<g fill="None" fill-opacity="0.0" stroke="#E62B30" stroke-opacity="0.34" stroke-width="0.3"><path d="
M 246.00 309.00 
C 247.22 307.95 248.75 305.91 250.00 305.00
C 248.28 305.73 246.94 307.79 246.00 309.00 Z"/>
</g>
<g fill="None" fill-opacity="0.0" stroke="#E62A2C" stroke-opacity="0.38" stroke-width="0.3"><path d="
M 233.00 319.00 
C 234.52 317.73 236.44 316.22 238.00 315.00
C 235.71 316.00 234.31 316.97 233.00 319.00 Z"/>
</g>
<g fill="None" fill-opacity="0.0" stroke="#DB2729" stroke-opacity="0.39" stroke-width="0.3"><path d="
M 1161.00 321.00 
C 1162.41 319.33 1164.44 316.09 1166.00 315.00
C 1162.53 315.62 1160.23 319.43 1158.00 322.00
C 1159.19 322.17 1160.05 321.54 1161.00 321.00 Z"/>
</g>
<g fill="None" fill-opacity="0.0" stroke="#D82223" stroke-opacity="0.28" stroke-width="0.3"><path d="
M 1256.00 363.00 
C 1256.04 361.81 1254.22 360.78 1254.00 360.00
C 1252.24 360.50 1253.28 362.72 1253.00 364.00
C 1254.24 364.48 1254.99 363.17 1256.00 363.00 Z"/>
</g>
<g fill="None" fill-opacity="0.0" stroke="#000000" stroke-opacity="0.00" stroke-width="0.3"><path d="
M 811.00 361.00 
C 796.96 364.11 780.28 369.10 766.68 372.68 C 753.08 376.25 744.04 395.74 755.75 405.25 C 767.47 414.75 785.44 407.49 795.75 398.75 C 806.06 390.02 808.73 373.40 811.00 361.00 Z"/>
</g>
<g fill="None" fill-opacity="0.0" stroke="#000000" stroke-opacity="0.00" stroke-width="0.3"><path d="
M 557.00 362.00 
C 543.29 362.35 528.45 369.80 515.02 372.02 C 501.60 374.25 489.81 393.05 500.75 404.25 C 511.69 415.44 530.56 407.51 540.92 399.92 C 551.27 392.33 555.30 374.61 557.00 362.00 Z"/>
</g>
<g fill="None" fill-opacity="0.0" stroke="#E0292C" stroke-opacity="0.31" stroke-width="0.3"><path d="
M 193.00 386.00 
C 195.42 383.05 198.36 379.97 201.00 377.00
C 198.05 379.21 195.21 381.79 193.00 386.00 Z"/>
</g>
<g fill="None" fill-opacity="0.0" stroke="#DA2527" stroke-opacity="0.63" stroke-width="0.3"><path d="
M 1045.00 410.00 
C 1046.80 405.67 1052.85 402.15 1056.00 399.00
C 1057.32 397.45 1058.41 396.22 1060.00 395.00
C 1060.93 394.29 1061.28 393.99 1062.00 393.00
C 1060.12 394.77 1053.56 398.61 1052.25 401.25 C 1050.94 403.88 1043.14 408.23 1045.00 410.00 Z"/>
</g>
<g fill="None" fill-opacity="0.0" stroke="#EF2221" stroke-opacity="0.03" stroke-width="0.3"><path d="
M 1056.00 399.00 
C 1053.43 402.01 1050.37 404.90 1048.00 408.00
C 1052.06 403.90 1055.95 398.94 1060.00 395.00
C 1058.41 396.22 1057.32 397.45 1056.00 399.00 Z"/>
</g>
<g fill="None" fill-opacity="0.0" stroke="#2E1815" stroke-opacity="0.53" stroke-width="0.3"><path d="
M 338.00 399.00 
C 339.70 401.19 343.48 399.44 346.00 400.00
C 345.47 399.27 342.66 398.06 342.00 398.00
C 340.47 398.09 338.96 398.83 338.00 399.00 Z"/>
</g>
<g fill="None" fill-opacity="0.0" stroke="#D52225" stroke-opacity="0.24" stroke-width="0.3"><path d="
M 1045.00 410.00 
C 1045.00 410.00 1045.51 410.07 1046.00 410.00
C 1047.18 409.82 1047.39 408.80 1048.00 408.00
C 1050.37 404.90 1053.43 402.01 1056.00 399.00
C 1052.85 402.15 1046.80 405.67 1045.00 410.00 Z"/>
</g>
<g fill="None" fill-opacity="0.0" stroke="#E4292B" stroke-opacity="0.44" stroke-width="0.3"><path d="
M 1188.00 404.00 
C 1175.13 409.75 1161.10 417.68 1151.00 427.00
C 1158.14 425.82 1165.33 421.20 1171.31 417.31 C 1177.28 413.42 1188.63 412.91 1188.00 404.00 Z"/>
</g>
<g fill="None" fill-opacity="0.0" stroke="#E2282B" stroke-opacity="0.53" stroke-width="0.3"><path d="
M 1130.00 435.00 
C 1116.07 434.40 1101.52 436.25 1088.00 434.00
C 1088.00 435.00 1088.00 436.00 1088.00 437.00
C 1094.45 436.17 1103.85 438.11 1110.00 437.00 C 1116.15 435.89 1126.18 440.03 1130.00 435.00 Z"/>
</g>
<g fill="None" fill-opacity="0.0" stroke="#211D1D" stroke-opacity="0.43" stroke-width="0.3"><path d="
M 258.00 437.00 
C 281.88 439.86 307.92 437.00 332.00 437.00
C 336.67 437.00 341.33 437.00 346.00 437.00
C 340.74 436.49 334.03 435.66 328.00 436.00 C 321.97 436.34 314.95 436.01 309.00 436.00 C 303.05 435.99 295.61 436.36 290.00 436.00 C 284.39 435.64 275.80 436.96 271.00 436.00 C 266.20 435.04 256.50 438.84 254.00 435.00
C 255.03 437.78 255.34 436.35 258.00 437.00 Z"/>
</g>
<g fill="None" fill-opacity="0.0" stroke="#E22628" stroke-opacity="0.36" stroke-width="0.3"><path d="
M 1201.00 437.00 
C 1207.63 436.40 1215.19 437.83 1221.00 438.00
C 1223.33 437.84 1225.87 437.73 1228.00 437.00
C 1230.41 435.13 1217.47 435.96 1215.00 436.00 C 1212.53 436.04 1200.11 435.66 1201.00 437.00 Z"/>
</g>
<g fill="None" fill-opacity="0.0" stroke="#540000" stroke-opacity="0.01" stroke-width="0.3"><path d="
M 332.00 437.00 
C 307.92 437.00 281.88 439.86 258.00 437.00
C 269.19 439.72 282.89 437.39 295.00 438.00 C 307.11 438.61 320.60 438.10 332.00 437.00 Z"/>
</g>
<g fill="None" fill-opacity="0.0" stroke="#FE0000" stroke-opacity="0.01" stroke-width="0.3"><path d="
M 1201.00 438.00 
C 1207.46 438.44 1214.54 438.44 1221.00 438.00
C 1215.19 437.83 1207.63 436.40 1201.00 437.00
C 1201.00 437.00 1200.96 438.00 1201.00 438.00 Z"/>
</g>
<g fill="None" fill-opacity="0.0" stroke="#211F1F" stroke-opacity="0.45" stroke-width="0.3"><path d="
M 491.00 441.00 
C 495.47 441.35 500.21 440.68 504.00 440.00
C 501.65 439.95 499.54 439.63 497.00 439.00 C 494.46 438.37 491.43 440.94 491.00 441.00 Z"/>
</g>
<g fill="None" fill-opacity="0.0" stroke="#221E1E" stroke-opacity="0.52" stroke-width="0.3"><path d="
M 742.00 440.00 
C 747.62 440.89 752.41 440.94 758.00 440.00
C 753.51 439.87 746.56 439.87 742.00 440.00 Z"/>
</g>
<g fill="None" fill-opacity="0.0" stroke="#E2292C" stroke-opacity="0.57" stroke-width="0.3"><path d="
M 1237.00 444.00 
C 1232.34 446.07 1223.02 443.30 1218.00 444.00 C 1212.98 444.70 1202.41 444.06 1198.00 444.00 C 1193.59 443.94 1180.22 445.76 1180.00 442.00
C 1177.26 444.66 1191.79 446.12 1196.00 445.00 C 1200.21 443.88 1212.49 446.35 1217.00 445.00 C 1221.51 443.66 1234.45 447.93 1237.00 444.00 Z"/>
</g>
<g fill="None" fill-opacity="0.0" stroke="#EA2827" stroke-opacity="0.05" stroke-width="0.3"><path d="
M 1237.00 444.00 
C 1237.23 443.65 1237.03 442.50 1237.00 442.00
C 1229.10 441.08 1217.20 445.18 1209.00 443.00 C 1200.80 440.82 1187.63 446.89 1181.00 442.00
C 1181.00 442.00 1180.00 442.03 1180.00 442.00
C 1180.22 445.76 1193.59 443.94 1198.00 444.00 C 1202.41 444.06 1212.98 444.70 1218.00 444.00 C 1223.02 443.30 1232.34 446.07 1237.00 444.00 Z"/>
</g>
<g fill="None" fill-opacity="0.0" stroke="#E41B1B" stroke-opacity="0.05" stroke-width="0.3"><path d="
M 148.00 453.00 
C 145.34 454.11 146.11 452.33 146.00 450.00
C 143.94 451.07 145.47 454.12 145.00 456.00
C 147.49 456.93 147.30 453.88 148.00 453.00 Z"/>
</g>
<g fill="None" fill-opacity="0.0" stroke="#E61E1E" stroke-opacity="0.16" stroke-width="0.3"><path d="
M 1266.00 497.00 
C 1266.69 497.32 1267.14 499.35 1267.00 500.00
C 1269.26 500.37 1270.49 497.93 1270.00 496.00
C 1268.41 495.53 1267.31 496.55 1266.00 497.00 Z"/>
</g>
<g fill="None" fill-opacity="0.0" stroke="#EB3131" stroke-opacity="0.32" stroke-width="0.3"><path d="
M 1263.00 499.00 
C 1261.04 501.19 1259.46 503.03 1257.00 505.00
C 1260.48 504.18 1264.16 502.29 1267.00 500.00
C 1267.14 499.35 1266.69 497.32 1266.00 497.00
C 1264.81 497.41 1263.91 498.55 1263.00 499.00 Z"/>
</g>
<g fill="None" fill-opacity="0.0" stroke="#E2292B" stroke-opacity="0.64" stroke-width="0.3"><path d="
M 1260.00 500.00 
C 1257.97 501.12 1255.88 503.58 1253.00 503.00
C 1253.58 503.12 1255.01 504.76 1256.00 505.00
C 1256.00 505.00 1256.53 505.11 1257.00 505.00
C 1259.46 503.03 1261.04 501.19 1263.00 499.00
C 1262.33 499.33 1260.78 499.76 1260.00 500.00 Z"/>
</g>
<g fill="None" fill-opacity="0.0" stroke="#F02122" stroke-opacity="0.10" stroke-width="0.3"><path d="
M 1253.00 503.00 
C 1255.88 503.58 1257.97 501.12 1260.00 500.00
C 1257.23 500.85 1255.42 501.80 1253.00 503.00 Z"/>
</g>
<g fill="None" fill-opacity="0.0" stroke="#E4272B" stroke-opacity="0.40" stroke-width="0.3"><path d="
M 69.00 522.00 
C 71.06 523.88 72.90 525.35 75.00 527.00
C 76.28 528.01 77.79 529.01 79.00 530.00
C 75.89 526.03 71.98 522.19 68.00 519.00
C 67.83 520.19 68.46 521.05 69.00 522.00 Z"/>
</g>
<g fill="None" fill-opacity="0.0" stroke="#DE2928" stroke-opacity="0.03" stroke-width="0.3"><path d="
M 84.00 535.00 
C 82.37 533.37 80.88 531.54 79.00 530.00
C 77.79 529.01 76.28 528.01 75.00 527.00
C 77.90 529.79 80.85 532.31 84.00 535.00 Z"/>
</g>
<g fill="None" fill-opacity="0.0" stroke="#C52325" stroke-opacity="0.24" stroke-width="0.3"><path d="
M 1014.00 581.00 
C 1012.34 581.11 1010.66 580.97 1009.00 581.00
C 1007.70 582.36 1002.91 579.20 1002.00 583.00
C 1006.55 584.91 1013.91 581.03 1014.00 581.00 Z"/>
</g>
<g fill="None" fill-opacity="0.0" stroke="#EB2E2F" stroke-opacity="0.14" stroke-width="0.3"><path d="
M 664.00 615.00 
C 661.13 612.53 657.22 618.01 654.00 616.00
C 656.25 620.42 660.64 615.02 664.00 615.00 Z"/>
</g>
<g fill="None" fill-opacity="0.0" stroke="#E92426" stroke-opacity="0.26" stroke-width="0.3"><path d="
M 278.00 619.00 
C 279.19 618.61 280.30 617.37 280.00 616.00
C 277.45 616.34 275.61 614.33 273.00 615.00
C 271.96 618.80 275.89 618.28 278.00 619.00 Z"/>
</g>
<g fill="#000000" fill-opacity="0.00" stroke="None">
<path d="
M 0.00 664.00 
L 1506.00 664.00
L 1506.00 0.00
L 0.00 0.00
L 0.00 664.00
M 952.00 22.00 
C 951.11 22.23 949.88 22.69 949.00 23.00
C 919.41 33.44 888.81 41.19 859.00 51.00
C 857.87 51.63 854.69 52.79 858.00 53.00
C 907.45 37.37 963.34 36.86 1016.00 34.00
C 1037.95 32.81 1060.66 33.00 1083.00 33.00
C 1087.74 33.00 1093.01 33.61 1097.00 34.00
C 1107.57 34.00 1117.44 34.70 1128.00 35.00
C 1130.12 35.06 1132.57 35.84 1134.00 36.00
C 1164.20 34.71 1198.99 42.19 1227.00 50.00
C 1230.05 50.85 1233.12 51.47 1236.00 53.00
C 1233.87 54.79 1229.49 54.31 1227.00 53.00
C 1210.55 51.46 1194.80 50.19 1178.33 48.67 C 1161.86 47.15 1147.08 43.97 1130.00 44.00 C 1112.92 44.03 1093.07 44.18 1076.00 44.00 C 1058.93 43.82 1042.26 45.45 1026.00 47.00 C 1009.74 48.55 994.60 50.39 978.93 52.93 C 963.25 55.46 946.50 55.93 931.33 59.33 C 916.16 62.73 901.25 64.11 886.33 67.33 C 871.41 70.55 857.07 73.13 842.32 76.32 C 827.58 79.51 812.60 82.84 797.99 85.99 C 783.38 89.14 769.37 92.61 754.98 95.98 C 740.58 99.35 725.90 103.14 711.78 106.78 C 697.66 110.42 684.10 114.16 670.32 118.32 C 656.54 122.48 642.54 125.50 628.98 129.98 C 615.41 134.45 601.49 138.65 587.98 142.98 C 574.46 147.30 561.70 151.97 548.32 156.32 C 534.94 160.68 522.83 165.79 509.75 170.75 C 496.68 175.71 483.73 179.67 470.92 185.92 C 458.12 192.18 446.47 193.78 433.75 201.75 C 421.04 209.72 406.11 211.00 391.00 211.00
C 386.92 211.00 382.34 210.32 379.00 210.00
C 366.02 210.00 355.19 210.80 342.00 210.00 C 328.81 209.20 318.98 212.14 305.00 210.00 C 291.02 207.86 291.86 222.65 290.01 233.01 C 288.15 243.36 284.97 253.28 283.02 263.02 C 281.08 272.77 281.44 284.81 272.70 289.70 C 263.97 294.60 258.57 301.37 250.00 305.00
C 248.75 305.91 247.22 307.95 246.00 309.00
C 243.56 311.11 240.54 313.01 238.00 315.00
C 236.44 316.22 234.52 317.73 233.00 319.00
C 207.52 340.35 189.01 361.30 169.68 387.68 C 150.35 414.06 131.52 451.06 137.00 486.00 C 142.48 520.94 154.12 553.76 172.00 584.00
C 140.52 573.53 111.10 555.39 84.00 535.00
C 80.85 532.31 77.90 529.79 75.00 527.00
C 72.90 525.35 71.06 523.88 69.00 522.00
C 37.72 493.36 15.76 455.29 17.00 412.00 C 18.24 368.71 37.49 330.59 66.00 299.00
C 67.08 297.81 68.02 296.20 69.00 295.00
C 72.24 291.06 76.10 286.34 80.00 284.00
C 85.48 277.83 90.93 272.89 97.00 267.00
C 98.90 265.15 100.75 262.85 103.00 261.00
C 104.24 259.98 105.86 259.03 107.00 258.00
C 109.94 255.35 112.46 252.71 116.00 251.00
C 119.84 247.72 123.70 244.53 128.00 241.00
C 162.18 212.93 201.50 199.42 240.70 179.70 C 279.90 159.97 322.72 145.11 364.68 129.68 C 406.64 114.25 455.12 100.73 499.00 90.00
C 456.21 94.29 412.20 110.84 370.99 123.99 C 329.78 137.14 291.63 154.78 251.00 169.00
C 246.09 171.24 239.84 176.78 234.00 175.00
C 238.82 171.20 244.79 167.68 251.00 166.00
C 260.12 161.69 269.13 155.92 279.08 152.08 C 289.02 148.23 298.12 142.92 308.08 139.08 C 318.03 135.23 327.89 130.84 338.07 127.07 C 348.26 123.31 358.77 118.92 369.08 115.08 C 379.38 111.24 390.10 108.10 400.69 104.69 C 411.29 101.29 421.12 97.00 432.07 94.07 C 443.02 91.15 454.15 87.16 465.22 84.22 C 476.29 81.28 487.08 78.32 498.22 75.22 C 509.37 72.12 520.71 70.10 532.02 67.02 C 543.34 63.95 555.49 61.74 567.07 59.07 C 578.66 56.40 590.29 54.50 602.07 52.07 C 613.85 49.65 625.38 48.06 637.22 45.22 C 649.06 42.38 662.95 42.35 675.00 40.00 C 687.05 37.65 699.56 35.77 712.00 35.00 C 724.44 34.23 736.69 29.97 749.22 30.22 C 761.75 30.47 776.45 23.19 787.00 29.00
C 759.60 40.23 730.57 49.37 704.00 62.00
C 704.01 62.07 705.00 62.00 705.00 62.00
C 741.46 56.04 773.66 40.05 811.01 36.01 C 848.36 31.97 890.00 17.90 929.00 21.00
C 931.94 20.72 936.47 20.34 940.00 20.00
C 945.03 19.51 953.06 17.46 958.00 20.00
C 956.75 21.80 954.20 22.21 952.00 22.00
M 1009.00 581.00 
C 1010.66 580.97 1012.34 581.11 1014.00 581.00
C 1042.26 579.05 1070.37 566.67 1097.08 559.08 C 1123.79 551.49 1150.77 542.43 1176.23 532.23 C 1201.68 522.03 1228.35 515.19 1253.00 503.00
C 1255.42 501.80 1257.23 500.85 1260.00 500.00
C 1260.78 499.76 1262.33 499.33 1263.00 499.00
C 1263.91 498.55 1264.81 497.41 1266.00 497.00
C 1267.31 496.55 1268.41 495.53 1270.00 496.00
C 1270.49 497.93 1269.26 500.37 1267.00 500.00
C 1264.16 502.29 1260.48 504.18 1257.00 505.00
C 1256.53 505.11 1256.00 505.00 1256.00 505.00
C 1250.95 513.07 1235.90 513.30 1227.93 518.93 C 1219.95 524.55 1208.10 527.39 1198.93 531.93 C 1189.76 536.46 1178.72 539.79 1168.98 543.98 C 1159.23 548.16 1148.47 551.49 1138.32 555.32 C 1128.18 559.15 1117.70 562.55 1107.32 566.32 C 1096.94 570.09 1085.97 572.81 1075.32 576.32 C 1064.68 579.83 1053.84 582.88 1042.93 585.93 C 1032.01 588.97 1021.08 591.98 1009.98 594.98 C 998.87 597.97 987.32 600.37 975.99 602.99 C 964.66 605.62 953.58 608.81 942.00 611.00 C 930.41 613.18 919.00 615.78 907.33 618.33 C 895.65 620.87 883.35 622.49 871.33 624.33 C 859.31 626.17 848.08 629.58 835.78 630.78 C 823.47 631.98 811.36 634.52 798.98 635.98 C 786.60 637.44 774.12 638.66 761.78 640.78 C 749.44 642.90 735.42 641.97 723.00 644.00
C 733.72 633.86 750.70 631.19 764.70 624.69 C 778.69 618.20 795.70 614.84 809.00 607.00
C 799.16 609.58 790.12 612.91 779.99 614.99 C 769.87 617.07 760.14 620.57 749.93 622.93 C 739.72 625.28 729.32 627.61 718.93 629.93 C 708.53 632.24 697.69 634.46 687.00 636.00 C 676.31 637.54 666.93 640.80 655.98 641.98 C 645.02 643.15 633.20 645.26 622.00 646.00 C 610.80 646.74 598.61 649.31 587.33 649.33 C 576.05 649.35 562.17 653.99 553.00 649.00
C 586.27 639.76 619.30 629.95 652.00 619.00
C 533.08 639.47 397.05 648.03 278.00 619.00
C 275.89 618.28 271.96 618.80 273.00 615.00
C 275.61 614.33 277.45 616.34 280.00 616.00
C 322.00 623.24 366.65 625.86 410.00 627.00 C 453.35 628.14 499.25 621.84 540.22 616.22 C 581.19 610.61 620.87 602.97 660.07 595.07 C 699.28 587.18 737.37 578.56 775.07 569.07 C 812.78 559.58 849.12 549.41 885.23 538.23 C 921.34 527.05 956.40 515.80 991.08 503.08 C 1025.75 490.35 1057.71 476.65 1091.08 462.08 C 1124.44 447.50 1153.34 430.22 1186.00 415.00
C 1184.21 423.96 1182.28 432.88 1181.00 442.00
C 1187.63 446.89 1200.80 440.82 1209.00 443.00 C 1217.20 445.18 1229.10 441.08 1237.00 442.00
C 1236.06 426.94 1245.44 411.73 1245.98 396.98 C 1246.51 382.22 1251.96 367.93 1264.25 360.25 C 1276.54 352.56 1283.57 343.65 1293.90 334.90 C 1304.23 326.15 1312.04 317.08 1321.00 307.00
C 1323.32 304.39 1325.98 301.53 1328.00 299.00
C 1351.48 269.55 1373.05 236.14 1373.00 197.00 C 1372.95 157.86 1355.31 119.39 1337.00 86.00
C 1381.47 101.11 1416.70 126.62 1451.92 160.08 C 1487.14 193.54 1502.26 254.55 1485.22 300.22 C 1468.19 345.90 1441.88 377.74 1405.75 409.75 C 1369.63 441.76 1331.83 460.87 1288.75 481.75 C 1245.68 502.64 1200.71 519.91 1154.93 536.93 C 1109.15 553.94 1056.58 568.72 1009.00 581.00
M 1071.00 234.00 
C 1073.01 235.89 1074.24 237.89 1076.00 240.00
C 1111.73 282.64 1091.40 352.68 1062.00 393.00
C 1061.28 393.99 1060.93 394.29 1060.00 395.00
C 1055.95 398.94 1052.06 403.90 1048.00 408.00
C 1047.39 408.80 1047.18 409.82 1046.00 410.00
C 1010.34 438.54 967.69 448.56 922.77 434.23 C 877.85 419.89 870.16 364.89 879.93 324.93 C 889.70 284.96 908.86 249.06 945.70 228.70 C 982.53 208.33 1038.66 203.51 1071.00 234.00
M 1256.00 363.00 
C 1254.99 363.17 1254.24 364.48 1253.00 364.00
C 1253.28 362.72 1252.24 360.50 1254.00 360.00
C 1255.23 346.05 1265.03 339.01 1274.75 329.75 C 1284.48 320.49 1290.73 312.42 1299.30 303.30 C 1307.87 294.19 1314.56 284.82 1322.30 275.30 C 1330.04 265.79 1336.71 255.57 1343.92 245.92 C 1351.12 236.27 1355.23 222.02 1365.00 216.00
C 1349.25 276.35 1304.53 326.03 1256.00 363.00
M 346.00 437.00 
C 341.33 437.00 336.67 437.00 332.00 437.00
C 320.60 438.10 307.11 438.61 295.00 438.00 C 282.89 437.39 269.19 439.72 258.00 437.00
C 255.34 436.35 255.03 437.78 254.00 435.00
C 251.99 429.54 258.03 421.08 257.98 414.97 C 257.93 408.87 262.45 399.71 262.98 392.98 C 263.50 386.24 265.66 377.75 267.00 371.00 C 268.34 364.25 269.68 357.95 271.92 350.92 C 274.17 343.90 273.54 335.00 275.98 327.98 C 278.41 320.95 278.79 314.05 280.93 306.93 C 283.06 299.80 283.05 291.43 285.32 284.32 C 287.60 277.21 287.52 269.98 289.93 262.93 C 292.33 255.87 291.65 247.26 294.33 240.33 C 297.01 233.40 295.40 226.05 298.93 219.93 C 302.45 213.80 314.41 217.76 322.00 217.00 C 329.59 216.24 340.83 217.25 349.00 217.00 C 357.17 216.75 367.80 216.89 376.00 217.00 C 384.20 217.11 394.22 216.42 402.00 217.00 C 409.78 217.58 416.84 219.86 423.69 222.31 C 430.55 224.76 434.19 227.95 440.08 231.92 C 445.98 235.89 448.69 241.27 452.26 246.74 C 455.82 252.22 458.01 259.48 459.98 266.02 C 461.94 272.57 462.50 279.21 463.00 287.00 C 463.50 294.79 460.75 304.15 461.00 312.00 C 461.25 319.86 458.78 328.07 457.22 335.22 C 455.67 342.37 454.03 348.76 451.23 355.23 C 448.43 361.70 446.52 368.33 443.22 374.22 C 439.93 380.11 436.82 384.67 433.23 390.23 C 429.64 395.79 425.40 400.18 421.25 405.25 C 417.09 410.31 412.07 413.64 406.75 417.75 C 401.43 421.87 396.68 424.54 390.31 427.31 C 383.93 430.07 377.29 432.28 369.99 433.99 C 362.70 435.71 353.97 437.00 346.00 437.00
M 700.00 222.00 
C 699.32 240.16 693.06 258.73 690.00 277.00
C 699.33 277.00 708.67 277.00 718.00 277.00
C 716.70 288.27 712.66 295.16 712.02 307.02 C 711.39 318.88 685.71 305.69 682.08 314.08 C 678.45 322.48 678.92 333.69 676.02 343.02 C 673.13 352.35 672.10 364.48 670.07 374.07 C 668.04 383.67 663.17 395.38 669.00 404.00
C 676.28 404.15 684.56 402.71 692.00 401.00
C 691.25 412.07 689.84 423.45 689.00 434.00
C 666.21 447.26 616.52 444.08 620.78 408.78 C 625.04 373.47 633.86 346.37 639.00 312.00
C 633.00 312.00 627.00 312.00 621.00 312.00
C 623.01 299.98 625.10 288.98 628.00 277.00
C 634.00 277.00 640.00 277.00 646.00 277.00
C 650.81 264.86 648.92 246.51 663.08 241.08 C 677.24 235.64 685.85 226.84 700.00 222.00
M 504.00 440.00 
C 500.21 440.68 495.47 441.35 491.00 441.00
C 479.96 440.12 467.72 435.69 459.75 427.25 C 451.78 418.80 451.60 399.92 454.31 389.31 C 457.01 378.70 461.48 371.10 470.25 363.25 C 479.02 355.40 488.99 350.53 500.22 347.22 C 511.45 343.92 523.88 342.88 535.22 339.22 C 546.57 335.57 564.83 338.69 565.00 323.00 C 565.17 307.31 549.43 306.43 537.33 307.33 C 525.23 308.23 515.67 315.72 511.00 327.00
C 498.03 325.37 485.41 321.93 473.00 320.00
C 476.65 312.53 480.06 305.31 485.77 298.77 C 491.48 292.23 497.64 287.59 505.23 283.23 C 512.82 278.86 521.70 276.23 531.00 275.00 C 540.31 273.77 553.50 272.73 563.00 274.00 C 572.50 275.27 582.83 275.23 590.74 280.26 C 598.66 285.28 604.12 289.87 607.31 298.69 C 610.49 307.52 606.92 317.67 606.02 327.02 C 605.13 336.38 602.51 346.35 600.07 355.07 C 597.64 363.80 597.97 374.27 595.02 383.02 C 592.08 391.78 592.08 400.95 590.01 410.01 C 587.93 419.07 597.46 436.31 586.00 437.00 C 574.53 437.69 562.52 436.49 551.00 437.00
C 548.91 431.89 549.00 426.89 549.00 421.00
C 535.50 430.34 520.89 438.63 504.00 440.00
M 758.00 440.00 
C 752.41 440.94 747.62 440.89 742.00 440.00
C 732.48 438.49 722.33 436.37 715.90 429.10 C 709.47 421.83 704.65 411.13 706.00 401.00 C 707.35 390.87 709.19 381.02 715.25 373.25 C 721.32 365.49 725.85 360.23 733.30 355.30 C 740.74 350.37 751.75 348.78 760.22 345.22 C 768.70 341.66 780.62 343.65 788.67 339.67 C 796.72 335.70 807.58 338.49 815.07 333.07 C 822.57 327.65 819.06 310.55 809.31 308.69 C 799.56 306.84 791.03 307.78 780.93 309.93 C 770.82 312.07 769.37 326.19 760.33 326.67 C 751.29 327.15 738.09 318.73 728.00 321.00
C 727.99 312.97 734.31 307.01 738.75 300.75 C 743.19 294.50 747.85 289.44 754.75 285.75 C 761.64 282.05 767.71 277.40 776.07 276.07 C 784.44 274.75 795.32 273.66 804.01 273.01 C 812.69 272.36 823.53 275.40 832.02 275.98 C 840.52 276.55 846.35 280.94 852.75 286.25 C 859.15 291.56 862.93 300.59 862.00 309.00 C 861.07 317.41 861.19 326.49 859.00 335.00 C 856.81 343.52 856.23 350.78 854.00 359.00 C 851.78 367.23 851.53 374.94 849.01 383.01 C 846.49 391.07 846.69 400.86 844.00 409.00 C 841.31 417.14 848.30 425.90 846.00 434.00 C 843.70 442.11 826.42 433.84 818.00 437.00 C 809.58 440.16 798.12 432.34 802.00 421.00
C 788.88 431.05 774.83 438.48 758.00 440.00
M 1228.00 437.00 
C 1225.87 437.73 1223.33 437.84 1221.00 438.00
C 1214.54 438.44 1207.46 438.44 1201.00 438.00
C 1190.94 437.32 1186.52 435.42 1190.00 426.00 C 1193.47 416.58 1192.08 412.14 1194.93 403.93 C 1197.78 395.71 1196.86 389.07 1199.33 381.33 C 1201.80 373.58 1201.80 365.54 1203.99 357.99 C 1206.18 350.45 1206.89 343.09 1208.78 335.78 C 1210.67 328.46 1210.46 320.11 1205.75 314.25 C 1201.03 308.40 1193.50 306.36 1186.33 307.33 C 1179.16 308.30 1172.46 312.05 1166.00 315.00
C 1164.44 316.09 1162.41 319.33 1161.00 321.00
C 1154.66 328.49 1152.49 336.20 1149.22 345.22 C 1145.96 354.25 1146.32 365.90 1143.00 375.00 C 1139.68 384.11 1140.59 396.25 1137.01 405.01 C 1133.43 413.77 1135.64 427.57 1130.00 435.00
C 1126.18 440.03 1116.15 435.89 1110.00 437.00 C 1103.85 438.11 1094.45 436.17 1088.00 437.00
C 1088.00 436.00 1088.00 435.00 1088.00 434.00
C 1085.74 424.51 1093.61 412.97 1094.00 403.00 C 1094.39 393.02 1098.61 381.17 1099.99 370.99 C 1101.37 360.81 1105.17 351.25 1106.93 340.93 C 1108.69 330.60 1110.94 319.34 1112.98 308.98 C 1115.01 298.61 1117.82 288.36 1120.00 278.00
C 1133.33 278.00 1146.67 278.00 1160.00 278.00
C 1159.79 283.90 1153.73 293.15 1158.00 297.00
C 1159.55 293.60 1163.33 292.06 1166.00 290.00
C 1173.51 284.19 1179.82 280.20 1189.08 277.08 C 1198.33 273.95 1212.62 272.90 1222.67 274.33 C 1232.72 275.76 1239.99 279.45 1247.25 286.75 C 1254.50 294.05 1255.66 305.66 1255.00 316.00 C 1254.34 326.34 1252.03 338.06 1250.00 348.00 C 1247.98 357.94 1245.55 368.76 1243.22 378.22 C 1240.90 387.68 1239.88 400.49 1237.00 409.00 C 1234.13 417.51 1235.81 434.33 1228.00 437.00
M 201.00 377.00 
C 198.36 379.97 195.42 383.05 193.00 386.00
C 186.92 397.59 177.09 408.21 169.68 418.68 C 162.27 429.15 155.95 442.96 148.00 453.00
C 147.30 453.88 147.49 456.93 145.00 456.00
C 145.47 454.12 143.94 451.07 146.00 450.00
C 151.63 414.77 177.09 383.82 198.75 357.75 C 220.41 331.68 249.38 307.32 277.00 291.00
C 274.38 311.07 252.45 321.24 240.25 335.25 C 228.04 349.25 212.51 361.60 201.00 377.00
M 1188.00 404.00 
C 1188.63 412.91 1177.28 413.42 1171.31 417.31 C 1165.33 421.20 1158.14 425.82 1151.00 427.00
C 1161.10 417.68 1175.13 409.75 1188.00 404.00 Z"/>
</g>
<g fill="#E8262A" fill-opacity="0.20" stroke="None">
<path d="
M 940.00 20.00 
C 940.37 19.71 942.51 20.00 943.00 20.00
C 944.82 20.00 946.13 21.27 948.00 20.00 C 949.87 18.73 952.04 22.00 952.00 22.00
C 954.20 22.21 956.75 21.80 958.00 20.00
C 953.06 17.46 945.03 19.51 940.00 20.00 Z"/>
</g>
<g fill="#E4292C" fill-opacity="0.49" stroke="None">
<path d="
M 929.00 21.00 
C 934.60 21.44 937.45 22.01 940.00 20.00
C 936.47 20.34 931.94 20.72 929.00 21.00 Z"/>
</g>
<g fill="#E3292C" fill-opacity="0.96" stroke="None">
<path d="
M 929.00 21.00 
C 890.00 17.90 848.36 31.97 811.01 36.01 C 773.66 40.05 741.46 56.04 705.00 62.00
C 703.91 64.39 702.86 62.84 701.00 64.00
C 700.21 60.64 703.88 58.95 704.00 62.00
C 730.57 49.37 759.60 40.23 787.00 29.00
C 776.45 23.19 761.75 30.47 749.22 30.22 C 736.69 29.97 724.44 34.23 712.00 35.00 C 699.56 35.77 687.05 37.65 675.00 40.00 C 662.95 42.35 649.06 42.38 637.22 45.22 C 625.38 48.06 613.85 49.65 602.07 52.07 C 590.29 54.50 578.66 56.40 567.07 59.07 C 555.49 61.74 543.34 63.95 532.02 67.02 C 520.71 70.10 509.37 72.12 498.22 75.22 C 487.08 78.32 476.29 81.28 465.22 84.22 C 454.15 87.16 443.02 91.15 432.07 94.07 C 421.12 97.00 411.29 101.29 400.69 104.69 C 390.10 108.10 379.38 111.24 369.08 115.08 C 358.77 118.92 348.26 123.31 338.07 127.07 C 327.89 130.84 318.03 135.23 308.08 139.08 C 298.12 142.92 289.02 148.23 279.08 152.08 C 269.13 155.92 260.12 161.69 251.00 166.00
C 251.15 165.70 251.32 168.36 251.00 169.00
C 291.63 154.78 329.78 137.14 370.99 123.99 C 412.20 110.84 456.21 94.29 499.00 90.00
C 455.12 100.73 406.64 114.25 364.68 129.68 C 322.72 145.11 279.90 159.97 240.70 179.70 C 201.50 199.42 162.18 212.93 128.00 241.00
C 124.92 245.10 121.69 248.25 116.00 251.00
C 112.46 252.71 109.94 255.35 107.00 258.00
C 106.28 259.02 104.13 264.19 101.00 265.00
C 100.45 263.18 102.75 262.53 103.00 261.00
C 100.75 262.85 98.90 265.15 97.00 267.00
C 93.52 272.18 85.27 280.84 80.00 284.00
C 76.10 286.34 72.24 291.06 69.00 295.00
C 69.36 294.18 70.75 295.84 69.24 297.25 C 67.74 298.66 66.19 298.87 66.00 299.00
C 37.49 330.59 18.24 368.71 17.00 412.00 C 15.76 455.29 37.72 493.36 69.00 522.00
C 68.46 521.05 67.83 520.19 68.00 519.00
C 71.98 522.19 75.89 526.03 79.00 530.00
C 80.88 531.54 82.37 533.37 84.00 535.00
C 111.10 555.39 140.52 573.53 172.00 584.00
C 154.12 553.76 142.48 520.94 137.00 486.00 C 131.52 451.06 150.35 414.06 169.68 387.68 C 189.01 361.30 207.52 340.35 233.00 319.00
C 234.31 316.97 235.71 316.00 238.00 315.00
C 240.54 313.01 243.56 311.11 246.00 309.00
C 246.94 307.79 248.28 305.73 250.00 305.00
C 258.57 301.37 263.97 294.60 272.70 289.70 C 281.44 284.81 281.08 272.77 283.02 263.02 C 284.97 253.28 288.15 243.36 290.01 233.01 C 291.86 222.65 291.02 207.86 305.00 210.00 C 318.98 212.14 328.81 209.20 342.00 210.00 C 355.19 210.80 366.02 210.00 379.00 210.00
C 383.08 210.00 387.66 210.68 391.00 211.00
C 406.11 211.00 421.04 209.72 433.75 201.75 C 446.47 193.78 458.12 192.18 470.92 185.92 C 483.73 179.67 496.68 175.71 509.75 170.75 C 522.83 165.79 534.94 160.68 548.32 156.32 C 561.70 151.97 574.46 147.30 587.98 142.98 C 601.49 138.65 615.41 134.45 628.98 129.98 C 642.54 125.50 656.54 122.48 670.32 118.32 C 684.10 114.16 697.66 110.42 711.78 106.78 C 725.90 103.14 740.58 99.35 754.98 95.98 C 769.37 92.61 783.38 89.14 797.99 85.99 C 812.60 82.84 827.58 79.51 842.32 76.32 C 857.07 73.13 871.41 70.55 886.33 67.33 C 901.25 64.11 916.16 62.73 931.33 59.33 C 946.50 55.93 963.25 55.46 978.93 52.93 C 994.60 50.39 1009.74 48.55 1026.00 47.00 C 1042.26 45.45 1058.93 43.82 1076.00 44.00 C 1093.07 44.18 1112.92 44.03 1130.00 44.00 C 1147.08 43.97 1161.86 47.15 1178.33 48.67 C 1194.80 50.19 1210.55 51.46 1227.00 53.00
C 1226.58 52.23 1227.43 50.76 1227.00 50.00
C 1198.99 42.19 1164.20 34.71 1134.00 36.00
C 1131.54 36.10 1130.35 35.45 1128.00 35.00
C 1117.44 34.70 1107.57 34.00 1097.00 34.00
C 1093.69 34.00 1090.31 34.19 1087.00 34.00
C 1064.73 36.16 1038.20 36.15 1016.00 34.00
C 963.34 36.86 907.45 37.37 858.00 53.00
C 855.73 53.72 851.26 56.65 849.00 54.00
C 852.76 54.40 854.91 50.89 859.00 51.00
C 888.81 41.19 919.41 33.44 949.00 23.00
C 948.96 22.99 944.26 20.23 943.00 20.00
C 942.51 20.00 940.37 19.71 940.00 20.00
C 937.45 22.01 934.60 21.44 929.00 21.00
M 1083.00 42.00 
C 1079.58 44.21 1074.18 42.42 1070.00 43.00
C 1073.42 40.79 1078.82 42.58 1083.00 42.00
M 1129.00 42.00 
C 1125.25 44.22 1119.51 42.41 1115.00 43.00
C 1118.75 40.78 1124.49 42.59 1129.00 42.00
M 848.00 55.00 
C 843.96 60.62 842.09 52.72 848.00 55.00
M 509.00 88.00 
C 506.87 89.79 502.49 89.31 500.00 88.00
C 501.96 86.48 507.11 86.28 509.00 88.00 Z"/>
</g>
<g fill="#E42729" fill-opacity="0.71" stroke="None">
<path d="
M 949.00 23.00 
C 949.88 22.69 951.11 22.23 952.00 22.00
C 952.04 22.00 949.87 18.73 948.00 20.00 C 946.13 21.27 944.82 20.00 943.00 20.00
C 944.26 20.23 948.96 22.99 949.00 23.00 Z"/>
</g>
<g fill="#E3292C" fill-opacity="0.56" stroke="None">
<path d="
M 1016.00 34.00 
C 1038.20 36.15 1064.73 36.16 1087.00 34.00
C 1085.42 33.91 1083.97 33.17 1083.00 33.00
C 1060.66 33.00 1037.95 32.81 1016.00 34.00 Z"/>
</g>
<g fill="#E3292B" fill-opacity="0.08" stroke="None">
<path d="
M 1087.00 34.00 
C 1090.31 34.19 1093.69 34.00 1097.00 34.00
C 1093.01 33.61 1087.74 33.00 1083.00 33.00
C 1083.97 33.17 1085.42 33.91 1087.00 34.00 Z"/>
</g>
<g fill="#E6222A" fill-opacity="0.21" stroke="None">
<path d="
M 1134.00 36.00 
C 1132.57 35.84 1130.12 35.06 1128.00 35.00
C 1130.35 35.45 1131.54 36.10 1134.00 36.00 Z"/>
</g>
<g fill="#E3282C" fill-opacity="0.76" stroke="None">
<path d="
M 1083.00 42.00 
C 1078.82 42.58 1073.42 40.79 1070.00 43.00
C 1074.18 42.42 1079.58 44.21 1083.00 42.00 Z"/>
</g>
<g fill="#E2282C" fill-opacity="0.77" stroke="None">
<path d="
M 1129.00 42.00 
C 1124.49 42.59 1118.75 40.78 1115.00 43.00
C 1119.51 42.41 1125.25 44.22 1129.00 42.00 Z"/>
</g>
<g fill="#E32B2D" fill-opacity="0.41" stroke="None">
<path d="
M 1227.00 53.00 
C 1229.49 54.31 1233.87 54.79 1236.00 53.00
C 1233.12 51.47 1230.05 50.85 1227.00 50.00
C 1227.43 50.76 1226.58 52.23 1227.00 53.00 Z"/>
</g>
<g fill="#EC2829" fill-opacity="0.10" stroke="None">
<path d="
M 858.00 53.00 
C 854.69 52.79 857.87 51.63 859.00 51.00
C 854.91 50.89 852.76 54.40 849.00 54.00
C 851.26 56.65 855.73 53.72 858.00 53.00 Z"/>
</g>
<g fill="#E2282C" fill-opacity="0.52" stroke="None">
<path d="
M 848.00 55.00 
C 842.09 52.72 843.96 60.62 848.00 55.00 Z"/>
</g>
<g fill="#E52729" fill-opacity="0.24" stroke="None">
<path d="
M 705.00 62.00 
C 705.00 62.00 704.01 62.07 704.00 62.00
C 703.88 58.95 700.21 60.64 701.00 64.00
C 702.86 62.84 703.91 64.39 705.00 62.00 Z"/>
</g>
<g fill="#E3292C" fill-opacity="0.96" stroke="None">
<path d="
M 1328.00 299.00 
C 1327.75 299.66 1324.11 306.90 1321.00 310.00
C 1319.14 309.54 1320.84 307.96 1321.00 307.00
C 1312.04 317.08 1304.23 326.15 1293.90 334.90 C 1283.57 343.65 1276.54 352.56 1264.25 360.25 C 1251.96 367.93 1246.51 382.22 1245.98 396.98 C 1245.44 411.73 1236.06 426.94 1237.00 442.00
C 1237.03 442.50 1237.23 443.65 1237.00 444.00
C 1234.45 447.93 1221.51 443.66 1217.00 445.00 C 1212.49 446.35 1200.21 443.88 1196.00 445.00 C 1191.79 446.12 1177.26 444.66 1180.00 442.00
C 1180.00 442.03 1181.00 442.00 1181.00 442.00
C 1182.28 432.88 1184.21 423.96 1186.00 415.00
C 1153.34 430.22 1124.44 447.50 1091.08 462.08 C 1057.71 476.65 1025.75 490.35 991.08 503.08 C 956.40 515.80 921.34 527.05 885.23 538.23 C 849.12 549.41 812.78 559.58 775.07 569.07 C 737.37 578.56 699.28 587.18 660.07 595.07 C 620.87 602.97 581.19 610.61 540.22 616.22 C 499.25 621.84 453.35 628.14 410.00 627.00 C 366.65 625.86 322.00 623.24 280.00 616.00
C 280.30 617.37 279.19 618.61 278.00 619.00
C 397.05 648.03 533.08 639.47 652.00 619.00
C 619.30 629.95 586.27 639.76 553.00 649.00
C 562.17 653.99 576.05 649.35 587.33 649.33 C 598.61 649.31 610.80 646.74 622.00 646.00 C 633.20 645.26 645.02 643.15 655.98 641.98 C 666.93 640.80 676.31 637.54 687.00 636.00 C 697.69 634.46 708.53 632.24 718.93 629.93 C 729.32 627.61 739.72 625.28 749.93 622.93 C 760.14 620.57 769.87 617.07 779.99 614.99 C 790.12 612.91 799.16 609.58 809.00 607.00
C 795.70 614.84 778.69 618.20 764.70 624.69 C 750.70 631.19 733.72 633.86 723.00 644.00
C 735.42 641.97 749.44 642.90 761.78 640.78 C 774.12 638.66 786.60 637.44 798.98 635.98 C 811.36 634.52 823.47 631.98 835.78 630.78 C 848.08 629.58 859.31 626.17 871.33 624.33 C 883.35 622.49 895.65 620.87 907.33 618.33 C 919.00 615.78 930.41 613.18 942.00 611.00 C 953.58 608.81 964.66 605.62 975.99 602.99 C 987.32 600.37 998.87 597.97 1009.98 594.98 C 1021.08 591.98 1032.01 588.97 1042.93 585.93 C 1053.84 582.88 1064.68 579.83 1075.32 576.32 C 1085.97 572.81 1096.94 570.09 1107.32 566.32 C 1117.70 562.55 1128.18 559.15 1138.32 555.32 C 1148.47 551.49 1159.23 548.16 1168.98 543.98 C 1178.72 539.79 1189.76 536.46 1198.93 531.93 C 1208.10 527.39 1219.95 524.55 1227.93 518.93 C 1235.90 513.30 1250.95 513.07 1256.00 505.00
C 1255.01 504.76 1253.58 503.12 1253.00 503.00
C 1228.35 515.19 1201.68 522.03 1176.23 532.23 C 1150.77 542.43 1123.79 551.49 1097.08 559.08 C 1070.37 566.67 1042.26 579.05 1014.00 581.00
C 1013.91 581.03 1006.55 584.91 1002.00 583.00
C 1002.91 579.20 1007.70 582.36 1009.00 581.00
C 1056.58 568.72 1109.15 553.94 1154.93 536.93 C 1200.71 519.91 1245.68 502.64 1288.75 481.75 C 1331.83 460.87 1369.63 441.76 1405.75 409.75 C 1441.88 377.74 1468.19 345.90 1485.22 300.22 C 1502.26 254.55 1487.14 193.54 1451.92 160.08 C 1416.70 126.62 1381.47 101.11 1337.00 86.00
C 1355.31 119.39 1372.95 157.86 1373.00 197.00 C 1373.05 236.14 1351.48 269.55 1328.00 299.00
M 664.00 615.00 
C 660.64 615.02 656.25 620.42 654.00 616.00
C 657.22 618.01 661.13 612.53 664.00 615.00 Z"/>
</g>
<g fill="#8D1517" fill-opacity="0.32" stroke="None">
<path d="
M 509.00 88.00 
C 507.11 86.28 501.96 86.48 500.00 88.00
C 502.49 89.31 506.87 89.79 509.00 88.00 Z"/>
</g>
<g fill="#E72729" fill-opacity="0.35" stroke="None">
<path d="
M 251.00 169.00 
C 251.32 168.36 251.15 165.70 251.00 166.00
C 244.79 167.68 238.82 171.20 234.00 175.00
C 239.84 176.78 246.09 171.24 251.00 169.00 Z"/>
</g>
<g fill="#F71516" fill-opacity="0.03" stroke="None">
<path d="
M 391.00 211.00 
C 387.66 210.68 383.08 210.00 379.00 210.00
C 382.34 210.32 386.92 211.00 391.00 211.00 Z"/>
</g>
<g fill="#E3282B" fill-opacity="0.95" stroke="None">
<path d="
M 1046.00 410.00 
C 1045.51 410.07 1045.00 410.00 1045.00 410.00
C 1043.14 408.23 1050.94 403.88 1052.25 401.25 C 1053.56 398.61 1060.12 394.77 1062.00 393.00
C 1091.40 352.68 1111.73 282.64 1076.00 240.00
C 1074.50 239.03 1069.25 236.39 1068.00 233.00
C 1069.28 232.47 1069.86 233.97 1071.00 234.00
C 1038.66 203.51 982.53 208.33 945.70 228.70 C 908.86 249.06 889.70 284.96 879.93 324.93 C 870.16 364.89 877.85 419.89 922.77 434.23 C 967.69 448.56 1010.34 438.54 1046.00 410.00
M 1045.00 284.00 
C 1045.21 284.41 1047.63 283.67 1048.00 284.00
C 1048.67 286.61 1046.66 288.45 1047.00 291.00
C 1044.69 320.13 1042.88 351.75 1023.25 374.25 C 1003.62 396.75 976.94 409.61 947.93 397.07 C 918.91 384.54 920.86 344.91 927.99 318.99 C 935.13 293.07 948.83 269.11 974.69 257.69 C 1000.56 246.28 1038.35 252.43 1045.00 284.00 Z"/>
</g>
<g fill="#E3282B" fill-opacity="0.81" stroke="None">
<path d="
M 1254.00 360.00 
C 1254.22 360.78 1256.04 361.81 1256.00 363.00
C 1304.53 326.03 1349.25 276.35 1365.00 216.00
C 1355.23 222.02 1351.12 236.27 1343.92 245.92 C 1336.71 255.57 1330.04 265.79 1322.30 275.30 C 1314.56 284.82 1307.87 294.19 1299.30 303.30 C 1290.73 312.42 1284.48 320.49 1274.75 329.75 C 1265.03 339.01 1255.23 346.05 1254.00 360.00 Z"/>
</g>
<g fill="#221F1F" fill-opacity="0.97" stroke="None">
<path d="
M 254.00 435.00 
C 256.50 438.84 266.20 435.04 271.00 436.00 C 275.80 436.96 284.39 435.64 290.00 436.00 C 295.61 436.36 303.05 435.99 309.00 436.00 C 314.95 436.01 321.97 436.34 328.00 436.00 C 334.03 435.66 340.74 436.49 346.00 437.00
C 353.97 437.00 362.70 435.71 369.99 433.99 C 377.29 432.28 383.93 430.07 390.31 427.31 C 396.68 424.54 401.43 421.87 406.75 417.75 C 412.07 413.64 417.09 410.31 421.25 405.25 C 425.40 400.18 429.64 395.79 433.23 390.23 C 436.82 384.67 439.93 380.11 443.22 374.22 C 446.52 368.33 448.43 361.70 451.23 355.23 C 454.03 348.76 455.67 342.37 457.22 335.22 C 458.78 328.07 461.25 319.86 461.00 312.00 C 460.75 304.15 463.50 294.79 463.00 287.00 C 462.50 279.21 461.94 272.57 459.98 266.02 C 458.01 259.48 455.82 252.22 452.26 246.74 C 448.69 241.27 445.98 235.89 440.08 231.92 C 434.19 227.95 430.55 224.76 423.69 222.31 C 416.84 219.86 409.78 217.58 402.00 217.00 C 394.22 216.42 384.20 217.11 376.00 217.00 C 367.80 216.89 357.17 216.75 349.00 217.00 C 340.83 217.25 329.59 216.24 322.00 217.00 C 314.41 217.76 302.45 213.80 298.93 219.93 C 295.40 226.05 297.01 233.40 294.33 240.33 C 291.65 247.26 292.33 255.87 289.93 262.93 C 287.52 269.98 287.60 277.21 285.32 284.32 C 283.05 291.43 283.06 299.80 280.93 306.93 C 278.79 314.05 278.41 320.95 275.98 327.98 C 273.54 335.00 274.17 343.90 271.92 350.92 C 269.68 357.95 268.34 364.25 267.00 371.00 C 265.66 377.75 263.50 386.24 262.98 392.98 C 262.45 399.71 257.93 408.87 257.98 414.97 C 258.03 421.08 251.99 429.54 254.00 435.00
M 371.00 254.00 
C 364.91 256.29 356.84 254.37 350.00 255.00
C 356.09 252.71 364.16 254.63 371.00 254.00
M 342.00 398.00 
C 342.66 398.06 345.47 399.27 346.00 400.00
C 343.48 399.44 339.70 401.19 338.00 399.00
C 327.97 400.76 317.10 397.68 307.00 399.00
C 316.08 351.08 327.18 303.45 336.00 256.00
C 360.88 257.03 403.87 248.39 413.78 277.22 C 423.68 306.06 410.24 332.73 403.08 359.08 C 395.92 385.42 369.75 402.40 342.00 398.00 Z"/>
</g>
<g fill="#221F1F" fill-opacity="0.96" stroke="None">
<path d="
M 700.00 222.00 
C 685.85 226.84 677.24 235.64 663.08 241.08 C 648.92 246.51 650.81 264.86 646.00 277.00
C 640.00 277.00 634.00 277.00 628.00 277.00
C 625.10 288.98 623.01 299.98 621.00 312.00
C 627.00 312.00 633.00 312.00 639.00 312.00
C 633.86 346.37 625.04 373.47 620.78 408.78 C 616.52 444.08 666.21 447.26 689.00 434.00
C 689.84 423.45 691.25 412.07 692.00 401.00
C 684.56 402.71 676.28 404.15 669.00 404.00
C 663.17 395.38 668.04 383.67 670.07 374.07 C 672.10 364.48 673.13 352.35 676.02 343.02 C 678.92 333.69 678.45 322.48 682.08 314.08 C 685.71 305.69 711.39 318.88 712.02 307.02 C 712.66 295.16 716.70 288.27 718.00 277.00
C 708.67 277.00 699.33 277.00 690.00 277.00
C 693.06 258.73 699.32 240.16 700.00 222.00 Z"/>
</g>
<g fill="#DF282A" fill-opacity="0.40" stroke="None">
<path d="
M 1076.00 240.00 
C 1074.24 237.89 1073.01 235.89 1071.00 234.00
C 1069.86 233.97 1069.28 232.47 1068.00 233.00
C 1069.25 236.39 1074.50 239.03 1076.00 240.00 Z"/>
</g>
<g fill="#E42728" fill-opacity="0.42" stroke="None">
<path d="
M 116.00 251.00 
C 121.69 248.25 124.92 245.10 128.00 241.00
C 123.70 244.53 119.84 247.72 116.00 251.00 Z"/>
</g>
<g fill="#000000" fill-opacity="0.00" stroke="None">
<path d="
M 1047.00 291.00 
C 1046.74 289.19 1045.47 286.21 1045.00 284.00
C 1038.35 252.43 1000.56 246.28 974.69 257.69 C 948.83 269.11 935.13 293.07 927.99 318.99 C 920.86 344.91 918.91 384.54 947.93 397.07 C 976.94 409.61 1003.62 396.75 1023.25 374.25 C 1042.88 351.75 1044.69 320.13 1047.00 291.00 Z"/>
</g>
<g fill="#211F1F" fill-opacity="0.79" stroke="None">
<path d="
M 371.00 254.00 
C 364.16 254.63 356.09 252.71 350.00 255.00
C 356.84 254.37 364.91 256.29 371.00 254.00 Z"/>
</g>
<g fill="#000000" fill-opacity="0.00" stroke="None">
<path d="
M 338.00 399.00 
C 338.96 398.83 340.47 398.09 342.00 398.00
C 369.75 402.40 395.92 385.42 403.08 359.08 C 410.24 332.73 423.68 306.06 413.78 277.22 C 403.87 248.39 360.88 257.03 336.00 256.00
C 327.18 303.45 316.08 351.08 307.00 399.00
C 317.10 397.68 327.97 400.76 338.00 399.00 Z"/>
</g>
<g fill="#E2292C" fill-opacity="0.43" stroke="None">
<path d="
M 103.00 261.00 
C 102.75 262.53 100.45 263.18 101.00 265.00
C 104.13 264.19 106.28 259.02 107.00 258.00
C 105.86 259.03 104.24 259.98 103.00 261.00 Z"/>
</g>
<g fill="#E42628" fill-opacity="0.36" stroke="None">
<path d="
M 80.00 284.00 
C 85.27 280.84 93.52 272.18 97.00 267.00
C 90.93 272.89 85.48 277.83 80.00 284.00 Z"/>
</g>
<g fill="#221F1F" fill-opacity="0.96" stroke="None">
<path d="
M 491.00 441.00 
C 491.43 440.94 494.46 438.37 497.00 439.00 C 499.54 439.63 501.65 439.95 504.00 440.00
C 520.89 438.63 535.50 430.34 549.00 421.00
C 549.00 426.89 548.91 431.89 551.00 437.00
C 562.52 436.49 574.53 437.69 586.00 437.00 C 597.46 436.31 587.93 419.07 590.01 410.01 C 592.08 400.95 592.08 391.78 595.02 383.02 C 597.97 374.27 597.64 363.80 600.07 355.07 C 602.51 346.35 605.13 336.38 606.02 327.02 C 606.92 317.67 610.49 307.52 607.31 298.69 C 604.12 289.87 598.66 285.28 590.74 280.26 C 582.83 275.23 572.50 275.27 563.00 274.00 C 553.50 272.73 540.31 273.77 531.00 275.00 C 521.70 276.23 512.82 278.86 505.23 283.23 C 497.64 287.59 491.48 292.23 485.77 298.77 C 480.06 305.31 476.65 312.53 473.00 320.00
C 485.41 321.93 498.03 325.37 511.00 327.00
C 515.67 315.72 525.23 308.23 537.33 307.33 C 549.43 306.43 565.17 307.31 565.00 323.00 C 564.83 338.69 546.57 335.57 535.22 339.22 C 523.88 342.88 511.45 343.92 500.22 347.22 C 488.99 350.53 479.02 355.40 470.25 363.25 C 461.48 371.10 457.01 378.70 454.31 389.31 C 451.60 399.92 451.78 418.80 459.75 427.25 C 467.72 435.69 479.96 440.12 491.00 441.00
M 557.00 362.00 
C 555.30 374.61 551.27 392.33 540.92 399.92 C 530.56 407.51 511.69 415.44 500.75 404.25 C 489.81 393.05 501.60 374.25 515.02 372.02 C 528.45 369.80 543.29 362.35 557.00 362.00 Z"/>
</g>
<g fill="#221F1F" fill-opacity="0.96" stroke="None">
<path d="
M 742.00 440.00 
C 746.56 439.87 753.51 439.87 758.00 440.00
C 774.83 438.48 788.88 431.05 802.00 421.00
C 798.12 432.34 809.58 440.16 818.00 437.00 C 826.42 433.84 843.70 442.11 846.00 434.00 C 848.30 425.90 841.31 417.14 844.00 409.00 C 846.69 400.86 846.49 391.07 849.01 383.01 C 851.53 374.94 851.78 367.23 854.00 359.00 C 856.23 350.78 856.81 343.52 859.00 335.00 C 861.19 326.49 861.07 317.41 862.00 309.00 C 862.93 300.59 859.15 291.56 852.75 286.25 C 846.35 280.94 840.52 276.55 832.02 275.98 C 823.53 275.40 812.69 272.36 804.01 273.01 C 795.32 273.66 784.44 274.75 776.07 276.07 C 767.71 277.40 761.64 282.05 754.75 285.75 C 747.85 289.44 743.19 294.50 738.75 300.75 C 734.31 307.01 727.99 312.97 728.00 321.00
C 738.09 318.73 751.29 327.15 760.33 326.67 C 769.37 326.19 770.82 312.07 780.93 309.93 C 791.03 307.78 799.56 306.84 809.31 308.69 C 819.06 310.55 822.57 327.65 815.07 333.07 C 807.58 338.49 796.72 335.70 788.67 339.67 C 780.62 343.65 768.70 341.66 760.22 345.22 C 751.75 348.78 740.74 350.37 733.30 355.30 C 725.85 360.23 721.32 365.49 715.25 373.25 C 709.19 381.02 707.35 390.87 706.00 401.00 C 704.65 411.13 709.47 421.83 715.90 429.10 C 722.33 436.37 732.48 438.49 742.00 440.00
M 811.00 361.00 
C 808.73 373.40 806.06 390.02 795.75 398.75 C 785.44 407.49 767.47 414.75 755.75 405.25 C 744.04 395.74 753.08 376.25 766.68 372.68 C 780.28 369.10 796.96 364.11 811.00 361.00 Z"/>
</g>
<g fill="#E3292B" fill-opacity="0.95" stroke="None">
<path d="
M 1166.00 290.00 
C 1164.05 292.61 1159.56 299.76 1158.00 297.00
C 1153.73 293.15 1159.79 283.90 1160.00 278.00
C 1146.67 278.00 1133.33 278.00 1120.00 278.00
C 1117.82 288.36 1115.01 298.61 1112.98 308.98 C 1110.94 319.34 1108.69 330.60 1106.93 340.93 C 1105.17 351.25 1101.37 360.81 1099.99 370.99 C 1098.61 381.17 1094.39 393.02 1094.00 403.00 C 1093.61 412.97 1085.74 424.51 1088.00 434.00
C 1101.52 436.25 1116.07 434.40 1130.00 435.00
C 1135.64 427.57 1133.43 413.77 1137.01 405.01 C 1140.59 396.25 1139.68 384.11 1143.00 375.00 C 1146.32 365.90 1145.96 354.25 1149.22 345.22 C 1152.49 336.20 1154.66 328.49 1161.00 321.00
C 1160.05 321.54 1159.19 322.17 1158.00 322.00
C 1160.23 319.43 1162.53 315.62 1166.00 315.00
C 1172.46 312.05 1179.16 308.30 1186.33 307.33 C 1193.50 306.36 1201.03 308.40 1205.75 314.25 C 1210.46 320.11 1210.67 328.46 1208.78 335.78 C 1206.89 343.09 1206.18 350.45 1203.99 357.99 C 1201.80 365.54 1201.80 373.58 1199.33 381.33 C 1196.86 389.07 1197.78 395.71 1194.93 403.93 C 1192.08 412.14 1193.47 416.58 1190.00 426.00 C 1186.52 435.42 1190.94 437.32 1201.00 438.00
C 1200.96 438.00 1201.00 437.00 1201.00 437.00
C 1200.11 435.66 1212.53 436.04 1215.00 436.00 C 1217.47 435.96 1230.41 435.13 1228.00 437.00
C 1235.81 434.33 1234.13 417.51 1237.00 409.00 C 1239.88 400.49 1240.90 387.68 1243.22 378.22 C 1245.55 368.76 1247.98 357.94 1250.00 348.00 C 1252.03 338.06 1254.34 326.34 1255.00 316.00 C 1255.66 305.66 1254.50 294.05 1247.25 286.75 C 1239.99 279.45 1232.72 275.76 1222.67 274.33 C 1212.62 272.90 1198.33 273.95 1189.08 277.08 C 1179.82 280.20 1173.51 284.19 1166.00 290.00 Z"/>
</g>
<g fill="#E72E30" fill-opacity="0.35" stroke="None">
<path d="
M 1047.00 291.00 
C 1046.66 288.45 1048.67 286.61 1048.00 284.00
C 1047.63 283.67 1045.21 284.41 1045.00 284.00
C 1045.47 286.21 1046.74 289.19 1047.00 291.00 Z"/>
</g>
<g fill="#E2282B" fill-opacity="0.50" stroke="None">
<path d="
M 1158.00 297.00 
C 1159.56 299.76 1164.05 292.61 1166.00 290.00
C 1163.33 292.06 1159.55 293.60 1158.00 297.00 Z"/>
</g>
<g fill="#E3282B" fill-opacity="0.81" stroke="None">
<path d="
M 146.00 450.00 
C 146.11 452.33 145.34 454.11 148.00 453.00
C 155.95 442.96 162.27 429.15 169.68 418.68 C 177.09 408.21 186.92 397.59 193.00 386.00
C 195.21 381.79 198.05 379.21 201.00 377.00
C 212.51 361.60 228.04 349.25 240.25 335.25 C 252.45 321.24 274.38 311.07 277.00 291.00
C 249.38 307.32 220.41 331.68 198.75 357.75 C 177.09 383.82 151.63 414.77 146.00 450.00 Z"/>
</g>
<g fill="#E4282A" fill-opacity="0.35" stroke="None">
<path d="
M 66.00 299.00 
C 66.19 298.87 67.74 298.66 69.24 297.25 C 70.75 295.84 69.36 294.18 69.00 295.00
C 68.02 296.20 67.08 297.81 66.00 299.00 Z"/>
</g>
<g fill="#E52729" fill-opacity="0.36" stroke="None">
<path d="
M 1321.00 307.00 
C 1320.84 307.96 1319.14 309.54 1321.00 310.00
C 1324.11 306.90 1327.75 299.66 1328.00 299.00
C 1325.98 301.53 1323.32 304.39 1321.00 307.00 Z"/>
</g>
<g fill="#E62B30" fill-opacity="0.34" stroke="None">
<path d="
M 246.00 309.00 
C 247.22 307.95 248.75 305.91 250.00 305.00
C 248.28 305.73 246.94 307.79 246.00 309.00 Z"/>
</g>
<g fill="#E62A2C" fill-opacity="0.38" stroke="None">
<path d="
M 233.00 319.00 
C 234.52 317.73 236.44 316.22 238.00 315.00
C 235.71 316.00 234.31 316.97 233.00 319.00 Z"/>
</g>
<g fill="#DB2729" fill-opacity="0.39" stroke="None">
<path d="
M 1161.00 321.00 
C 1162.41 319.33 1164.44 316.09 1166.00 315.00
C 1162.53 315.62 1160.23 319.43 1158.00 322.00
C 1159.19 322.17 1160.05 321.54 1161.00 321.00 Z"/>
</g>
<g fill="#D82223" fill-opacity="0.28" stroke="None">
<path d="
M 1256.00 363.00 
C 1256.04 361.81 1254.22 360.78 1254.00 360.00
C 1252.24 360.50 1253.28 362.72 1253.00 364.00
C 1254.24 364.48 1254.99 363.17 1256.00 363.00 Z"/>
</g>
<g fill="#000000" fill-opacity="0.00" stroke="None">
<path d="
M 811.00 361.00 
C 796.96 364.11 780.28 369.10 766.68 372.68 C 753.08 376.25 744.04 395.74 755.75 405.25 C 767.47 414.75 785.44 407.49 795.75 398.75 C 806.06 390.02 808.73 373.40 811.00 361.00 Z"/>
</g>
<g fill="#000000" fill-opacity="0.00" stroke="None">
<path d="
M 557.00 362.00 
C 543.29 362.35 528.45 369.80 515.02 372.02 C 501.60 374.25 489.81 393.05 500.75 404.25 C 511.69 415.44 530.56 407.51 540.92 399.92 C 551.27 392.33 555.30 374.61 557.00 362.00 Z"/>
</g>
<g fill="#E0292C" fill-opacity="0.31" stroke="None">
<path d="
M 193.00 386.00 
C 195.42 383.05 198.36 379.97 201.00 377.00
C 198.05 379.21 195.21 381.79 193.00 386.00 Z"/>
</g>
<g fill="#DA2527" fill-opacity="0.63" stroke="None">
<path d="
M 1045.00 410.00 
C 1046.80 405.67 1052.85 402.15 1056.00 399.00
C 1057.32 397.45 1058.41 396.22 1060.00 395.00
C 1060.93 394.29 1061.28 393.99 1062.00 393.00
C 1060.12 394.77 1053.56 398.61 1052.25 401.25 C 1050.94 403.88 1043.14 408.23 1045.00 410.00 Z"/>
</g>
<g fill="#EF2221" fill-opacity="0.03" stroke="None">
<path d="
M 1056.00 399.00 
C 1053.43 402.01 1050.37 404.90 1048.00 408.00
C 1052.06 403.90 1055.95 398.94 1060.00 395.00
C 1058.41 396.22 1057.32 397.45 1056.00 399.00 Z"/>
</g>
<g fill="#2E1815" fill-opacity="0.53" stroke="None">
<path d="
M 338.00 399.00 
C 339.70 401.19 343.48 399.44 346.00 400.00
C 345.47 399.27 342.66 398.06 342.00 398.00
C 340.47 398.09 338.96 398.83 338.00 399.00 Z"/>
</g>
<g fill="#D52225" fill-opacity="0.24" stroke="None">
<path d="
M 1045.00 410.00 
C 1045.00 410.00 1045.51 410.07 1046.00 410.00
C 1047.18 409.82 1047.39 408.80 1048.00 408.00
C 1050.37 404.90 1053.43 402.01 1056.00 399.00
C 1052.85 402.15 1046.80 405.67 1045.00 410.00 Z"/>
</g>
<g fill="#E4292B" fill-opacity="0.44" stroke="None">
<path d="
M 1188.00 404.00 
C 1175.13 409.75 1161.10 417.68 1151.00 427.00
C 1158.14 425.82 1165.33 421.20 1171.31 417.31 C 1177.28 413.42 1188.63 412.91 1188.00 404.00 Z"/>
</g>
<g fill="#E2282B" fill-opacity="0.53" stroke="None">
<path d="
M 1130.00 435.00 
C 1116.07 434.40 1101.52 436.25 1088.00 434.00
C 1088.00 435.00 1088.00 436.00 1088.00 437.00
C 1094.45 436.17 1103.85 438.11 1110.00 437.00 C 1116.15 435.89 1126.18 440.03 1130.00 435.00 Z"/>
</g>
<g fill="#211D1D" fill-opacity="0.43" stroke="None">
<path d="
M 258.00 437.00 
C 281.88 439.86 307.92 437.00 332.00 437.00
C 336.67 437.00 341.33 437.00 346.00 437.00
C 340.74 436.49 334.03 435.66 328.00 436.00 C 321.97 436.34 314.95 436.01 309.00 436.00 C 303.05 435.99 295.61 436.36 290.00 436.00 C 284.39 435.64 275.80 436.96 271.00 436.00 C 266.20 435.04 256.50 438.84 254.00 435.00
C 255.03 437.78 255.34 436.35 258.00 437.00 Z"/>
</g>
<g fill="#E22628" fill-opacity="0.36" stroke="None">
<path d="
M 1201.00 437.00 
C 1207.63 436.40 1215.19 437.83 1221.00 438.00
C 1223.33 437.84 1225.87 437.73 1228.00 437.00
C 1230.41 435.13 1217.47 435.96 1215.00 436.00 C 1212.53 436.04 1200.11 435.66 1201.00 437.00 Z"/>
</g>
<g fill="#540000" fill-opacity="0.01" stroke="None">
<path d="
M 332.00 437.00 
C 307.92 437.00 281.88 439.86 258.00 437.00
C 269.19 439.72 282.89 437.39 295.00 438.00 C 307.11 438.61 320.60 438.10 332.00 437.00 Z"/>
</g>
<g fill="#FE0000" fill-opacity="0.01" stroke="None">
<path d="
M 1201.00 438.00 
C 1207.46 438.44 1214.54 438.44 1221.00 438.00
C 1215.19 437.83 1207.63 436.40 1201.00 437.00
C 1201.00 437.00 1200.96 438.00 1201.00 438.00 Z"/>
</g>
<g fill="#211F1F" fill-opacity="0.45" stroke="None">
<path d="
M 491.00 441.00 
C 495.47 441.35 500.21 440.68 504.00 440.00
C 501.65 439.95 499.54 439.63 497.00 439.00 C 494.46 438.37 491.43 440.94 491.00 441.00 Z"/>
</g>
<g fill="#221E1E" fill-opacity="0.52" stroke="None">
<path d="
M 742.00 440.00 
C 747.62 440.89 752.41 440.94 758.00 440.00
C 753.51 439.87 746.56 439.87 742.00 440.00 Z"/>
</g>
<g fill="#E2292C" fill-opacity="0.57" stroke="None">
<path d="
M 1237.00 444.00 
C 1232.34 446.07 1223.02 443.30 1218.00 444.00 C 1212.98 444.70 1202.41 444.06 1198.00 444.00 C 1193.59 443.94 1180.22 445.76 1180.00 442.00
C 1177.26 444.66 1191.79 446.12 1196.00 445.00 C 1200.21 443.88 1212.49 446.35 1217.00 445.00 C 1221.51 443.66 1234.45 447.93 1237.00 444.00 Z"/>
</g>
<g fill="#EA2827" fill-opacity="0.05" stroke="None">
<path d="
M 1237.00 444.00 
C 1237.23 443.65 1237.03 442.50 1237.00 442.00
C 1229.10 441.08 1217.20 445.18 1209.00 443.00 C 1200.80 440.82 1187.63 446.89 1181.00 442.00
C 1181.00 442.00 1180.00 442.03 1180.00 442.00
C 1180.22 445.76 1193.59 443.94 1198.00 444.00 C 1202.41 444.06 1212.98 444.70 1218.00 444.00 C 1223.02 443.30 1232.34 446.07 1237.00 444.00 Z"/>
</g>
<g fill="#E41B1B" fill-opacity="0.05" stroke="None">
<path d="
M 148.00 453.00 
C 145.34 454.11 146.11 452.33 146.00 450.00
C 143.94 451.07 145.47 454.12 145.00 456.00
C 147.49 456.93 147.30 453.88 148.00 453.00 Z"/>
</g>
<g fill="#E61E1E" fill-opacity="0.16" stroke="None">
<path d="
M 1266.00 497.00 
C 1266.69 497.32 1267.14 499.35 1267.00 500.00
C 1269.26 500.37 1270.49 497.93 1270.00 496.00
C 1268.41 495.53 1267.31 496.55 1266.00 497.00 Z"/>
</g>
<g fill="#EB3131" fill-opacity="0.32" stroke="None">
<path d="
M 1263.00 499.00 
C 1261.04 501.19 1259.46 503.03 1257.00 505.00
C 1260.48 504.18 1264.16 502.29 1267.00 500.00
C 1267.14 499.35 1266.69 497.32 1266.00 497.00
C 1264.81 497.41 1263.91 498.55 1263.00 499.00 Z"/>
</g>
<g fill="#E2292B" fill-opacity="0.64" stroke="None">
<path d="
M 1260.00 500.00 
C 1257.97 501.12 1255.88 503.58 1253.00 503.00
C 1253.58 503.12 1255.01 504.76 1256.00 505.00
C 1256.00 505.00 1256.53 505.11 1257.00 505.00
C 1259.46 503.03 1261.04 501.19 1263.00 499.00
C 1262.33 499.33 1260.78 499.76 1260.00 500.00 Z"/>
</g>
<g fill="#F02122" fill-opacity="0.10" stroke="None">
<path d="
M 1253.00 503.00 
C 1255.88 503.58 1257.97 501.12 1260.00 500.00
C 1257.23 500.85 1255.42 501.80 1253.00 503.00 Z"/>
</g>
<g fill="#E4272B" fill-opacity="0.40" stroke="None">
<path d="
M 69.00 522.00 
C 71.06 523.88 72.90 525.35 75.00 527.00
C 76.28 528.01 77.79 529.01 79.00 530.00
C 75.89 526.03 71.98 522.19 68.00 519.00
C 67.83 520.19 68.46 521.05 69.00 522.00 Z"/>
</g>
<g fill="#DE2928" fill-opacity="0.03" stroke="None">
<path d="
M 84.00 535.00 
C 82.37 533.37 80.88 531.54 79.00 530.00
C 77.79 529.01 76.28 528.01 75.00 527.00
C 77.90 529.79 80.85 532.31 84.00 535.00 Z"/>
</g>
<g fill="#C52325" fill-opacity="0.24" stroke="None">
<path d="
M 1014.00 581.00 
C 1012.34 581.11 1010.66 580.97 1009.00 581.00
C 1007.70 582.36 1002.91 579.20 1002.00 583.00
C 1006.55 584.91 1013.91 581.03 1014.00 581.00 Z"/>
</g>
<g fill="#EB2E2F" fill-opacity="0.14" stroke="None">
<path d="
M 664.00 615.00 
C 661.13 612.53 657.22 618.01 654.00 616.00
C 656.25 620.42 660.64 615.02 664.00 615.00 Z"/>
</g>
<g fill="#E92426" fill-opacity="0.26" stroke="None">
<path d="
M 278.00 619.00 
C 279.19 618.61 280.30 617.37 280.00 616.00
C 277.45 616.34 275.61 614.33 273.00 615.00
C 271.96 618.80 275.89 618.28 278.00 619.00 Z"/>
</g>
</svg>