<?xml version="1.0" encoding="utf-8"?>
<!-- Generator: Adobe Illustrator 23.0.0, SVG Export Plug-In . SVG Version: 6.00 Build 0)  -->
<svg version="1.0" id="Layer_1" xmlns="http://www.w3.org/2000/svg" xmlns:xlink="http://www.w3.org/1999/xlink" x="0px" y="0px"
	 viewBox="0 0 435.7 125.7" enable-background="new 0 0 435.7 125.7" xml:space="preserve">
<path fill="#26B3E8" d="M348.1,64.9c-2.3-0.1-4.6,0.1-6.8,0.7c1.4,0,1.1,0.1,2.2,0.1c16.7,0,30.2,14.6,30.2,32.4
	c0.1,7.6-2.6,14.9-7.5,20.6c7.4-5.5,12.2-13.6,12.2-23.6c0-16.6-13.4-30.1-30.1-30.2C348.2,64.9,348.1,64.9,348.1,64.9z"/>
<path fill="#4156A6" d="M414.9,104.8c-0.6-48.9-52.9-89.1-105.3-70.1c24.7-11.9,49.3-12.1,72.7,2.6C407,52.8,417.3,75.9,414.9,104.8
	z"/>
<path fill="#157CBF" d="M392.9,118.5c6.6-38.8-24.3-73-65.6-69.3c18.4-5.5,41.4-1.1,54.2,12.6C395,76.1,400.9,97.5,392.9,118.5z"/>
<path fill="#4156A6" d="M304.6,4.7c3.8,0,6.6,2.7,6.7,6.4c0.1,4-2.7,6.7-6.5,6.8c-3.9,0-6.9-2.9-6.8-6.6C298,7.6,301,4.6,304.6,4.7
	C304.6,4.7,304.6,4.7,304.6,4.7z"/>
<path fill="#4156A6" d="M358.8,6c0.1,3.2-2.5,5.8-5.6,5.9c-0.1,0-0.1,0-0.2,0c-3.2-0.2-5.8-2.8-5.9-6c0.1-3.2,2.8-5.8,6-5.9
	C356.3,0,358.8,2.6,358.8,6z"/>
<path fill="#4156A6" d="M402.2,21.8c0,3-1.9,4.8-4.8,4.8c-2.5,0.1-4.6-1.8-4.7-4.4c0-0.1,0-0.2,0-0.3c-0.1-2.7,2-5,4.8-5.1
	c0,0,0,0,0,0C400,16.8,402.2,19,402.2,21.8C402.2,21.7,402.2,21.8,402.2,21.8z"/>
<path fill="#4156A6" d="M429.5,55c0,2.3-1.8,4.2-4.1,4.3c-2.3,0-4.2-1.8-4.4-4.1c-0.3-2.3,1.4-4.4,3.8-4.7c2.3-0.3,4.4,1.4,4.7,3.8
	C429.5,54.5,429.5,54.8,429.5,55C429.5,55,429.5,55,429.5,55z"/>
<path fill="#4156A6" d="M431.9,92.8c2.1,0,3.8,1.6,3.8,3.7c0,0,0,0,0,0.1c-0.1,2.2-1.9,3.9-4,3.9c-2.1-0.2-3.6-1.9-3.6-4
	C428.1,94.2,429.6,92.8,431.9,92.8z"/>
<path fill="#686969" d="M355.1,86.9c-0.4-0.6-0.8-1.3-1.3-1.8c-3.1-3.9-8.4-6.2-13.4-5.5c-5.2,0.7-10,3.7-11.1,4.4V64.6H320
	c-0.2,0.2,0,59.8,0,59.8h9.4v-0.8c2.9,1.6,9.8,2.3,13.8,1.5c4.3-0.9,6.1-2.5,7.1-3.1c1-0.6,8-6.8,8.5-18.9
	C359,97.5,358,92,355.1,86.9z M348.9,107.3c-2.5,16-19.6,7.8-19.6,7.8l0.1-22c7.8-6.5,14.1-3.9,14.1-3.9S351.4,91.3,348.9,107.3
	L348.9,107.3z"/>
<path fill="#686969" d="M300.9,80.7c-10.7-1.6-20.1,0.2-22.6,1.6v8.9c3.6-1,7.4-1.8,11.1-2.3c3.7-0.5,7.2-0.8,10.6,1
	c2.2,1.1,2.5,2.7,2.6,5.1c0,0.1,0,0.1,0,0.2c-2.3,0-17.4-0.1-24.2,5.6c-5.9,5.2-3.8,14.4-3.2,16s3.6,6.4,8.2,8
	c4.4,1.6,12.2,1.4,16.5-1.4c1-0.6,2-1.3,2.9-2.1c0,2.1,0,3.4,0,3.4l9.4,0.1l0.1-30.1C312.1,94.5,312.2,82.7,300.9,80.7z
	 M302.7,112.6c-5.7,4.6-12.7,5.5-16.4,3.3c-1.3-0.9-2.2-2.3-2.4-3.9c-0.4-2.1,0.4-4.2,2-5.6c1.8-1.5,4-2.4,6.3-2.6
	c1.4-0.1,2.8-0.2,4.1-0.3c2.1-0.1,4.2-0.2,6.3-0.3C302.7,103.1,302.6,107.1,302.7,112.6z"/>
<path fill="#686969" d="M94.6,80.7c-10.7-1.6-20.1,0.2-22.6,1.6v8.9c3.7-1,7.4-1.8,11.1-2.3c3.7-0.5,7.2-0.8,10.6,1
	c2.2,1.1,2.5,2.7,2.6,5.1c0,0.1,0,0.1,0,0.2c-2.2,0-17.4-0.1-24.2,5.6c-5.9,5.2-3.8,14.4-3.2,16s3.6,6.4,8.2,8
	c4.4,1.6,12.2,1.4,16.5-1.4c1-0.6,2-1.3,2.9-2.1c0,2.1,0,3.4,0,3.4l9.4,0.1l0.1-30.1C105.8,94.5,105.9,82.7,94.6,80.7z M96.4,112.6
	c-5.7,4.6-12.7,5.5-16.4,3.3c-1.3-0.9-2.2-2.3-2.4-3.9c-0.4-2.1,0.4-4.2,2-5.6c1.8-1.5,4-2.4,6.3-2.6c1.4-0.1,2.8-0.2,4.1-0.3
	c2.1-0.1,4.2-0.2,6.3-0.3C96.4,103.1,96.3,107.1,96.4,112.6L96.4,112.6z"/>
<rect x="258.4" y="64.4" fill="#686969" width="8.8" height="60.6"/>
<polygon fill="#686969" points="109,81.1 119,81.1 131.1,111.7 143,81.2 152.6,81.1 135.3,124.4 126.4,124.4 "/>
<path fill="#686969" d="M194.9,104.6c0.3-17.1-4.3-24.5-20-24.8c-16.6-0.2-19.2,17.3-19.2,17.3l-2.7,0l-4.9,7.5c0,0,6,0.1,6.8,0.1
	c1.5,18,13.1,21,21.8,21c8.7,0,17-4,17-4v-9.5l-2-0.1c0,0-4.4,4.9-14.5,5c-13.4-0.2-13.1-12.5-13.1-12.5S185,104.6,194.9,104.6z
	 M175.6,87.7c10.5-0.1,9.7,9.2,9.7,9.2h-20.7C164.6,97,165.4,87.6,175.6,87.7L175.6,87.7z"/>
<path fill="#686969" d="M224.4,79.5c-5-0.7-13,5-13,5v-3.8h-9.2v44.1h9.2V93.4c1.9-1.4,3.8-2.7,5.9-3.8c2.7-1.3,12-2.1,12.1,4.7
	c0.2,14.2,0,30.1,0,30.1l9.5,0.1V92.2C238.8,92.2,237.9,80,224.4,79.5z"/>
<path fill="#686969" d="M48.5,79.5c-6.4-0.6-14,5.4-15,6.2c-1.9-3-5.4-5.9-11.7-6.2c-4.8-0.7-12.4,4.8-12.6,5v-3.8H0v44.1h9.2V93.3
	c1.8-1.4,3.7-2.7,5.7-3.8c2.6-1.3,11.6-2.1,11.7,4.7c0.2,14.2,0,30.1,0,30.1l9.2,0.1V93.4c1.8-1.4,3.8-2.7,5.8-3.9
	c2.6-1.3,11.6-2.1,11.7,4.7c0.2,14.2,0,30.1,0,30.1l9.2,0.1V92.2C62.5,92.2,61.6,80,48.5,79.5z"/>
</svg>
