<svg width="960" height="1024" viewBox="0 0 960 1024" fill="none" xmlns="http://www.w3.org/2000/svg">
<g clip-path="url(#clip0_72_4951)">
<path d="M640 48C640 21.4903 618.51 0 592 0H48C21.4903 0 0 21.4903 0 48V272C0 298.51 21.4903 320 48 320H592C618.51 320 640 341.49 640 368V432C640 458.51 618.51 480 592 480H240C213.49 480 192 501.49 192 528V752C192 778.51 213.49 800 240 800H592C618.51 800 640 821.49 640 848V976C640 1002.51 661.49 1024 688 1024H912C938.51 1024 960 1002.51 960 976V752C960 725.49 938.51 704 912 704H688C661.49 704 640 682.51 640 656V592C640 565.49 661.49 544 688 544H912C938.51 544 960 522.51 960 496V272C960 245.49 938.51 224 912 224H688C661.49 224 640 202.51 640 176V48Z" fill="#151515" style="fill:#151515;fill:color(display-p3 0.0824 0.0824 0.0824);fill-opacity:1;"/>
</g>
<defs>
<clipPath id="clip0_72_4951">
<rect width="960" height="1024" fill="white" style="fill:white;fill-opacity:1;"/>
</clipPath>
</defs>
</svg>
