<?xml version="1.0" standalone="no"?>
<!DOCTYPE svg PUBLIC "-//W3C//DTD SVG 1.1//EN" "http://www.w3.org/Graphics/SVG/1.1/DTD/svg11.dtd">
<svg xmlns="http://www.w3.org/2000/svg" width="222" height="221" viewBox="0 0 222 221"><path fill="#c4174d" d="m58.948 2.725 3.847-.015c3.46-.013 6.918-.014 10.377-.012q4.35 0 8.7-.008 10.272-.016 20.544-.006c7.037.006 14.073-.006 21.109-.027q9.1-.026 18.2-.02c3.612.001 7.223-.001 10.835-.015 4.035-.015 8.069-.006 12.103.006l3.567-.023c9.51.06 19.01 1.368 27.457 6.02 6.942 4.095 12.196 8.841 16.356 15.785 5.699 10.71 7.257 19.61 7.248 31.593l.02 3.9c.017 3.513.022 7.026.024 10.539q.001 3.3.01 6.603.028 11.548.026 23.095c-.002 7.145.02 14.29.051 21.434q.038 9.24.036 18.478c0 3.667.005 7.334.026 11.002.023 4.099.014 8.197.002 12.296l.034 3.618c-.076 10.232-2.32 19.354-7.27 28.344-4.887 7.476-10.2 12.489-18.188 16.563-9.607 4.743-18.417 5.422-29.01 5.4l-3.847.015c-3.46.013-6.918.014-10.377.012q-4.35 0-8.7.008-10.272.016-20.544.006c-7.037-.006-14.073.006-21.109.027q-9.1.026-18.2.02c-3.612-.001-7.223.001-10.835.015-4.035.015-8.069.006-12.103-.006l-3.567.023c-9.51-.06-19.01-1.368-27.458-6.02-6.94-4.095-12.195-8.841-16.355-15.785-5.699-10.71-7.257-19.61-7.248-31.593l-.02-3.9c-.017-3.513-.022-7.026-.024-10.539q-.001-3.3-.01-6.603-.028-11.548-.026-23.095c.002-7.145-.02-14.29-.051-21.434q-.038-9.24-.036-18.478c0-3.667-.005-7.334-.026-11.002-.023-4.099-.014-8.197-.002-12.296l-.034-3.618C4.556 42.8 6.8 33.678 11.75 24.687c4.887-7.475 10.2-12.488 18.187-16.562 9.608-4.743 18.418-5.422 29.011-5.4"/><path fill="#fff" d="M102.5 46c3.154.494 5.34 1.238 7.875 3.188 2.749 2.945 4.35 4.99 5.625 8.812.108 3.299.068 4.998-1 8-3.393 5.671-7.867 9.795-12.822 14.067-3.716 3.298-7.187 6.837-10.678 10.37l-2.203 2.217Q86.645 95.324 84 98c1.644 3.467 3.572 5.923 6.188 8.75l2.433 2.66L95 112a615 615 0 0 1 3.75 4.188l1.547 1.73c2.39 2.922 4.53 5.995 6.703 9.082q-7.043.149-14.087.22-2.392.03-4.783.082c-14.95.318-14.95.318-20.025-2.18-6.024-4.116-9.73-7.6-13.125-14.036-1.894-4.03-2.202-7.35-2.292-11.773l-.114-3.575C53.103 91.098 54.53 87.937 57 84c2.433-2.964 5.105-5.643 7.836-8.332l2.294-2.298a1124 1124 0 0 1 4.796-4.762c2.447-2.418 4.875-4.855 7.3-7.294q2.335-2.324 4.672-4.646l2.189-2.197c9.452-9.278 9.452-9.278 16.413-8.471M115 96q6.96-.149 13.922-.22 2.361-.03 4.722-.082c9.436-.204 17.749-.165 26.356 4.302 4.53 2.876 7.302 6.065 9.938 10.75 1.97 4.352 2.772 8.052 2.46 12.824-.716 4.362-1.963 7.72-4.398 11.426-3.464 4.209-7.178 8.118-11 12l-2.437 2.52a192 192 0 0 1-12.446 11.578c-3.472 3.12-6.682 6.5-9.918 9.863C130 173 130 173 127 174c-6.932.447-6.932.447-10.687-1.125-2.917-2.365-5.46-4.597-7.313-7.875-.951-3.068-1.473-5.812-1-9 2.863-4.82 6.311-8.579 10.297-12.492l1.799-1.79c1.88-1.87 3.767-3.731 5.654-5.593l3.848-3.82q4.694-4.66 9.402-9.305c-1.582-3.862-4.051-6.266-7.008-9.168l-1.471-1.455a1315 1315 0 0 0-4.646-4.564q-2.337-2.295-4.667-4.597a1656 1656 0 0 0-4.22-4.146L115 97z"/></svg>