<svg xmlns="http://www.w3.org/2000/svg" fill="none" viewBox="0 0 24 24" id="Typeorm--Streamline-Svg-Logos" height="24" width="24"><desc>Typeorm Streamline Icon: https://streamlinehq.com</desc><path fill="#8e8f8f" d="M12.9757 4.305675c0.2828 0 0.5129 0.225725 0.5199 0.50685l0.000175 0.0132v5.9526c0 0.282825 -0.225725 0.5129 -0.50685 0.5199l-0.013225 0.000175H8.121875c-0.2828 0 -0.5129 -0.225725 -0.5199 -0.50685l-0.000175 -0.013225V4.825725c0 -0.2828 0.22575 -0.512875 0.50685 -0.5199l0.013225 -0.00015h4.853825Zm0 0.231375H8.121875c-0.15605 0 -0.28325 0.123625 -0.288925 0.278325l-0.0002 0.01035v5.9526c0.00025 0.156125 0.123975 0.28325 0.27875 0.288925l0.010375 0.0002h4.853825c0.156125 -0.000225 0.28325 -0.123975 0.288925 -0.27875l0.0002 -0.010375V4.825725c-0.00025 -0.1595 -0.129625 -0.288675 -0.289125 -0.288675ZM8.81515 9.853675v0.3464h-0.34685v-0.3464h0.34685Zm3.871875 0v0.3464H8.9888v-0.3464h3.698225Zm-3.871875 -1.502475v0.3464h-0.34685v-0.3464h0.34685Zm3.871875 0v0.3464H8.9888v-0.3464h3.698225Zm-3.871875 -1.44475v0.346425h-0.34685v-0.346425h0.34685Zm3.871875 0v0.346425H8.9888v-0.346425h3.698225Zm0 -1.32925v0.34685H8.4683v-0.34685h4.218725Z" stroke-width="0.25"></path><path fill="#8e8f8f" d="M12.9757 12.511475v0.003575c0.28145 0 0.51095 0.223625 0.519825 0.50335l0.00025 0.01315v5.9526c0 0.2828 -0.225725 0.512875 -0.50685 0.5199l-0.013225 0.00015H8.121875c-0.137925 0 -0.2702 -0.054775 -0.36775 -0.152325 -0.093775 -0.093775 -0.14805 -0.219675 -0.152075 -0.35185l-0.00025 -0.015875V13.03155c0 -0.282825 0.22575 -0.5129 0.50685 -0.5199l0.013225 -0.000175h4.853825Zm0 0.2314H8.121875c-0.15605 0 -0.28325 0.1236 -0.288925 0.2783l-0.0002 0.010375v5.9526c0.00025 0.1561 0.123975 0.283225 0.27875 0.288925l0.010375 0.0002h4.853825c0.155425 -0.00025 0.282275 -0.12295 0.288875 -0.277025l0.00025 -0.010325V13.033325c-0.000225 -0.156025 -0.12405 -0.28305 -0.27875 -0.288475l-0.010375 -0.0002v-0.001775ZM8.81515 18.060825v0.34685h-0.34685v-0.34685h0.34685Zm3.871875 0.002675v0.3415H8.9888v-0.3415h3.698225Zm-3.871875 -1.50515v0.34685h-0.34685v-0.34685h0.34685Zm3.871875 0.002675v0.3415H8.9888v-0.3415h3.698225Zm-3.871875 -1.446975v0.346425h-0.34685v-0.346425h0.34685Zm3.871875 0.0027v0.341025H8.9888V15.11675h3.698225Zm0 -1.33195v0.34685H8.4683v-0.34685h4.218725Z" stroke-width="0.25"></path><path fill="#8e8f8f" d="M14.3756 7.80225v0.288675h1.733425v7.8514h-1.733425v0.289125h2.02255V7.80225h-2.02255Z" stroke-width="0.25"></path><path fill="#fe0902" d="M2.02459 2.705025C2.3664 2.1444675 2.929425 1.817465 3.4982 1.6275875l0.077575 -0.02505 0.077525 -0.023405c0.038725 -0.0113025 0.0774 -0.022005 0.115925 -0.0321425l0.076875 -0.01953c0.012775 -0.0031325 0.025525 -0.006205 0.03825 -0.009215l0.076125 -0.0173675c0.012625 -0.00278 0.025225 -0.0055 0.0378 -0.008165l0.075075 -0.0153275 0.07425 -0.014035 0.073275 -0.012795 0.0722 -0.0116125 0.070975 -0.010485 0.069675 -0.0094075 0.068225 -0.0083875 0.06665 -0.0074225 0.06495 -0.00651 0.094 -0.008175 0.089525 -0.0064275 0.08465 -0.004865 0.092 -0.003945 0.084125 -0.00236 0.0514 -0.000835 0.047425 -0.0003475h0.043225l0.056625 0.0007075 0.031975 0.000685 0.0583 0.0019675 0.0257 0.001295v1.387445c-1.22715 -0.116775 -1.7747 0.253875 -2.016175 0.648875l-0.02175 0.0371c-0.031325 0.0557 -0.056825 0.1116 -0.077525 0.1664l-0.013125 0.03635c-0.002075 0.00605 -0.004075 0.01205 -0.00605 0.01805l-0.0111 0.0357 -0.009875 0.0352 -0.008675 0.03455c-0.00135 0.0057 -0.002675 0.011375 -0.003925 0.017025l-0.00705 0.033475c-0.0011 0.0055 -0.00215 0.010975 -0.00315 0.016425l-0.005575 0.0322 -0.00465 0.031225 -0.003825 0.0302 -0.004325 0.043125 -0.002825 0.040325 -0.001375 0.0316 -0.000625 0.029225 0 0.026675 0.000475 0.023925 0.000825 0.021025 0.0016 0.025725 0.00295 0.030325 -0.000025 0.509725 -0.003 1.04065 -0.003625 0.749925 -0.00425 0.630875 -0.00465 0.533125 -0.004525 0.4198 -0.005325 0.4086 -0.005475 0.3484 -0.007025 0.36915 -0.004325 0.1923 -0.004675 0.1817 -0.006025 0.202425 -0.002125 0.063375 -0.0002 0.117125 -0.000625 0.07175 -0.0008 0.048375 -0.001925 0.073325 -0.0029 0.0708 -0.002325 0.043175 -0.00285 0.043325 -0.0034 0.0435 -0.00625 0.065425 -0.005025 0.0437 -0.00575 0.04375 -0.0065 0.043775c-0.001175 0.007275 -0.00235 0.014575 -0.003575 0.021875l-0.007775 0.043725c-0.001375 0.007275 -0.0028 0.01455 -0.00425 0.021825l-0.00915 0.043625 -0.010125 0.0435 -0.011175 0.043375c-0.0039 0.014425 -0.007975 0.028825 -0.01225 0.0432l-0.01335 0.043 -0.01455 0.0428 -0.015775 0.042525c-0.1777 0.4592 -0.5800975 0.86815 -1.4912825 1.05755 0.8864025 0.18405 1.2913075 0.57555 1.4762825 1.019l0.01695 0.042375c0.0163 0.04255 0.0307 0.0855 0.0434 0.12875l0.01215 0.04335c0.007725 0.02895 0.014725 0.058025 0.021075 0.08715l0.009075 0.04375c0.001425 0.0073 0.0028 0.0146 0.004175 0.0219l0.007675 0.04385 0.006825 0.043875 0.006025 0.0439 0.005275 0.04385 0.004575 0.043775 0.0039 0.0437 0.003325 0.0436 0.00395 0.065075 0.00205 0.043175 0.002475 0.0723 0.0011 0.047775 0.00075 0.0474 0.0006 0.070275 0.000175 0.11665 0.0062 0.203175 0.00555 0.2146 0.0051 0.230075 0.0047 0.243625 0.00495 0.298625 0.006775 0.493425 0.0047 0.41815 0.002275 0.235225 0.004925 0.6009 0.005325 0.8915 0.003675 0.964925 0.001325 -0.000825v0.85575l-0.001375 0.012125 -0.001575 0.0182 -0.0011 0.01635 -0.001325 0.0304 -0.000475 0.023925 0 0.026675 0.000625 0.029225 0.001375 0.0316 0.002775 0.0398 0.00265 0.028075 0.005325 0.044225 0.004575 0.030775 0.005425 0.031725 0.006375 0.032575c0.001125 0.0055 0.002325 0.011025 0.00355 0.0166l0.007925 0.0337c0.0014 0.0057 0.00285 0.0114 0.00435 0.017125l0.0096 0.03465 0.0108 0.0352c0.001925 0.005925 0.003875 0.01185 0.005875 0.017775l0.01275 0.03585c0.004475 0.012 0.009175 0.024075 0.0141 0.036175l0.01555 0.036425c0.192725 0.4321 0.7011 0.8989 2.01595 0.791925l0.072025 -0.006375v1.38745l-0.03685 0.00175 -0.0683 0.002 -0.056175 0.00095h-0.066725l-0.05 -0.00055 -0.05415 -0.001025 -0.0581 -0.00165 -0.07545 -0.003025 -0.053175 -0.0027 -0.055325 -0.0033 -0.0574 -0.00395 -0.059325 -0.00465 -0.06115 -0.0054 -0.0629 -0.006225 -0.0645 -0.00705 -0.065975 -0.007975 -0.0674 -0.008925c-0.011325 -0.001575 -0.022725 -0.003175 -0.034175 -0.004825l-0.06925 -0.01045c-0.011625 -0.001825 -0.0233 -0.0037 -0.03505 -0.005625l-0.07085 -0.012075c-0.0119 -0.0021 -0.02385 -0.00425 -0.0358 -0.006475l-0.07225 -0.013825c-0.0121 -0.0024 -0.02425 -0.00485 -0.036425 -0.007375l-0.073375 -0.015675 -0.073975 -0.016975c-0.02475 -0.0059 -0.049575 -0.012 -0.074475 -0.01835l-0.07485 -0.01975c-0.687625 -0.187525 -1.4099425 -0.55795 -1.7815175 -1.284 0.08056 -0.892425 0.4475625 -1.6533 1.1068175 -2.1268 0.03105 -0.0219 0.062475 -0.0431 0.0943 -0.063675l0.035925 -0.0228c-0.044625 0.027575 -0.088475 0.0567 -0.13155 0.08735 -0.65793 0.472625 -1.0249325 1.2335 -1.1054925 2.12235 -0.16541 -0.333975 -0.25207 -0.70145 -0.2533225 -1.07415l-0.0082675 -0.382525 -0.0107375 -0.463675 -0.0134375 -0.54275 -0.0182975 -0.691775 -0.016795 -0.599975 -0.023135 -0.78555 -0.0260775 -0.8414 -0.0436125 -1.324075 -0.0106075 -0.307c-0.0258075 -0.695075 -0.304805 -1.03365 -0.59515 -1.1971l-0.0341975 -0.018425c-0.0057025 -0.002925 -0.011405 -0.005825 -0.0171075 -0.008625l-0.03419 -0.016125c-0.0113825 -0.005125 -0.022745 -0.010025 -0.034075 -0.014675l-0.033875 -0.0133c-0.0112475 -0.0042 -0.022445 -0.0082 -0.0335825 -0.011975l-0.0332075 -0.010725c-0.0109975 -0.00335 -0.0219175 -0.006525 -0.032745 -0.009525l-0.0259575 -0.00685 -0.025555 -0.00615 -0.0251075 -0.0055 -0.0246125 -0.00485 -0.03589 -0.006225 -0.0231775 -0.00345 -0.022525 -0.00295 -0.0324575 -0.00355 -0.0285875 -0.00015 -0.05848 -0.0007c-0.029715 -0.00035 -0.0601825 -0.00055 -0.0915775 0L0.25 12.8249v-1.626c0.076085 0.002675 0.144115 0.00135 0.210355 -0.002225l0.0324575 -0.003575 0.022525 -0.00295 0.0231775 -0.00345 0.03589 -0.0062 0.0246125 -0.004875 0.0251075 -0.0055 0.025555 -0.00615 0.0259575 -0.00685 0.032745 -0.009525 0.0332075 -0.010725 0.0335825 -0.011975c0.337435 -0.1262 0.7182325 -0.4505 0.748595 -1.26825l0.039565 -1.17585 0.0304575 -0.9606 0.0165375 -0.54515 0.0253025 -0.874475 0.016605 -0.608225 0.0120275 -0.46325 0.015135 -0.62025 0.0087775 -0.385675 0.00656 -0.3057c0.010065 -0.4818 0.128815 -0.8729 0.31734 -1.19045l0.012605 -0.020975 -0.00009 -0.001025Zm16.58246 0.034025V1.3516025l0.037275 -0.00178 0.051825 -0.001625 0.03355 -0.00068 0.0593 -0.0005925h0.045225l0.04955 0.00049 0.076475 0.00158 0.097525 0.0034675 0.052225 0.0025125 0.0544 0.003095 0.085475 0.0058425 0.05935 0.0047675 0.06115 0.0055225 0.06285 0.0063275 0.064425 0.00718 0.065875 0.0080825 0.067225 0.009035 0.068475 0.010035 0.0696 0.0110825c0.0117 0.0019375 0.023425 0.0039225 0.0352 0.0059525l0.0711 0.01275 0.071975 0.0139225 0.072725 0.0151425 0.073375 0.016415 0.073875 0.0177325c0.037075 0.009205 0.0743 0.0189225 0.1116 0.02918l0.07475 0.021245c0.69855 0.2051775 1.416675 0.6051775 1.754025 1.37949 0.12835 0.30265 0.195575 0.6277 0.197825 0.95645l0.00825 0.382575 0.01075 0.46375 0.007575 0.310275 0.01185 0.464425 0.016475 0.611675 0.012625 0.448325 0.023125 0.7856 0.0261 0.84145 0.0436 1.324075 0.0106 0.307c0.02625 0.70665 0.314175 1.04465 0.60965 1.204925l0.034125 0.0177c0.005675 0.002825 0.011375 0.0056 0.01705 0.0083l0.03405 0.015475 0.0339 0.01405c0.00565 0.002225 0.011275 0.0044 0.016875 0.006525l0.033525 0.01205c0.00555 0.0019 0.0111 0.00375 0.016625 0.00555l0.032925 0.0102c0.00545 0.0016 0.010875 0.003175 0.016275 0.004675l0.0483 0.012425 0.03145 0.006975 0.0307 0.006025 0.0298 0.0051 0.0232 0.003475 0.0225 0.002975 0.032475 0.0036c0.056775 0.00305 0.11585 0.004475 0.17865 0.003125L23.75 11.175625v1.62645c-0.076075 -0.002675 -0.144125 -0.00135 -0.21035 0.002225l-0.02145 0.002275 -0.0222 0.0027 -0.034525 0.005 -0.035875 0.0062 -0.024625 0.004875 -0.0251 0.0055 -0.02555 0.00615 -0.025975 0.00685 -0.0163 0.004625 -0.032975 0.0101c-0.00555 0.0018 -0.0111 0.003625 -0.016675 0.005525l-0.033575 0.01195c-0.005625 0.002125 -0.01125 0.004275 -0.0169 0.0065l-0.034 0.013975c-0.32375 0.1394 -0.66885 0.470925 -0.6977 1.2478l-0.03955 1.17525 -0.030475 0.960625 -0.016525 0.545225 -0.0253 0.87455 -0.0166 0.608275 -0.012025 0.463275 -0.01515 0.62025 -0.008775 0.3856 -0.00655 0.305675c-0.00255 0.285975 -0.05335 0.569375 -0.15015 0.8383l-0.0116 0.031525 0.000625 0.002925c-0.345975 0.89365 -1.182925 1.3138 -1.955675 1.50935l-0.0758 0.018525c-0.012575 0.00295 -0.02515 0.005875 -0.0377 0.008725l-0.074925 0.01645c-0.01245 0.002625 -0.02485 0.0052 -0.037225 0.007725l-0.073825 0.0145c-0.01225 0.0023 -0.02445 0.00455 -0.0366 0.006775l-0.072475 0.01265c-0.012 0.002 -0.02395 0.003975 -0.03585 0.005875l-0.070825 0.01095 -0.0696 0.00985 -0.06825 0.008825 -0.066775 0.00785 -0.065175 0.006925 -0.0635 0.006075 -0.09175 0.007575 -0.058725 0.004125 -0.08405 0.0049 -0.078875 0.00355 -0.0965 0.002925 -0.054875 0.000925 -0.050425 0.000375h-0.045725l-0.040825 -0.0005 -0.0357 -0.00065 -0.043375 -0.00125 -0.037725 -0.001575 -0.013 -0.0007v-1.38745c1.284675 0.122225 1.82455 -0.289675 2.04815 -0.70455l0.0192 -0.03715c0.006125 -0.012375 0.011975 -0.024725 0.01755 -0.037075l0.016025 -0.036925c0.005075 -0.01225 0.009925 -0.0245 0.014525 -0.036675l0.013125 -0.03635 0.01175 -0.03595c0.00185 -0.005975 0.00365 -0.0119 0.0054 -0.0178l0.009875 -0.0352 0.008675 -0.03455 0.007575 -0.03385 0.00655 -0.033075 0.00555 -0.0322 0.004675 -0.031225 0.003825 -0.0302 0.0043 -0.043125 0.00205 -0.027225 0.002175 -0.0447 0.000625 -0.029225 0 -0.026675 -0.000475 -0.023925 -0.000825 -0.021025 -0.00105 -0.01795 -0.00215 -0.026 -0.001375 -0.012125V19.0335l0.00215 -0.708425 0.0035 -0.73095 0.00405 -0.616075 0.005425 -0.6289 0.006275 -0.5644 0.004425 -0.328175 0.004125 -0.264325 0.00545 -0.3031 0.00395 -0.191875 0.004225 -0.1825 0.004525 -0.172075 0.006075 -0.198825 0.0002 -0.11665 0.000625 -0.071 0.000775 -0.0479 0.001125 -0.048275 0.0026 -0.073075 0.0024 -0.049075 0.00265 -0.043675 0.003175 -0.043825 0.0038 -0.04395 0.004425 -0.04405 0.00515 -0.0441 0.005875 -0.044175c0.00105 -0.00735 0.002125 -0.0147 0.00325 -0.022075l0.0071 -0.04415 0.007975 -0.044125 0.0089 -0.04405 0.0099 -0.04395c0.012125 -0.0512 0.02635 -0.102125 0.043025 -0.1526l0.014925 -0.043125c0.020725 -0.057325 0.0448 -0.11395 0.072775 -0.169525l0.021725 -0.0415c0.209775 -0.38535 0.617375 -0.716 1.409425 -0.880625 -0.99895 -0.2074 -1.386375 -0.67815 -1.536625 -1.189825l-0.01215 -0.043325c-0.007725 -0.02895 -0.014725 -0.058025 -0.021075 -0.08715l-0.009075 -0.043725c-0.001425 -0.0073 -0.0028 -0.0146 -0.004175 -0.0219l-0.007675 -0.04385 -0.006825 -0.043875 -0.006025 -0.04385 -0.005275 -0.04385 -0.004575 -0.0438 -0.0039 -0.043675 -0.003325 -0.0436 -0.00395 -0.065075 -0.00205 -0.04315 -0.002475 -0.0723 -0.0011 -0.047775 -0.00075 -0.047375 -0.000575 -0.070275 -0.0002 -0.11665 -0.004275 -0.13555 -0.00475 -0.1724 -0.0053 -0.22185 -0.0049 -0.236275 -0.004475 -0.24875 -0.00535 -0.34765 -0.006325 -0.4999 -0.0048 -0.467175 -0.004475 -0.5412 -0.00575 -0.962275 -0.003775 -1.042725c0.078925 -0.043575 0.1554 -0.0914 0.229175 -0.143225 0.36755 -0.263375 0.64435 -0.618225 0.830975 -1.035675l0.0128 -0.029225c-0.186775 0.430175 -0.46815 0.79555 -0.845125 1.06535 -0.061475 0.0432 -0.124825 0.0836 -0.1899 0.121075l-0.03925 0.02215v-0.7743l0.001375 -0.0121 0.001575 -0.018225 0.0011 -0.01635 0.001325 -0.0304 0.000475 -0.023925 0 -0.026675 -0.000625 -0.029225 -0.001375 -0.0316 -0.0017 -0.0262 -0.003725 -0.041675 -0.005325 -0.044225 -0.004575 -0.030775 -0.005425 -0.031725 -0.006375 -0.032575c-0.001125 -0.0055 -0.002325 -0.011025 -0.00355 -0.0166l-0.007925 -0.0337c-0.0014 -0.005675 -0.00285 -0.011375 -0.00435 -0.017125l-0.0096 -0.03465 -0.0108 -0.0352c-0.001925 -0.005925 -0.003875 -0.01185 -0.005875 -0.017775l-0.01275 -0.03585c-0.004475 -0.012 -0.009175 -0.024075 -0.0141 -0.036175l-0.01555 -0.036425c-0.192725 -0.4321 -0.7011 -0.898875 -2.01595 -0.7919l-0.072025 0.00635Z" stroke-width="0.25"></path><path fill="#ffab00" d="M3.111225 4.660025c0.013875 0.010075 0.028075 0.019575 0.0424 0.028875l0.043075 0.027525v-0.509775l-0.001375 -0.012125 -0.001575 -0.018225 -0.0011 -0.01635 -0.001325 -0.0304 -0.0005 -0.023925 0.000025 -0.026675 0.000625 -0.029225 0.001375 -0.0316 0.001725 -0.02655 0.00235 -0.02785 0.003075 -0.02905 0.003825 -0.0302 0.00465 -0.031225 0.005575 -0.0322 0.006525 -0.033075c0.001175 -0.005575 0.0024 -0.011175 0.00365 -0.016825l0.008125 -0.034225 0.009275 -0.034875c0.00165 -0.005875 0.00335 -0.01175 0.0051 -0.017675l0.0111 -0.0357c0.001975 -0.006 0.003975 -0.012 0.00605 -0.01805l0.0131 -0.03635c0.020725 -0.0548 0.046225 -0.1107 0.077525 -0.1664l0.02175 -0.0371c0.241475 -0.395 0.789025 -0.765625 2.0162 -0.648875V1.374455l-0.025725 -0.0012925 -0.0441 -0.0015825 -0.029575 -0.0007475 -0.0732 -0.000975 -0.04325 -0.000055 -0.0474 0.000345 -0.078525 0.001465 -0.071825 0.00227 -0.0772 0.0034075 -0.084625 0.004865 -0.089525 0.0064275 -0.0622 0.0052425 -0.096775 0.00944 -0.06665 0.0074225 -0.0682 0.0083875 -0.069675 0.00941 -0.071 0.0104825 -0.0722 0.0116125 -0.073275 0.0127975 -0.074225 0.014035 -0.075075 0.015325c-0.012575 0.002665 -0.025175 0.0053875 -0.037825 0.008165l-0.0761 0.0173675c-0.012725 0.0030125 -0.0255 0.006085 -0.038275 0.009215l-0.07685 0.01953c-0.03855 0.0101375 -0.0772 0.0208425 -0.115925 0.0321425l-0.077525 0.023405 -0.077575 0.0250525c-0.568775 0.1898775 -1.1318075 0.5168775 -1.4736175 1.077435 0.1105475 0.8186 0.4712825 1.51635 1.0866925 1.954975Zm2.281675 17.988475v-1.38745c-1.3422 0.127725 -1.871425 -0.327625 -2.07635 -0.760225l-0.016775 -0.037025c-0.008 -0.01845 -0.01545 -0.03685 -0.02235 -0.055125l-0.0131 -0.03635c-0.002075 -0.006025 -0.0041 -0.01205 -0.00605 -0.018025l-0.0111 -0.035725 -0.009875 -0.035175 -0.0087 -0.034575 -0.007575 -0.03385 -0.006525 -0.033075 -0.005575 -0.032175 -0.00465 -0.03125 -0.003825 -0.030175 -0.004325 -0.04315 -0.002825 -0.040325 -0.0014 -0.0316 -0.000625 -0.029225 0 -0.026675 0.0005 -0.023925 0.000825 -0.021025 0.001025 -0.01795 0.00215 -0.025975 0.001375 -0.0129v-0.854975c-0.04835 0.02985 -0.095775 0.061175 -0.142325 0.094 -0.6592625 0.4735 -1.026265 1.234375 -1.1068275 2.1268 0.3715775 0.72605 1.0938775 1.096475 1.7815275 1.284l0.07485 0.01975c0.0249 0.00635 0.049725 0.01245 0.074475 0.01835l0.073975 0.016975 0.073375 0.015675 0.07265 0.01445c0.012025 0.0023 0.02405 0.00455 0.036 0.00675l0.071375 0.01265c0.0118 0.002025 0.023575 0.003975 0.0353 0.0059l0.069825 0.010975c0.01155 0.00175 0.023025 0.00345 0.034475 0.0051l0.068025 0.009425c0.01125 0.001475 0.022425 0.002925 0.033525 0.004325l0.066 0.007975 0.0645 0.00705 0.062875 0.006225 0.061175 0.0054 0.059325 0.00465 0.0574 0.00395 0.055325 0.0033 0.0789 0.003825 0.049725 0.0019 0.0581 0.00165 0.05415 0.001025 0.049975 0.0005 0.066725 -0.0001 0.0562 -0.0008 0.044925 -0.00115 0.060225 -0.0026Zm16.714475 -19.7107c-0.3588 -0.8236 -1.148425 -1.22372 -1.88705 -1.4163475l-0.073675 -0.01858 -0.073225 -0.0172425c-0.012175 -0.0027675 -0.0243 -0.0054775 -0.036425 -0.0081375l-0.07235 -0.01533c-0.012 -0.0024525 -0.023975 -0.004855 -0.0359 -0.0072075l-0.07125 -0.013525 -0.070375 -0.012385 -0.069375 -0.0112875 -0.0683 -0.01024 -0.0671 -0.00924 -0.0658 -0.00829 -0.064375 -0.0073875 -0.062875 -0.00653 -0.06125 -0.005725 -0.088575 -0.007175 -0.084325 -0.0056325 -0.0797 -0.004245 -0.074725 -0.003025 -0.04685 -0.001415 -0.05645 -0.001205 -0.052125 -0.0006075 -0.047625 -0.000115 -0.04285 0.000275 -0.037875 0.00057 -0.04695 0.001175 -0.0345 0.001265 -0.028525 0.00142v1.387445c1.342225 -0.1277 1.871425 0.32765 2.07635 0.76025l0.016775 0.037c0.008 0.018475 0.01545 0.03685 0.02235 0.055125l0.0131 0.03635c0.002075 0.00605 0.0041 0.01205 0.00605 0.01805l0.011125 0.0357 0.00985 0.0352 0.0087 0.03455 0.007575 0.03385 0.00655 0.033075 0.00555 0.0322 0.004675 0.031225 0.003825 0.0302 0.0043 0.043125 0.002825 0.040325 0.0014 0.0316 0.000625 0.029225 0 0.026675 -0.000475 0.023925 -0.00085 0.021025 -0.001575 0.025725 -0.002975 0.03055v0.774075c0.078925 -0.043575 0.1554 -0.0914 0.22915 -0.143225 0.596625 -0.426975 0.953775 -1.0934 1.0755 -1.877075Zm-1.0164 16.271625c-0.091525 -0.0651 -0.187375 -0.123875 -0.2869 -0.1759v0.76085l0.001375 0.012125 0.0016 0.018225 0.001075 0.01635 0.001325 0.0304 0.0005 0.023925 0 0.026675 -0.000625 0.029225 -0.0022 0.0447 -0.002025 0.027225 -0.004325 0.043125 -0.003825 0.0302 -0.00465 0.031225 -0.005575 0.0322 -0.006525 0.033075 -0.007575 0.03385 -0.0087 0.03455 -0.009875 0.0352c-0.001725 0.0059 -0.003525 0.011825 -0.005375 0.0178l-0.011775 0.03595 -0.0131 0.03635c-0.0046 0.012175 -0.00945 0.024425 -0.014525 0.036675l-0.016025 0.036925c-0.0056 0.01235 -0.01145 0.0247 -0.017575 0.037075l-0.019175 0.03715c-0.223625 0.414875 -0.7635 0.826775 -2.048175 0.70455v1.38745l0.020525 0.00105 0.05915 0.0021 0.072625 0.001325 0.044075 0.000225 0.075225 -0.00045 0.05585 -0.001025 0.060125 -0.001675 0.074475 -0.00295 0.079525 -0.00415 0.055625 -0.003525 0.0871 -0.00655 0.06035 -0.005275 0.06205 -0.00605 0.06365 -0.006875 0.065125 -0.007775 0.0665 -0.0087 0.067775 -0.00965 0.068925 -0.0107c0.011575 -0.001875 0.0232 -0.003775 0.034875 -0.00575l0.070475 -0.0123 0.07135 -0.013475c0.01195 -0.00235 0.02395 -0.004725 0.035975 -0.007175l0.0725 -0.015275c0.012125 -0.00265 0.0243 -0.00535 0.036475 -0.0081l0.0734 -0.0172c0.7854 -0.1904 1.649125 -0.609275 2.002025 -1.520825 -0.139625 -0.7282 -0.491425 -1.34405 -1.0531 -1.7464Z" stroke-width="0.25"></path></svg>